<?xml version="1.0" encoding="utf-8"?>
<!-- Generator: Adobe Illustrator 19.0.0, SVG Export Plug-In . SVG Version: 6.00 Build 0)  -->
<svg version="1.1" id="Layer_1" xmlns="http://www.w3.org/2000/svg" xmlns:xlink="http://www.w3.org/1999/xlink" x="0px" y="0px"
	 viewBox="-428 230 102 102" style="enable-background:new -428 230 102 102;" xml:space="preserve">
<style type="text/css">
	.st0{fill:#FF0000;}
	.st1{fill:#FFFFFF;}
</style>
<g id="XMLID_272_">
	<g id="XMLID_275_">
		<path class="st0" d="M-377.8,329.1c-26.5,0-48-21.5-48-48s21.5-48,48-48c26.5,0,48,21.5,48,48S-351.3,329.1-377.8,329.1z"/>
		<path class="st1" d="M-377.8,235.1c25.4,0,46,20.6,46,46s-20.6,46-46,46s-46-20.6-46-46S-403.2,235.1-377.8,235.1 M-377.8,231.1
			c-27.6,0-50,22.4-50,50s22.4,50,50,50s50-22.4,50-50S-350.2,231.1-377.8,231.1L-377.8,231.1z"/>
	</g>
	<path id="XMLID_273_" class="st1" d="M-383.8,291.6c-4.2-0.1-6.8-3.1-7.5-5.6c1.2,0.2,2.3,0.2,3.4-0.1c0,0,0.1,0,0.1-0.1
		c-2.3-0.5-4-1.7-5.2-3.7c-0.8-1.3-1.2-2.7-1.2-4.3c1.1,0.6,2.3,0.9,3.6,1c-1.7-1.2-2.8-2.8-3.3-4.9c-0.5-2-0.2-4,0.9-5.8
		c4.4,5.1,9.9,7.9,16.6,8.4c0-0.3-0.1-0.6-0.1-0.9c-0.2-1.9,0.2-3.7,1.2-5.3c1.3-2,3.1-3.3,5.5-3.6c2.7-0.4,5.1,0.3,7,2.2
		c0.1,0.1,0.2,0.2,0.4,0.1c1.7-0.4,3.2-1,4.7-1.8c0,0,0.1,0,0.1-0.1c0,0,0,0,0.1,0c-0.6,1.9-1.8,3.3-3.4,4.4c1.6-0.2,3-0.6,4.5-1.2
		l0,0c-0.3,0.4-0.6,0.8-0.9,1.2c-0.9,1.1-1.8,2-2.9,2.8c-0.1,0.1-0.1,0.1-0.1,0.3c0,1.2,0,2.4-0.1,3.6c-0.3,2.5-1,4.9-2.1,7.2
		c-1.1,2.4-2.5,4.5-4.3,6.3c-3.1,3.2-6.8,5.2-11.1,6.2c-1.5,0.3-3,0.5-4.5,0.5c-4.6,0.1-8.9-1-12.9-3.5c-0.1,0-0.1-0.1-0.2-0.1
		c2.8,0.3,5.5-0.1,8-1.1C-386.3,293.2-385,292.5-383.8,291.6z"/>
</g>
</svg>
