<?xml version="1.0" encoding="utf-8"?>
<!-- Generator: Adobe Illustrator 19.0.0, SVG Export Plug-In . SVG Version: 6.00 Build 0)  -->
<svg version="1.1" id="Layer_1" xmlns="http://www.w3.org/2000/svg" xmlns:xlink="http://www.w3.org/1999/xlink" x="0px" y="0px"
	 viewBox="-428 230 102 102" style="enable-background:new -428 230 102 102;" xml:space="preserve">
<style type="text/css">
	.st0{fill:#FF0000;}
	.st1{fill:#FFFFFF;}
</style>
<g id="XMLID_320_">
	<g id="XMLID_314_">
		<g id="XMLID_319_">
			<path class="st0" d="M-377,329c-26.5,0-48-21.5-48-48c0-26.5,21.5-48,48-48c26.5,0,48,21.5,48,48C-329,307.5-350.5,329-377,329z"
				/>
			<path class="st1" d="M-377,235c25.4,0,46,20.6,46,46s-20.6,46-46,46s-46-20.6-46-46S-402.4,235-377,235 M-377,231
				c-27.6,0-50,22.4-50,50s22.4,50,50,50s50-22.4,50-50S-349.4,231-377,231L-377,231z"/>
		</g>
	</g>
	<g id="XMLID_308_">
		<path id="XMLID_310_" class="st1" d="M-392.4,272.3h7.7v24.8h-7.7V272.3z M-388.5,259.9c2.5,0,4.5,2,4.5,4.5s-2,4.5-4.5,4.5
			s-4.5-2-4.5-4.5S-391,259.9-388.5,259.9"/>
		<path id="XMLID_309_" class="st1" d="M-379.8,272.3h7.4v3.4h0.1c1-2,3.5-4,7.3-4c7.8,0,9.2,5.1,9.2,11.8v13.6h-7.7V285
			c0-2.9-0.1-6.6-4-6.6c-4,0-4.6,3.1-4.6,6.4v12.3h-7.7L-379.8,272.3L-379.8,272.3z"/>
	</g>
</g>
</svg>
