<?xml version="1.0" encoding="utf-8"?>
<!-- Generator: Adobe Illustrator 19.0.0, SVG Export Plug-In . SVG Version: 6.00 Build 0)  -->
<svg version="1.1" id="Layer_1" xmlns="http://www.w3.org/2000/svg" xmlns:xlink="http://www.w3.org/1999/xlink" x="0px" y="0px"
	 viewBox="-428 230 102 102" style="enable-background:new -428 230 102 102;" xml:space="preserve">
<style type="text/css">
	.st0{fill:#FF0000;}
	.st1{fill:#FFFFFF;}
</style>
<g id="XMLID_272_">
	<g id="XMLID_310_">
		<g id="XMLID_313_">
			<path class="st0" d="M-376.5,329.4c-26.5,0-48-21.5-48-48s21.5-48,48-48c26.5,0,48,21.5,48,48S-350,329.4-376.5,329.4z"/>
			<path class="st1" d="M-376.5,235.4c25.4,0,46,20.6,46,46s-20.6,46-46,46s-46-20.6-46-46S-401.9,235.4-376.5,235.4 M-376.5,231.4
				c-27.6,0-50,22.4-50,50s22.4,50,50,50s50-22.4,50-50S-348.9,231.4-376.5,231.4L-376.5,231.4z"/>
		</g>
	</g>
	<g id="XMLID_273_">
		<path id="XMLID_309_" class="st1" d="M-370.5,276.1c0.8,0,1.8-0.4,2.9-1.7v1.5h2.6v-13.7h-2.5v10.4c-0.3,0.4-1,1-1.5,1
			s-0.7-0.4-0.7-0.9v-10.5h-2.5v11.4C-372.2,275-371.8,276.1-370.5,276.1z"/>
		<path id="XMLID_306_" class="st1" d="M-381.8,272.5c0,2.4,1.3,3.7,3.7,3.7c2,0,3.7-1.4,3.7-3.7v-6.7c0-2.1-1.6-3.7-3.7-3.7
			c-2.2,0-3.7,1.5-3.7,3.7V272.5z M-379.2,266c0-0.7,0.3-1.3,1.1-1.3c0.8,0,1.1,0.5,1.1,1.3v6.4c0,0.7-0.4,1.3-1.1,1.3
			s-1.1-0.6-1.1-1.3V266z"/>
		<polygon id="XMLID_305_" class="st1" points="-387.8,275.9 -385,275.9 -385,268.4 -381.6,257.4 -384.5,257.4 -386.4,264.8 
			-388.4,257.4 -391.2,257.4 -387.8,268.4 		"/>
		<path id="XMLID_276_" class="st1" d="M-361.6,279h-29.9c-3.2,0-5.8,2.6-5.8,5.8v14.7c0,3.2,2.6,5.8,5.8,5.8h29.9
			c3.2,0,5.8-2.6,5.8-5.8v-14.7C-355.7,281.6-358.4,279-361.6,279z M-387.5,301h-2.7v-15.1h-2.8v-2.6h8.4v2.6h-2.8V301H-387.5z
			 M-377.8,301h-2.4v-1.4c-0.4,0.5-0.9,0.9-1.4,1.2c-1.3,0.7-3.1,0.7-3.1-1.9V288h2.4v10c0,0.5,0.1,0.9,0.6,0.9s1.1-0.6,1.4-1V288
			h2.4v13H-377.8z M-368.5,298.3c0,1.6-0.6,2.9-2.2,2.9c-0.9,0-1.6-0.3-2.3-1.2v1h-2.4v-17.6h2.4v5.6c0.5-0.7,1.3-1.2,2.2-1.2
			c1.8,0,2.4,1.5,2.4,3.3v7.2L-368.5,298.3L-368.5,298.3z M-359.6,294.8h-4.6v2.5c0,1,0.1,1.8,1.1,1.8s1.1-0.7,1.1-1.8v-0.9h2.5v1
			c0,2.5-1.1,4-3.6,4c-2.3,0-3.5-1.7-3.5-4v-5.8c0-2.3,1.5-3.8,3.7-3.8c2.3,0,3.4,1.5,3.4,3.8v3.2L-359.6,294.8L-359.6,294.8z"/>
		<path id="XMLID_275_" class="st1" d="M-363.1,289.9c-0.9,0-1.1,0.6-1.1,1.5v1.3h2.1v-1.3C-362.1,290.6-362.3,289.9-363.1,289.9z"
			/>
		<path id="XMLID_274_" class="st1" d="M-372.5,290c-0.2,0.1-0.3,0.2-0.5,0.4v8.1c0.2,0.2,0.4,0.4,0.6,0.5c0.4,0.2,1,0.2,1.2-0.1
			c0.1-0.2,0.2-0.5,0.2-0.9v-6.7c0-0.4-0.1-0.8-0.3-1C-371.6,289.8-372.1,289.8-372.5,290z"/>
	</g>
</g>
</svg>
