<?xml version="1.0" encoding="utf-8"?>
<!-- Generator: Adobe Illustrator 19.0.0, SVG Export Plug-In . SVG Version: 6.00 Build 0)  -->
<svg version="1.1" id="Layer_1" xmlns="http://www.w3.org/2000/svg" xmlns:xlink="http://www.w3.org/1999/xlink" x="0px" y="0px"
	 viewBox="-428 230 102 102" style="enable-background:new -428 230 102 102;" xml:space="preserve">
<style type="text/css">
	.st0{fill:#FF0000;}
	.st1{fill:#FFFFFF;}
</style>
<g id="XMLID_272_">
	<g id="XMLID_275_">
		<path class="st0" d="M-376.9,329c-26.5,0-48-21.5-48-48c0-26.5,21.5-48,48-48s48,21.5,48,48C-328.9,307.5-350.4,329-376.9,329z"/>
		<path class="st1" d="M-376.9,235c25.4,0,46,20.6,46,46s-20.6,46-46,46s-46-20.6-46-46S-402.3,235-376.9,235 M-376.9,231
			c-27.6,0-50,22.4-50,50s22.4,50,50,50s50-22.4,50-50S-349.3,231-376.9,231L-376.9,231z"/>
	</g>
	<path id="XMLID_273_" class="st1" d="M-370.3,266.3c1.3,0,2.6,0,3.9,0c0.2,0,0.3,0,0.5,0v-6.8c-0.7-0.1-1.4-0.2-2.2-0.2
		c-1.3-0.1-2.7-0.1-4-0.1c-2.1,0-4,0.5-5.7,1.8c-1.9,1.4-3,3.4-3.4,5.7c-0.2,1-0.2,1.9-0.2,2.9c0,1.5,0,3.1,0,4.6v0.6h-6.5v7.6h6.5
		v19.1h7.9v-19.2h6.5c0.3-2.5,0.7-5,1-7.6c-0.5,0-1,0-1.5,0c-1.8,0-6.1,0-6.1,0s0-3.8,0.1-5.4C-373.4,267-372.1,266.3-370.3,266.3z"
		/>
</g>
</svg>
