<?xml version="1.0" encoding="utf-8"?>
<!-- Generator: Adobe Illustrator 19.0.0, SVG Export Plug-In . SVG Version: 6.00 Build 0)  -->
<svg version="1.1" id="Layer_1" xmlns="http://www.w3.org/2000/svg" xmlns:xlink="http://www.w3.org/1999/xlink" x="0px" y="0px"
	 viewBox="-254 346 102 102" style="enable-background:new -254 346 102 102;" xml:space="preserve">
<style type="text/css">
	.st0{fill:#FFFFFF;}
</style>
<g id="XMLID_320_">
	<g id="XMLID_314_">
		<path id="XMLID_319_" class="st0" d="M-153,397c0,27.6-22.4,50-50,50s-50-22.4-50-50s22.4-50,50-50S-153,369.4-153,397z"/>
	</g>
	<g id="XMLID_308_">
		<path id="XMLID_310_" d="M-218.4,388.3h7.7v24.8h-7.7V388.3z M-214.5,375.9c2.5,0,4.5,2,4.5,4.5s-2,4.5-4.5,4.5s-4.5-2-4.5-4.5
			S-217,375.9-214.5,375.9"/>
		<path id="XMLID_309_" d="M-205.8,388.3h7.4v3.4h0.1c1-2,3.5-4,7.3-4c7.8,0,9.2,5.1,9.2,11.8v13.6h-7.7V401c0-2.9-0.1-6.6-4-6.6
			c-4,0-4.6,3.1-4.6,6.4v12.3h-7.7L-205.8,388.3L-205.8,388.3z"/>
	</g>
</g>
</svg>
