<?xml version="1.0" encoding="utf-8"?>
<!-- Generator: Adobe Illustrator 19.0.0, SVG Export Plug-In . SVG Version: 6.00 Build 0)  -->
<svg version="1.1" id="Layer_1" xmlns="http://www.w3.org/2000/svg" xmlns:xlink="http://www.w3.org/1999/xlink" x="0px" y="0px"
	 viewBox="-254 346 102 102" style="enable-background:new -254 346 102 102;" xml:space="preserve">
<style type="text/css">
	.st0{fill:#FFFFFF;}
</style>
<g id="XMLID_272_">
	<g id="XMLID_310_">
		<circle id="XMLID_313_" class="st0" cx="-203" cy="397" r="50"/>
	</g>
	<g id="XMLID_273_">
		<path id="XMLID_309_" d="M-197,391.7c0.8,0,1.8-0.4,2.9-1.7v1.5h2.6v-13.7h-2.5v10.4c-0.3,0.4-1,1-1.5,1s-0.7-0.4-0.7-0.9v-10.5
			h-2.5v11.4C-198.7,390.6-198.3,391.7-197,391.7z"/>
		<path id="XMLID_306_" d="M-208.3,388.1c0,2.4,1.3,3.7,3.7,3.7c2,0,3.7-1.4,3.7-3.7v-6.7c0-2.1-1.6-3.7-3.7-3.7
			c-2.2,0-3.7,1.5-3.7,3.7V388.1z M-205.7,381.6c0-0.7,0.3-1.3,1.1-1.3c0.8,0,1.1,0.5,1.1,1.3v6.4c0,0.7-0.4,1.3-1.1,1.3
			s-1.1-0.6-1.1-1.3V381.6z"/>
		<polygon id="XMLID_305_" points="-214.3,391.5 -211.5,391.5 -211.5,384 -208.1,373 -211,373 -212.9,380.4 -214.9,373 -217.7,373 
			-214.3,384 		"/>
		<path id="XMLID_276_" d="M-188.1,394.6H-218c-3.2,0-5.8,2.6-5.8,5.8v14.7c0,3.2,2.6,5.8,5.8,5.8h29.9c3.2,0,5.8-2.6,5.8-5.8v-14.7
			C-182.2,397.2-184.9,394.6-188.1,394.6z M-214,416.6h-2.7v-15.1h-2.8v-2.6h8.4v2.6h-2.8v15.1H-214z M-204.3,416.6h-2.4v-1.4
			c-0.4,0.5-0.9,0.9-1.4,1.2c-1.3,0.7-3.1,0.7-3.1-1.9v-10.9h2.4v10c0,0.5,0.1,0.9,0.6,0.9s1.1-0.6,1.4-1v-9.9h2.4v13H-204.3z
			 M-195,413.9c0,1.6-0.6,2.9-2.2,2.9c-0.9,0-1.6-0.3-2.3-1.2v1h-2.4V399h2.4v5.6c0.5-0.7,1.3-1.2,2.2-1.2c1.8,0,2.4,1.5,2.4,3.3
			v7.2L-195,413.9L-195,413.9z M-186.1,410.4h-4.6v2.5c0,1,0.1,1.8,1.1,1.8s1.1-0.7,1.1-1.8V412h2.5v1c0,2.5-1.1,4-3.6,4
			c-2.3,0-3.5-1.7-3.5-4v-5.8c0-2.3,1.5-3.8,3.7-3.8c2.3,0,3.4,1.5,3.4,3.8v3.2L-186.1,410.4L-186.1,410.4z"/>
		<path id="XMLID_275_" d="M-189.6,405.5c-0.9,0-1.1,0.6-1.1,1.5v1.3h2.1V407C-188.6,406.2-188.8,405.5-189.6,405.5z"/>
		<path id="XMLID_274_" d="M-199,405.6c-0.2,0.1-0.3,0.2-0.5,0.4v8.1c0.2,0.2,0.4,0.4,0.6,0.5c0.4,0.2,1,0.2,1.2-0.1
			c0.1-0.2,0.2-0.5,0.2-0.9v-6.7c0-0.4-0.1-0.8-0.3-1C-198.1,405.4-198.6,405.4-199,405.6z"/>
	</g>
</g>
</svg>
