<?xml version="1.0" encoding="utf-8"?>
<!-- Generator: Adobe Illustrator 19.0.0, SVG Export Plug-In . SVG Version: 6.00 Build 0)  -->
<svg version="1.1" id="Layer_1" xmlns="http://www.w3.org/2000/svg" xmlns:xlink="http://www.w3.org/1999/xlink" x="0px" y="0px"
	 viewBox="-254 346 102 102" style="enable-background:new -254 346 102 102;" xml:space="preserve">
<style type="text/css">
	.st0{fill:#FFFFFF;}
</style>
<g id="XMLID_286_">
	<path id="XMLID_293_" class="st0" d="M-153,397c0,27.6-22.3,50-49.9,50s-49.9-22.4-49.9-50s22.3-50,49.9-50
		C-175.4,347-153,369.4-153,397z"/>
	<path id="XMLID_289_" d="M-209.5,393.6v0.4c0,2,0,6.6,0,6.6s8.4,0,8.9,0c0,1-0.8,3.3-3.3,5c-1.5,1-3.1,1.4-4.8,1.6
		c-1.2,0.1-2.4,0-3.6-0.4c-3.7-1.2-6.4-4.5-6.8-8.6c-0.1-1,0-2,0.2-3c1.1-4.8,5.7-8.4,10.9-7.6c2.3,0.3,3.6,1.3,4.9,2.3
		c1.6-1.6,3.2-3.2,4.8-4.8c-0.4-0.3-1.3-1.2-2.9-2.2c-2.4-1.4-5-2.1-7.9-2.1c-0.5,0-1.1,0-1.6,0c-0.9,0-1.8,0.2-2.7,0.4
		c-3.6,0.9-6.6,2.8-8.9,5.7c-2.2,2.8-3.4,5.9-3.7,9.5c-0.1,1.5,0,3,0.3,4.5c0.9,4.1,3.1,7.4,6.5,9.9c2.6,1.9,5.6,3,8.8,3.1
		c1.8,0.1,3.6-0.1,5.4-0.5c3.3-0.9,6.1-2.8,8.1-5.6c3-4,3.7-9.2,2.8-14.2C-199.2,393.6-204.3,393.6-209.5,393.6z"/>
	<polygon id="XMLID_288_" points="-174,393.6 -179.7,393.6 -179.7,388.6 -179.7,388.6 -179.7,388.6 -183.9,388.6 -183.7,388.6 
		-183.7,388.6 -183.7,393.6 -189.7,393.6 -189.7,393.6 -189.7,394.4 -189.7,398.6 -189.7,398.6 -189.7,398.6 -183.7,398.6 
		-183.7,404.4 -183.7,404.6 -183.9,404.6 -179.7,404.6 -179.7,404.6 -179.7,404.4 -179.7,398.6 -174,398.6 -173.7,398.6 
		-173.7,398.6 -173.7,394.4 -173.7,393.6 	"/>
</g>
</svg>
