<?xml version="1.0" encoding="utf-8"?>
<!-- Generator: Adobe Illustrator 19.0.0, SVG Export Plug-In . SVG Version: 6.00 Build 0)  -->
<svg version="1.1" id="Layer_1" xmlns="http://www.w3.org/2000/svg" xmlns:xlink="http://www.w3.org/1999/xlink" x="0px" y="0px"
	 viewBox="0 0 102 102" style="enable-background:new 0 0 102 102;" xml:space="preserve">
<style type="text/css">
	.st0{fill-rule:evenodd;clip-rule:evenodd;fill:url(#XMLID_326_);}
	.st1{fill-rule:evenodd;clip-rule:evenodd;fill:url(#XMLID_327_);}
	.st2{fill:url(#XMLID_328_);}
	.st3{fill:url(#XMLID_329_);}
</style>
<g id="XMLID_320_">
	<g id="XMLID_314_">
		<linearGradient id="XMLID_326_" gradientUnits="userSpaceOnUse" x1="-19.2205" y1="51" x2="183.1565" y2="51">
			<stop  offset="0" style="stop-color:#0D0E19"/>
			<stop  offset="0.6022" style="stop-color:#20222A"/>
			<stop  offset="0.8398" style="stop-color:#3E4151"/>
			<stop  offset="1" style="stop-color:#4E5266"/>
		</linearGradient>
		<path id="XMLID_319_" class="st0" d="M101,51c0,27.6-22.4,50-50,50C23.4,101,1,78.6,1,51C1,23.4,23.4,1,51,1
			C78.6,1,101,23.4,101,51z"/>
		<linearGradient id="XMLID_327_" gradientUnits="userSpaceOnUse" x1="36.9388" y1="51" x2="150.623" y2="51">
			<stop  offset="0" style="stop-color:#0D0E19"/>
			<stop  offset="0.6022" style="stop-color:#20222A"/>
			<stop  offset="0.8398" style="stop-color:#3E4151"/>
			<stop  offset="1" style="stop-color:#4E5266"/>
		</linearGradient>
		<path id="XMLID_318_" class="st1" d="M51,1v100c27.6,0,50-22.4,50-50C101,23.4,78.6,1,51,1z"/>
	</g>
	<g id="XMLID_308_">
		<linearGradient id="XMLID_328_" gradientUnits="userSpaceOnUse" x1="19.8405" y1="48.5007" x2="99.1229" y2="48.5007">
			<stop  offset="0" style="stop-color:#B27F2A"/>
			<stop  offset="5.761914e-002" style="stop-color:#B7862E"/>
			<stop  offset="0.1404" style="stop-color:#C49939"/>
			<stop  offset="0.2379" style="stop-color:#DAB84C"/>
			<stop  offset="0.3333" style="stop-color:#F4DD62"/>
			<stop  offset="0.5161" style="stop-color:#F4E38B"/>
			<stop  offset="0.6613" style="stop-color:#F4DD62"/>
			<stop  offset="1" style="stop-color:#B27F2A"/>
		</linearGradient>
		<path id="XMLID_310_" class="st2" d="M35.6,42.3h7.7v24.8h-7.7V42.3z M39.5,29.9c2.5,0,4.5,2,4.5,4.5c0,2.5-2,4.5-4.5,4.5
			c-2.5,0-4.5-2-4.5-4.5C35,31.9,37,29.9,39.5,29.9"/>
		<linearGradient id="XMLID_329_" gradientUnits="userSpaceOnUse" x1="19.8445" y1="54.3574" x2="99.1166" y2="54.3574">
			<stop  offset="0" style="stop-color:#B27F2A"/>
			<stop  offset="5.761914e-002" style="stop-color:#B7862E"/>
			<stop  offset="0.1404" style="stop-color:#C49939"/>
			<stop  offset="0.2379" style="stop-color:#DAB84C"/>
			<stop  offset="0.3333" style="stop-color:#F4DD62"/>
			<stop  offset="0.5161" style="stop-color:#F4E38B"/>
			<stop  offset="0.6613" style="stop-color:#F4DD62"/>
			<stop  offset="1" style="stop-color:#B27F2A"/>
		</linearGradient>
		<path id="XMLID_309_" class="st3" d="M48.2,42.3h7.4v3.4h0.1c1-2,3.5-4,7.3-4c7.8,0,9.2,5.1,9.2,11.8v13.6h-7.7V55
			c0-2.9-0.1-6.6-4-6.6c-4,0-4.6,3.1-4.6,6.4v12.3h-7.7V42.3z"/>
	</g>
</g>
</svg>
