<?xml version="1.0" encoding="utf-8"?>
<!-- Generator: Adobe Illustrator 19.0.0, SVG Export Plug-In . SVG Version: 6.00 Build 0)  -->
<svg version="1.1" id="Layer_1" xmlns="http://www.w3.org/2000/svg" xmlns:xlink="http://www.w3.org/1999/xlink" x="0px" y="0px"
	 viewBox="0 0 102 102" style="enable-background:new 0 0 102 102;" xml:space="preserve">
<style type="text/css">
	.st0{fill-rule:evenodd;clip-rule:evenodd;fill:url(#XMLID_318_);}
	.st1{fill-rule:evenodd;clip-rule:evenodd;fill:url(#XMLID_319_);}
	.st2{fill:url(#XMLID_320_);}
	.st3{fill:url(#XMLID_321_);}
	.st4{fill:url(#XMLID_326_);}
	.st5{fill:url(#XMLID_327_);}
	.st6{fill:url(#XMLID_328_);}
	.st7{fill:url(#XMLID_329_);}
</style>
<g id="XMLID_272_">
	<g id="XMLID_310_">
		<linearGradient id="XMLID_318_" gradientUnits="userSpaceOnUse" x1="-18.7602" y1="51.3599" x2="183.6168" y2="51.3599">
			<stop  offset="0" style="stop-color:#0D0E19"/>
			<stop  offset="0.6022" style="stop-color:#20222A"/>
			<stop  offset="0.8398" style="stop-color:#3E4151"/>
			<stop  offset="1" style="stop-color:#4E5266"/>
		</linearGradient>
		<circle id="XMLID_313_" class="st0" cx="51.5" cy="51.4" r="50"/>
		<linearGradient id="XMLID_319_" gradientUnits="userSpaceOnUse" x1="37.398" y1="51.3599" x2="151.0842" y2="51.3599">
			<stop  offset="0" style="stop-color:#0D0E19"/>
			<stop  offset="0.6022" style="stop-color:#20222A"/>
			<stop  offset="0.8398" style="stop-color:#3E4151"/>
			<stop  offset="1" style="stop-color:#4E5266"/>
		</linearGradient>
		<path id="XMLID_312_" class="st1" d="M51.5,1.4v100c27.6,0,50-22.4,50-50C101.5,23.7,79.1,1.4,51.5,1.4z"/>
	</g>
	<g id="XMLID_273_">
		<linearGradient id="XMLID_320_" gradientUnits="userSpaceOnUse" x1="68.4398" y1="29.7234" x2="24.4427" y2="75.0538">
			<stop  offset="0" style="stop-color:#B27F2A"/>
			<stop  offset="5.761914e-002" style="stop-color:#B7862E"/>
			<stop  offset="0.1404" style="stop-color:#C49939"/>
			<stop  offset="0.2379" style="stop-color:#DAB84C"/>
			<stop  offset="0.3333" style="stop-color:#F4DD62"/>
			<stop  offset="0.5161" style="stop-color:#F4E38B"/>
			<stop  offset="0.6613" style="stop-color:#F4DD62"/>
			<stop  offset="1" style="stop-color:#B27F2A"/>
		</linearGradient>
		<path id="XMLID_309_" class="st2" d="M57.5,46.1c0.8,0,1.8-0.4,2.9-1.7v1.5H63V32.2h-2.5v10.4c-0.3,0.4-1,1-1.5,1
			c-0.5,0-0.7-0.4-0.7-0.9V32.2h-2.5v11.4C55.8,45,56.2,46.1,57.5,46.1z"/>
		<linearGradient id="XMLID_321_" gradientUnits="userSpaceOnUse" x1="63.6011" y1="25.0272" x2="19.604" y2="70.3575">
			<stop  offset="0" style="stop-color:#B27F2A"/>
			<stop  offset="5.761914e-002" style="stop-color:#B7862E"/>
			<stop  offset="0.1404" style="stop-color:#C49939"/>
			<stop  offset="0.2379" style="stop-color:#DAB84C"/>
			<stop  offset="0.3333" style="stop-color:#F4DD62"/>
			<stop  offset="0.5161" style="stop-color:#F4E38B"/>
			<stop  offset="0.6613" style="stop-color:#F4DD62"/>
			<stop  offset="1" style="stop-color:#B27F2A"/>
		</linearGradient>
		<path id="XMLID_306_" class="st3" d="M46.2,42.5c0,2.4,1.3,3.7,3.7,3.7c2,0,3.7-1.4,3.7-3.7v-6.7c0-2.1-1.6-3.7-3.7-3.7
			c-2.2,0-3.7,1.5-3.7,3.7V42.5z M48.8,36c0-0.7,0.3-1.3,1.1-1.3c0.8,0,1.1,0.5,1.1,1.3v6.4c0,0.7-0.4,1.3-1.1,1.3
			c-0.7,0-1.1-0.6-1.1-1.3V36z"/>
		<linearGradient id="XMLID_326_" gradientUnits="userSpaceOnUse" x1="57.1913" y1="18.806" x2="13.1943" y2="64.1363">
			<stop  offset="0" style="stop-color:#B27F2A"/>
			<stop  offset="5.761914e-002" style="stop-color:#B7862E"/>
			<stop  offset="0.1404" style="stop-color:#C49939"/>
			<stop  offset="0.2379" style="stop-color:#DAB84C"/>
			<stop  offset="0.3333" style="stop-color:#F4DD62"/>
			<stop  offset="0.5161" style="stop-color:#F4E38B"/>
			<stop  offset="0.6613" style="stop-color:#F4DD62"/>
			<stop  offset="1" style="stop-color:#B27F2A"/>
		</linearGradient>
		<polygon id="XMLID_305_" class="st4" points="40.2,45.9 43,45.9 43,38.4 46.4,27.4 43.5,27.4 41.6,34.8 39.6,27.4 36.8,27.4 
			40.2,38.4 		"/>
		<linearGradient id="XMLID_327_" gradientUnits="userSpaceOnUse" x1="75.916" y1="36.9793" x2="31.9185" y2="82.3099">
			<stop  offset="0" style="stop-color:#B27F2A"/>
			<stop  offset="5.761914e-002" style="stop-color:#B7862E"/>
			<stop  offset="0.1404" style="stop-color:#C49939"/>
			<stop  offset="0.2379" style="stop-color:#DAB84C"/>
			<stop  offset="0.3333" style="stop-color:#F4DD62"/>
			<stop  offset="0.5161" style="stop-color:#F4E38B"/>
			<stop  offset="0.6613" style="stop-color:#F4DD62"/>
			<stop  offset="1" style="stop-color:#B27F2A"/>
		</linearGradient>
		<path id="XMLID_276_" class="st5" d="M66.4,49H36.5c-3.2,0-5.8,2.6-5.8,5.8v14.7c0,3.2,2.6,5.8,5.8,5.8h29.9
			c3.2,0,5.8-2.6,5.8-5.8V54.8C72.3,51.6,69.6,49,66.4,49z M40.5,71h-2.7V55.9h-2.8v-2.6h8.4v2.6h-2.8V71z M50.2,71h-2.4v-1.4
			c-0.4,0.5-0.9,0.9-1.4,1.2c-1.3,0.7-3.1,0.7-3.1-1.9V58h2.4v10c0,0.5,0.1,0.9,0.6,0.9c0.5,0,1.1-0.6,1.4-1V58h2.4V71z M59.5,68.3
			c0,1.6-0.6,2.9-2.2,2.9c-0.9,0-1.6-0.3-2.3-1.2v1h-2.4V53.4H55V59c0.5-0.7,1.3-1.2,2.2-1.2c1.8,0,2.4,1.5,2.4,3.3V68.3z
			 M68.4,64.8h-4.6v2.5c0,1,0.1,1.8,1.1,1.8c1,0,1.1-0.7,1.1-1.8v-0.9h2.5v1c0,2.5-1.1,4-3.6,4c-2.3,0-3.5-1.7-3.5-4v-5.8
			c0-2.3,1.5-3.8,3.7-3.8c2.3,0,3.4,1.5,3.4,3.8V64.8z"/>
		<linearGradient id="XMLID_328_" gradientUnits="userSpaceOnUse" x1="82.5603" y1="43.4283" x2="38.5631" y2="88.7587">
			<stop  offset="0" style="stop-color:#B27F2A"/>
			<stop  offset="5.761914e-002" style="stop-color:#B7862E"/>
			<stop  offset="0.1404" style="stop-color:#C49939"/>
			<stop  offset="0.2379" style="stop-color:#DAB84C"/>
			<stop  offset="0.3333" style="stop-color:#F4DD62"/>
			<stop  offset="0.5161" style="stop-color:#F4E38B"/>
			<stop  offset="0.6613" style="stop-color:#F4DD62"/>
			<stop  offset="1" style="stop-color:#B27F2A"/>
		</linearGradient>
		<path id="XMLID_275_" class="st6" d="M64.9,59.9c-0.9,0-1.1,0.6-1.1,1.5v1.3h2.1v-1.3C65.9,60.6,65.7,59.9,64.9,59.9z"/>
		<linearGradient id="XMLID_329_" gradientUnits="userSpaceOnUse" x1="79.4174" y1="40.3781" x2="35.4204" y2="85.7083">
			<stop  offset="0" style="stop-color:#B27F2A"/>
			<stop  offset="5.761914e-002" style="stop-color:#B7862E"/>
			<stop  offset="0.1404" style="stop-color:#C49939"/>
			<stop  offset="0.2379" style="stop-color:#DAB84C"/>
			<stop  offset="0.3333" style="stop-color:#F4DD62"/>
			<stop  offset="0.5161" style="stop-color:#F4E38B"/>
			<stop  offset="0.6613" style="stop-color:#F4DD62"/>
			<stop  offset="1" style="stop-color:#B27F2A"/>
		</linearGradient>
		<path id="XMLID_274_" class="st7" d="M55.5,60c-0.2,0.1-0.3,0.2-0.5,0.4v8.1c0.2,0.2,0.4,0.4,0.6,0.5c0.4,0.2,1,0.2,1.2-0.1
			c0.1-0.2,0.2-0.5,0.2-0.9v-6.7c0-0.4-0.1-0.8-0.3-1C56.4,59.8,55.9,59.8,55.5,60z"/>
	</g>
</g>
</svg>
