<?xml version="1.0" encoding="utf-8"?>
<!-- Generator: Adobe Illustrator 19.0.0, SVG Export Plug-In . SVG Version: 6.00 Build 0)  -->
<svg version="1.1" id="Layer_1" xmlns="http://www.w3.org/2000/svg" xmlns:xlink="http://www.w3.org/1999/xlink" x="0px" y="0px"
	 viewBox="0 0 102 102" style="enable-background:new 0 0 102 102;" xml:space="preserve">
<style type="text/css">
	.st0{fill-rule:evenodd;clip-rule:evenodd;fill:url(#XMLID_297_);}
	.st1{fill-rule:evenodd;clip-rule:evenodd;fill:url(#XMLID_299_);}
	.st2{fill:url(#XMLID_300_);}
	.st3{fill:url(#XMLID_304_);}
</style>
<g id="XMLID_286_">
	<linearGradient id="XMLID_297_" gradientUnits="userSpaceOnUse" x1="-19.0032" y1="50.9973" x2="182.9687" y2="50.9973">
		<stop  offset="0" style="stop-color:#0D0E19"/>
		<stop  offset="0.6022" style="stop-color:#20222A"/>
		<stop  offset="0.8398" style="stop-color:#3E4151"/>
		<stop  offset="1" style="stop-color:#4E5266"/>
	</linearGradient>
	<path id="XMLID_293_" class="st0" d="M101,51c0,27.6-22.3,50-49.9,50C23.5,101,1.2,78.6,1.2,51c0-27.6,22.3-50,49.9-50
		C78.6,1,101,23.4,101,51z"/>
	<linearGradient id="XMLID_299_" gradientUnits="userSpaceOnUse" x1="37.254" y1="50.9973" x2="150.7106" y2="50.9973">
		<stop  offset="0" style="stop-color:#0D0E19"/>
		<stop  offset="0.6022" style="stop-color:#20222A"/>
		<stop  offset="0.8398" style="stop-color:#3E4151"/>
		<stop  offset="1" style="stop-color:#4E5266"/>
	</linearGradient>
	<path id="XMLID_290_" class="st1" d="M51.3,1v100c28,0,49.9-22.4,49.9-50C101.2,23.4,79.3,1,51.3,1z"/>
	<linearGradient id="XMLID_300_" gradientUnits="userSpaceOnUse" x1="25.1632" y1="51.3549" x2="95.6142" y2="51.3549">
		<stop  offset="0" style="stop-color:#B27F2A"/>
		<stop  offset="5.761914e-002" style="stop-color:#B7862E"/>
		<stop  offset="0.1404" style="stop-color:#C49939"/>
		<stop  offset="0.2379" style="stop-color:#DAB84C"/>
		<stop  offset="0.3333" style="stop-color:#F4DD62"/>
		<stop  offset="0.5161" style="stop-color:#F4E38B"/>
		<stop  offset="0.6613" style="stop-color:#F4DD62"/>
		<stop  offset="1" style="stop-color:#B27F2A"/>
	</linearGradient>
	<path id="XMLID_289_" class="st2" d="M44.5,47.6c0,0,0,0.4,0,0.4c0,2,0,6.6,0,6.6s8.4,0,8.9,0c0,1-0.8,3.3-3.3,5
		c-1.5,1-3.1,1.4-4.8,1.6c-1.2,0.1-2.4,0-3.6-0.4c-3.7-1.2-6.4-4.5-6.8-8.6c-0.1-1,0-2,0.2-3c1.1-4.8,5.7-8.4,10.9-7.6
		c2.3,0.3,3.6,1.3,4.9,2.3c1.6-1.6,3.2-3.2,4.8-4.8c-0.4-0.3-1.3-1.2-2.9-2.2c-2.4-1.4-5-2.1-7.9-2.1c-0.5,0-1.1,0-1.6,0
		c-0.9,0-1.8,0.2-2.7,0.4c-3.6,0.9-6.6,2.8-8.9,5.7c-2.2,2.8-3.4,5.9-3.7,9.5c-0.1,1.5,0,3,0.3,4.5c0.9,4.1,3.1,7.4,6.5,9.9
		c2.6,1.9,5.6,3,8.8,3.1c1.8,0.1,3.6-0.1,5.4-0.5c3.3-0.9,6.1-2.8,8.1-5.6c3-4,3.7-9.2,2.8-14.2C54.8,47.6,49.7,47.6,44.5,47.6z"/>
	<linearGradient id="XMLID_304_" gradientUnits="userSpaceOnUse" x1="25.4524" y1="50.6388" x2="95.6303" y2="50.6388">
		<stop  offset="0" style="stop-color:#B27F2A"/>
		<stop  offset="5.761914e-002" style="stop-color:#B7862E"/>
		<stop  offset="0.1404" style="stop-color:#C49939"/>
		<stop  offset="0.2379" style="stop-color:#DAB84C"/>
		<stop  offset="0.3333" style="stop-color:#F4DD62"/>
		<stop  offset="0.5161" style="stop-color:#F4E38B"/>
		<stop  offset="0.6613" style="stop-color:#F4DD62"/>
		<stop  offset="1" style="stop-color:#B27F2A"/>
	</linearGradient>
	<polygon id="XMLID_288_" class="st3" points="80,47.6 74.3,47.6 74.3,42.6 74.3,42.6 74.3,42.6 70.1,42.6 70.3,42.6 70.3,42.6 
		70.3,47.6 64.3,47.6 64.3,47.6 64.3,48.4 64.3,52.6 64.3,52.6 64.3,52.6 70.3,52.6 70.3,58.4 70.3,58.6 70.1,58.6 74.3,58.6 
		74.3,58.6 74.3,58.4 74.3,52.6 80,52.6 80.3,52.6 80.3,52.6 80.3,48.4 80.3,47.6 	"/>
</g>
</svg>
