<?xml version="1.0" encoding="utf-8"?>
<!-- Generator: Adobe Illustrator 19.0.0, SVG Export Plug-In . SVG Version: 6.00 Build 0)  -->
<svg version="1.1" id="Layer_1" xmlns="http://www.w3.org/2000/svg" xmlns:xlink="http://www.w3.org/1999/xlink" x="0px" y="0px"
	 viewBox="0 0 102 102" style="enable-background:new 0 0 102 102;" xml:space="preserve">
<style type="text/css">
	.st0{fill-rule:evenodd;clip-rule:evenodd;fill:url(#XMLID_294_);}
	.st1{fill-rule:evenodd;clip-rule:evenodd;fill:url(#XMLID_297_);}
	.st2{fill-rule:evenodd;clip-rule:evenodd;fill:url(#XMLID_299_);}
</style>
<g id="XMLID_272_">
	<linearGradient id="XMLID_294_" gradientUnits="userSpaceOnUse" x1="-19.1344" y1="51" x2="183.2426" y2="51">
		<stop  offset="0" style="stop-color:#0D0E19"/>
		<stop  offset="0.6022" style="stop-color:#20222A"/>
		<stop  offset="0.8398" style="stop-color:#3E4151"/>
		<stop  offset="1" style="stop-color:#4E5266"/>
	</linearGradient>
	<path id="XMLID_275_" class="st0" d="M101.1,51c0,27.6-22.4,50-50,50c-27.6,0-50-22.4-50-50c0-27.6,22.4-50,50-50
		C78.7,1,101.1,23.4,101.1,51z"/>
	<linearGradient id="XMLID_297_" gradientUnits="userSpaceOnUse" x1="37.0242" y1="51" x2="150.7097" y2="51">
		<stop  offset="0" style="stop-color:#0D0E19"/>
		<stop  offset="0.6022" style="stop-color:#20222A"/>
		<stop  offset="0.8398" style="stop-color:#3E4151"/>
		<stop  offset="1" style="stop-color:#4E5266"/>
	</linearGradient>
	<path id="XMLID_274_" class="st1" d="M51.1,1v100c27.6,0,50-22.4,50-50C101.1,23.4,78.7,1,51.1,1z"/>
	<linearGradient id="XMLID_299_" gradientUnits="userSpaceOnUse" x1="37.781" y1="32.2014" x2="63.8178" y2="60.7184">
		<stop  offset="0" style="stop-color:#B27F2A"/>
		<stop  offset="5.761914e-002" style="stop-color:#B7862E"/>
		<stop  offset="0.1404" style="stop-color:#C49939"/>
		<stop  offset="0.2379" style="stop-color:#DAB84C"/>
		<stop  offset="0.3333" style="stop-color:#F4DD62"/>
		<stop  offset="0.5161" style="stop-color:#F4E38B"/>
		<stop  offset="0.6613" style="stop-color:#F4DD62"/>
		<stop  offset="1" style="stop-color:#B27F2A"/>
	</linearGradient>
	<path id="XMLID_273_" class="st2" d="M57.7,36.3c1.3,0,2.6,0,3.9,0c0.2,0,0.3,0,0.5,0v-6.8c-0.7-0.1-1.4-0.2-2.2-0.2
		c-1.3-0.1-2.7-0.1-4-0.1c-2.1,0-4,0.5-5.7,1.8c-1.9,1.4-3,3.4-3.4,5.7c-0.2,1-0.2,1.9-0.2,2.9c0,1.5,0,3.1,0,4.6v0.6h-6.5v7.6h6.5
		v19.1h7.9V52.3H61c0.3-2.5,0.7-5,1-7.6c-0.5,0-1,0-1.5,0c-1.8,0-6.1,0-6.1,0s0-3.8,0.1-5.4C54.6,37,55.9,36.3,57.7,36.3z"/>
</g>
</svg>
