<?xml version="1.0" encoding="utf-8"?>
<!-- Generator: Adobe Illustrator 19.0.0, SVG Export Plug-In . SVG Version: 6.00 Build 0)  -->
<svg version="1.1" id="Layer_1" xmlns="http://www.w3.org/2000/svg" xmlns:xlink="http://www.w3.org/1999/xlink" x="0px" y="0px"
	 viewBox="0 0 102 102" style="enable-background:new 0 0 102 102;" xml:space="preserve">
<style type="text/css">
	.st0{fill-rule:evenodd;clip-rule:evenodd;fill:url(#XMLID_277_);}
	.st1{fill-rule:evenodd;clip-rule:evenodd;fill:url(#XMLID_278_);}
	.st2{fill-rule:evenodd;clip-rule:evenodd;fill:url(#XMLID_279_);}
</style>
<g id="XMLID_272_">
	<linearGradient id="XMLID_277_" gradientUnits="userSpaceOnUse" x1="-19.0605" y1="51.1335" x2="183.3165" y2="51.1335">
		<stop  offset="0" style="stop-color:#0D0E19"/>
		<stop  offset="0.6022" style="stop-color:#20222A"/>
		<stop  offset="0.8398" style="stop-color:#3E4151"/>
		<stop  offset="1" style="stop-color:#4E5266"/>
	</linearGradient>
	<path id="XMLID_275_" class="st0" d="M101.2,51.1c0,27.6-22.4,50-50,50c-27.6,0-50-22.4-50-50c0-27.6,22.4-50,50-50
		C78.8,1.1,101.2,23.5,101.2,51.1z"/>
	<linearGradient id="XMLID_278_" gradientUnits="userSpaceOnUse" x1="37.0976" y1="51.1335" x2="150.7839" y2="51.1335">
		<stop  offset="0" style="stop-color:#0D0E19"/>
		<stop  offset="0.6022" style="stop-color:#20222A"/>
		<stop  offset="0.8398" style="stop-color:#3E4151"/>
		<stop  offset="1" style="stop-color:#4E5266"/>
	</linearGradient>
	<path id="XMLID_274_" class="st1" d="M51.2,1.1v100c27.6,0,50-22.4,50-50C101.2,23.5,78.8,1.1,51.2,1.1z"/>
	<linearGradient id="XMLID_279_" gradientUnits="userSpaceOnUse" x1="33.3084" y1="52.5587" x2="72.4468" y2="52.5587">
		<stop  offset="0" style="stop-color:#B27F2A"/>
		<stop  offset="5.761914e-002" style="stop-color:#B7862E"/>
		<stop  offset="0.1404" style="stop-color:#C49939"/>
		<stop  offset="0.2379" style="stop-color:#DAB84C"/>
		<stop  offset="0.3333" style="stop-color:#F4DD62"/>
		<stop  offset="0.5161" style="stop-color:#F4E38B"/>
		<stop  offset="0.6613" style="stop-color:#F4DD62"/>
		<stop  offset="1" style="stop-color:#B27F2A"/>
	</linearGradient>
	<path id="XMLID_273_" class="st2" d="M45.2,61.6c-4.2-0.1-6.8-3.1-7.5-5.6c1.2,0.2,2.3,0.2,3.4-0.1c0,0,0.1,0,0.1-0.1
		c-2.3-0.5-4-1.7-5.2-3.7c-0.8-1.3-1.2-2.7-1.2-4.3c1.1,0.6,2.3,0.9,3.6,1c-1.7-1.2-2.8-2.8-3.3-4.9c-0.5-2-0.2-4,0.9-5.8
		c4.4,5.1,9.9,7.9,16.6,8.4c0-0.3-0.1-0.6-0.1-0.9c-0.2-1.9,0.2-3.7,1.2-5.3c1.3-2,3.1-3.3,5.5-3.6c2.7-0.4,5.1,0.3,7,2.2
		c0.1,0.1,0.2,0.2,0.4,0.1c1.7-0.4,3.2-1,4.7-1.8c0,0,0.1,0,0.1-0.1c0,0,0,0,0.1,0c-0.6,1.9-1.8,3.3-3.4,4.4c1.6-0.2,3-0.6,4.5-1.2
		c0,0,0,0,0,0c-0.3,0.4-0.6,0.8-0.9,1.2c-0.9,1.1-1.8,2-2.9,2.8c-0.1,0.1-0.1,0.1-0.1,0.3c0,1.2,0,2.4-0.1,3.6
		c-0.3,2.5-1,4.9-2.1,7.2c-1.1,2.4-2.5,4.5-4.3,6.3c-3.1,3.2-6.8,5.2-11.1,6.2c-1.5,0.3-3,0.5-4.5,0.5c-4.6,0.1-8.9-1-12.9-3.5
		c-0.1,0-0.1-0.1-0.2-0.1c2.8,0.3,5.5-0.1,8-1.1C42.7,63.2,44,62.5,45.2,61.6z"/>
</g>
</svg>
