<?xml version="1.0" encoding="utf-8"?>
<!-- Generator: Adobe Illustrator 19.0.0, SVG Export Plug-In . SVG Version: 6.00 Build 0)  -->
<svg version="1.1" id="Layer_1" xmlns="http://www.w3.org/2000/svg" xmlns:xlink="http://www.w3.org/1999/xlink" x="0px" y="0px"
	 viewBox="-164 60.3 630.1 439.3" style="enable-background:new -164 60.3 630.1 439.3;" xml:space="preserve">
<style type="text/css">
	.st0{fill:#F50000;}
	.st1{fill:#0505D6;}
	.st2{fill:#FFFFFF;}
	.st3{fill:#F94710;}
	.st4{fill:#4D4D4D;}
	.st5{stroke:#000000;stroke-width:0.5;stroke-linecap:round;stroke-linejoin:round;stroke-miterlimit:10;}
	.st6{fill:#333333;}
	.st7{fill:none;}
</style>
<g id="XMLID_171_">
	<g id="XMLID_206_">
		<path id="XMLID_80_" class="st0" d="M198.7,83.8c47.1,29,50.1,56.1,50.3,57.2l1.1,10.5c-1.5-2.4-3-4.3-4.5-6.2
			c-3.2-4.1-6.5-7.7-10.3-9.7c-8.2-4.3-17.4-0.6-30.8,10.3c-2.2,1.7-3.4,3-4.1,3.7l-0.4,0.6c-5.8,9.7-9.9,19.8-13.6,29
			c-1.9,4.5-3.7,9-5.4,13.1s-3.7,7.7-6,11.2c-8.2,12.7-20.4,20.2-49,14.6c-29-5.8-75.7-34.8-74-77.2c0.9-21.5,7.3-37.6,17.6-49.3
			c-5.4,11-10.8,27.3-11.6,49.5c-1.5,37.6,41.1,65.6,69.3,71c27.5,5.4,39.4,0.6,47.5-21.9c8.2-23,19.4-41.5,20.6-43.9
			c0.6-0.6,2.4-2.6,5.4-4.9c11-9,21.5-14.8,30.8-13.6l6.9,0.9l-4.1-5.6c-10.1-14.4-26.5-26.5-38.7-34
			c-21.9-13.6-42.8-19.8-58.9-22.6C158.2,66.4,180.2,72.2,198.7,83.8L198.7,83.8z"/>
		<path id="XMLID_79_" class="st0" d="M206,140.2c0,0-1.5-2.2-4.5-5.6c-22.6-24.9-67.1-50.5-98.7-59.1c0,0,56.1,8.2,105.8,61.3
			L206,140.2L206,140.2z"/>
	</g>
	<g id="XMLID_184_">
		<g id="XMLID_197_">
			<path id="XMLID_78_" class="st1" d="M155.7,127.2c0.9-2.2-2.2-3.4-3.4-3.9c-1.1-0.4-3.9-1.1-4.5-0.6c-0.6,0.4,1.3,3,3.4,4.3
				C155.4,129,155.7,127.2,155.7,127.2L155.7,127.2z"/>
			<path id="XMLID_77_" class="st1" d="M124.7,132.8c0.4-0.9,0.6-2.2,0.6-2.6c-0.2-0.2-0.6-0.6-2.2,0.6c-0.6,0.6-2.6,2.8-2.8,3.2
				c-0.4,0.6-0.6,1.7,0.6,1.7C122.7,135.6,124.3,133.7,124.7,132.8L124.7,132.8z"/>
			<path id="XMLID_76_" class="st1" d="M134.6,99.3c-0.6,0.2-0.9,0.9-0.9,1.5s0.6,4.1,1.1,4.3s2.2-3.4,2.4-4.1
				c0.2-0.6,0.2-1.3-0.2-1.7C136.7,98.9,136.3,98.6,134.6,99.3L134.6,99.3z"/>
			<path id="XMLID_75_" class="st1" d="M144.3,108.7c0-0.4,0-2.2-0.6-2.6c-0.4-0.4-0.9-0.9-1.7-0.6c-0.9,0.2-0.9,0.9-0.9,1.3
				c0.2,0.6,0.4,2.2,1.1,2.6C144,109.8,144.3,108.7,144.3,108.7L144.3,108.7z"/>
			<path id="XMLID_74_" class="st1" d="M146.4,103.8c0-0.4-0.9-0.6-1.1-0.9c-0.2,0-1.1-0.2-1.5,0c-0.6,0.2-0.6,0.6-0.4,1.3
				c0.2,0.9,0.2,1.3,1.1,1.9c0.9,0.6,1.3,0.6,1.7,0.2C146.6,106,146.6,104.4,146.4,103.8L146.4,103.8z"/>
			<path id="XMLID_73_" class="st1" d="M148.6,101.9c0-0.4,0-0.6-0.6-0.9c-0.4-0.2-2.2-0.2-1.9,0.4c0,0.6,0,1.1,0.6,1.3
				c0.6,0.4,1.1,0.2,1.5,0C148.6,102.7,148.6,101.9,148.6,101.9L148.6,101.9z"/>
			<path id="XMLID_72_" class="st1" d="M120.4,113.9c-0.6,0.2-1.3,0.4-1.7-0.2s-0.6-1.5-0.6-2.4c0.2-0.9,0.6-1.3,1.3-1.3
				c0.9,0,1.3,0.6,1.5,1.1c0.4,0.6,0.6,1.5,0.2,1.9C121,113.7,120.4,113.9,120.4,113.9L120.4,113.9z"/>
			<path id="XMLID_71_" class="st1" d="M117.8,110.7c0-0.6-0.4-1.7-1.1-1.9s-1.5-0.2-1.9,0.2c-0.2,0.2-0.4,0.9-0.2,1.5
				s0.2,0.9,0.9,1.3c0.6,0.4,0.9,0.4,1.3,0.2C117.8,111.1,117.8,110.7,117.8,110.7L117.8,110.7z"/>
		</g>
		<path id="XMLID_70_" class="st1" d="M144.7,127.2c0-0.9-0.6-2.8-2.4-3.7c-1.1-0.6-3-3-3.2-3.7c0-0.9,0.6-1.3,1.5-1.1
			c0.9,0.2,3.4,1.7,3.9,1.7c0.6-0.2,0.6-0.6,0.4-0.9c-0.2-0.2-2.2-0.9-2.4-1.1c0-0.4-0.2-1.7,1.5-2.2c1.9-0.4,4.3,0.2,5.4,0.6
			c1.5,0.4,3.2,0.9,4.5,0.4c0.9-0.2,0.6-2.6,0-3.2c-1.5-1.5-3.4-0.6-4.7-0.4s-4.7,1.5-6.2,1.5c-1.3,0-2.6-0.2-3-1.5
			c-0.2-1.1-0.4-1.5,1.1-2.6c0.6-0.6,0.4-2.4,0-2.8c-0.6-0.6-2.2,0.9-2.6,1.7c-0.2,0.4-0.9,0.9-1.7,0.6c-0.6,0-0.9-0.6-1.3-1.7
			c-0.4-1.1-0.9-1.1-1.3-0.6c-0.2,0.4-0.6,1.9-0.9,2.4c-0.2,0.4-1.1,0.6-1.7,0c-0.6-0.6-1.1-1.7-1.3-3s-0.2-4.5-0.9-5.8
			c-0.6-1.3-2.2-3-3-3.2c-0.4-0.2-1.7-0.4-3,1.1c-0.6,0.9-0.6,2.6,0,3.9c0.6,1.1,1.9,2.8,2.8,3.4c0.6,0.9,1.9,2.4,2.2,3.2
			c0.6,2.4-0.2,3-2.6,2.4c-0.9-0.2-2.8-1.5-3.4-1.7c-0.9-0.2-1.5,0.4-1.1,1.3c0.4,1.3,1.3,2.8,1.9,3.2c1.1,1.1,2.4,0.9,2.6,1.5
			c0.2,0.9,0.2,1.5-0.6,2.4c-0.9,0.6-2.8,1.9-3.9,2.6c-1.1,0.6-1.9,1.1-1.5,1.5c0.2,0.4,0.6,0.4,1.3,0.2c0.9-0.2,3.4-2.2,4.5-2.4
			c0.6-0.2,1.9-0.9,2.8-0.2c0.9,0.6,0.2,1.7,0,2.4c-0.4,0.6-1.3,2.2-1.7,3c-0.4,0.4-0.4,1.1,0.2,0.9c0.9-0.4,2.4-2.6,2.8-3
			c0.6-0.6,1.7-1.3,2.4-0.4c0.9,1.3,0.6,2.6,0.4,3.9c-0.2,1.5-1.1,4.9-1.1,6c0,0.9,0,2.6,0.9,2.6c1.9,0.2,2.2-0.2,2.6-1.1
			c0.6-1.5,0.6-4.1,0.2-5.6c-0.4-1.5-0.9-4.1-0.6-4.9c0.2-0.9,1.1-2.6,2.4-2.8c1.5-0.2,1.9,1.5,2.4,2.4c0.4,1.1,1.3,6.5,3.9,6
			C144.7,129.6,144.7,127.2,144.7,127.2L144.7,127.2z"/>
		<path id="XMLID_69_" class="st2" d="M142.7,129.6c0,0-0.9-0.2-1.7-1.5c-0.6-1.1-1.3-4.1-1.1-4.3c0.4-0.2,0.9,2.2,1.3,3
			C142.1,128.5,142.7,129.6,142.7,129.6L142.7,129.6z"/>
		<path id="XMLID_68_" class="st2" d="M133.7,135.6c-0.6,0-1.7,0.2-1.9-1.1c-0.2-0.9,0.2-2.2,0.6-3.4c0.4-1.3,0.4-1.9,0.4-1.9
			s0.2,0.9,0.2,2.8c0,1.9,0,3.2,0.4,3.4C134.4,135.6,133.7,135.6,133.7,135.6L133.7,135.6z"/>
		<path id="XMLID_67_" class="st2" d="M123.8,115.2c-0.4,0-0.9-0.2-1.7-1.9c-0.4-0.6-0.4-1.9,0.4-1.7c0.6,0.2,1.9,0.9,2.2,1.1
			c0.2,0.2-1.1-0.4-1.5,0C122.5,112.8,123.8,115.2,123.8,115.2L123.8,115.2z"/>
		<path id="XMLID_66_" class="st2" d="M128.1,107.7c0,0-3-3.4-3.7-4.3c-0.4-0.6-0.9-1.7-0.6-2.6c0.2-1.1,2.2-2.2,2.4-1.9
			c0.2,0.2-1.1,0.9-0.9,2.6C126,105.1,128.1,107.7,128.1,107.7L128.1,107.7z"/>
		<path id="XMLID_65_" class="st2" d="M121.7,135.2c0,0-1.3,0.4-1.3,0c0-0.4,0.2-1.3,0.9-1.9c0.4-0.4,0.6-1.1,1.1-1.3
			c0.4-0.2-0.9,1.9-1.1,2.8C121.5,135.2,121.7,135.2,121.7,135.2L121.7,135.2z"/>
		<path id="XMLID_64_" class="st2" d="M135,104.4c-0.4,0-0.9-1.9-0.9-2.8s0-1.5,0.6-1.9c0.9-0.4,0.9-0.4,1.1-0.4s-0.6,1.7-0.9,2.8
			C134.8,102.9,135,104.4,135,104.4L135,104.4z"/>
		<path id="XMLID_63_" class="st2" d="M142.3,109c0,0-0.6-0.4-0.6-1.7c0-0.6-0.2-1.1,0.2-1.3c0.4-0.2,1.1-0.2,1.3,0.2
			c0.2,0.4-0.6,0.2-0.9,0.6c-0.4,0.6-0.2,1.3,0,1.5C142.7,109,142.3,109,142.3,109L142.3,109z"/>
		<path id="XMLID_62_" class="st2" d="M144.5,105.5c-0.2,0.2-1.3-1.5-1.1-1.9s0.6-0.4,1.1-0.4c0.4,0,0.6,0.2,0.9,0.2
			c0.2,0.2-0.9,0-1.1,0.4c-0.2,0.2-0.2,0.9,0,1.1C144.3,105.1,144.5,105.5,144.5,105.5L144.5,105.5z"/>
		<path id="XMLID_61_" class="st2" d="M119.5,113.7c0,0.2-0.6-0.4-0.9-1.3c-0.2-1.1-0.2-1.5,0.4-1.7c0.6-0.2,0.9-0.2,0.9-0.2
			s-0.4,0.4-0.4,1.1c0,0.6-0.2,0.9,0,1.3C119.3,113.1,119.5,113.7,119.5,113.7L119.5,113.7z"/>
		<path id="XMLID_60_" class="st2" d="M115.6,110.9c-0.2-0.4-0.9-0.6-0.6-1.3c0-0.4,0.2-0.6,0.6-0.6c0.4,0,0.6,0.2,0.6,0.2
			s-0.6,0.2-0.6,0.4c0,0.6,0.2,0.9,0.2,1.3H115.6L115.6,110.9z"/>
		<path id="XMLID_59_" class="st2" d="M151.1,126.2c0,0-1.1-0.6-1.9-1.7c-0.2-0.2-1.5-1.5-1.1-1.7c0.2-0.2,3,0.4,3.2,0.6
			s-0.4,0-0.6,0.2c-0.2,0.2-0.6,0.2-0.6,0.4c0,0.2,0,0.9,0.4,1.3C150.7,125.7,151.1,126.2,151.1,126.2L151.1,126.2z"/>
	</g>
	<path id="XMLID_58_" class="st3" d="M87.7,88.7c-2.6-1.5,0.2,10.5-2.2,9.9C80.8,97.3,72.8,90,72.6,93c-0.2,1.5,8.8,7.7,7.7,10.3
		c-1.5,2.6-4.9,4.5-4.3,8c0.6,1.5,4.7-4.5,7.1-1.9c0.6,1.5-0.2,5.8,1.5,8.4c2.2,1.9,3.2-3.4,8-6.9c0.9-0.6,2.8-0.9,8.4,3
		c1.9-1.1-1.9-3.4-1.7-5.4c2.2-2.4,7.3,0.9,7.1-1.1c-2.4-2.4-5.8-2.6-7.7-3.4c-1.7-0.9,1.1-4.5-0.4-5.2c-1.1-0.2-2.8,0.6-3.9,0.6
		c-1.1,0-1.9-0.2-2.8-1.7C90.7,96.9,92,93.9,87.7,88.7L87.7,88.7z"/>
	<path id="XMLID_57_" class="st4" d="M110.3,139.5c-0.9,1.5-3.9,1.1-5.6,1.1c-0.2,1.3,1.1,1.5,1.5,3c1.1,2.4-7.5,9.2-4.7,16.3
		c1.9,3.9,2.6,6.5,0.4,9.9c0,1.3-0.6,2.2-0.4,3.7c-5.8,11.2-31.6,4.1-21.3-16.6l3.9-2.4c0-2.4,0-2.2,1.7-2.4c0.9,0.2,2.6,1.1,3,2.2
		c5.2,4.3,12.5-6,12.7-11.2c-0.2-1.9,0.6-1.9,1.7-2.4c0.4,0.2,0.9-0.4,1.5-1.1c-1.9-3.9,0.2-6.7,2.4-6.2
		C110.5,133.3,111.6,138,110.3,139.5L110.3,139.5z"/>
	<g id="XMLID_177_">
		<polygon id="XMLID_56_" class="st5" points="133.9,165.5 133.9,180.6 132.4,180.6 132.4,165.5 		"/>
		<polygon id="XMLID_55_" class="st5" points="114.6,183.2 129.6,183.2 129.6,184.7 114.6,184.7 		"/>
		<polygon id="XMLID_54_" class="st5" points="133.9,187.5 133.9,202.3 132.4,202.3 132.4,187.5 		"/>
		<polygon id="XMLID_53_" class="st5" points="136.5,183.2 151.6,183.2 151.6,184.7 136.5,184.7 		"/>
	</g>
	<g id="XMLID_172_">
		<path id="XMLID_174_" class="st2" d="M162.7,164.2v2.4h-8v-29h8v2.6h2.4v1.9h2.4v2.4h2.4v2.2h2.4v1.9h2.4v2.2h2.6v2.2h2.2v7.1
			h-5.4h-1.7v1.9c-0.9-0.9-1.9-1.5-2.8-2.4h2.8h2.4v4.1h2.2v4.5h2.6v9.2h-5.8h-4.3v-4.5h-2.4v-4.3h-2.6v-4.1h-2.4v-4.7l1.5,1.3
			l1.7-1.3v4.5L162.7,164.2L162.7,164.2z M158.7,162.9l-1.3,1.1v-4.7h2.4v-2.2h7.5v2.4h2.4v4.1h2.6v4.3h2.4v7.1
			c-0.9-0.9-1.5-1.3-2.2-1.9h-1.1v-4.5h-2.2v-4.1h-2.4V155h4.9h2.2h2.6l-1.5,1.3l1.5,1.3h-4.9v-2.2h-2.4v-2.2h-2.4v-1.7h-2.4v-2.2
			H162v-2.4h-2.4V145h-2.4v-4.8l2.6,2.4h-2.6l2.8-2.4v24L158.7,162.9L158.7,162.9z"/>
		<polygon id="XMLID_50_" points="157.4,140.2 160,140.2 160,142.5 162.3,142.5 162.3,144.5 164.9,144.5 164.9,146.8 167.1,146.8 
			167.1,149 169.4,149 169.4,151.1 171.8,151.1 171.8,153.3 174.4,153.3 174.4,155.4 176.5,155.4 176.5,157.6 173.9,157.6 
			171.8,157.6 169.4,157.6 169.4,161.9 171.8,161.9 171.8,166.2 174.1,166.2 174.1,170.5 176.5,170.5 176.5,175 173.5,175 
			171.8,175 171.8,170.5 169.4,170.5 169.4,166.2 166.8,166.2 166.8,162.1 164.5,162.1 164.5,159.7 162.3,159.7 162.3,161.9 
			160,161.9 160,164 157.4,164 		"/>
	</g>
</g>
<g>
	<g id="XMLID_146_">
		<path id="XMLID_49_" class="st0" d="M-119.8,364.5c0,2.7,0,24.4,0,24.4l0.2,18.1l-2.9,0.5l-4.8-13.5c0,0-11.4-27.8-12.1-29.4
			c-1.7,0-13.6,0-15.7,0c0,2.9,0,79.2,0,81.8c2.2,0,10.6,0,13.1,0c0-2.7,0-25.1,0-25.1l-0.2-21.7l2.9-0.5l6,16.2
			c0,0,11.6,29.2,12.3,31.1c1.7,0,12.1,0,14.3,0c0-2.9,0-79.2,0-81.8C-107.7,364.5-117.6,364.5-119.8,364.5z"/>
		<path id="XMLID_167_" class="st0" d="M-84.9,364.5c-0.5,2.2-17.4,78.5-18.1,81.8c2.7,0,12.8,0,14.8,0c0.5-2.2,3.9-20.3,3.9-20.3
			h15.7c0,0,3.9,18.3,4.4,20.3c1.9,0,12.3,0,15.2,0c-0.7-3.4-17.9-79.7-18.4-81.8C-68.2,364.5-83,364.5-84.9,364.5z M-78.1,390.5
			h2.9l0.7,4.6l1.2,6l1.9,8.9h-10.9l3.1-15C-78.9,394.9-78.1,390.5-78.1,390.5z"/>
		<path id="XMLID_163_" class="st0" d="M-44,365.7c0,0-0.2,0-0.5,0.2c0,2.2,0,77.7,0,80.1c0.2,0,0.5,0,0.5,0c2.2,0.5,6.8,1.2,14,1.2
			c10.9,0,18.1-2.4,22.7-7.2c4.1-4.6,6.3-10.9,6.3-18.1c0-8-3.1-15-8.7-18.6l-1.7-1.2l1.5-1.2c4.4-3.9,6.8-9.2,6.8-15.4
			c0-7.5-2.7-13.5-7.3-16.9c-4.1-3.4-8.7-4.6-16.9-4.6C-33.4,364-40.1,364.7-44,365.7z M-30.7,394.4v-14.2l4.8-0.5
			c5.6,0,8.7,2.7,8.7,7.7c0,5.3-3.6,8.4-9.9,8.4h-3.6V394.4z M-29.3,431.1h-1.5v-19.6h3.9c7,0,11.1,3.6,11.1,9.9
			c0,6.5-3.9,10.1-10.4,10.1C-26.4,431.3-29.3,431.1-29.3,431.1z"/>
		<path id="XMLID_43_" class="st0" d="M5.1,364.5c0,2.9,0,79.2,0,81.8c2.2,0,11.9,0,14,0c0-2.9,0-79.2,0-81.8
			C18.2,364.5,7.5,364.5,5.1,364.5z"/>
		<path id="XMLID_42_" class="st0" d="M27.6,364.5c0,2.9,0,79.2,0,81.8c2.7,0,34.1,0,36.8,0c0-2.4,0-15.4,0-17.9
			c-2.7,0-22.7,0-22.7,0s0-61.3,0-64.2C40.7,364.5,30,364.5,27.6,364.5z"/>
		<path id="XMLID_41_" class="st0" d="M81.8,406.5c0,12.1,2.9,22.9,8.5,30.2c5.6,7.2,13.1,10.9,23.5,10.9c7,0,14.5-2.4,19.1-4.6
			c0,0,0.2-0.2,0.5-0.2c0-1.7,0-41.5,0-44.2c-2.4,0-19.8,0-22.5,0c0,2.4,0,14.2,0,16.7c2.2,0,8.7,0,8.7,0v14.2h-1.2l-4.6,0.5
			c-10.9,0-17.4-9.4-17.4-24.6s6.8-24.4,18.4-24.4c7,0,10.6,1.9,13.1,3.4l0.2,0.2c0.7-3.4,2.9-15.2,3.1-16.9
			c-0.2-0.2-0.7-0.5-0.7-0.5c-2.9-1.9-8.7-3.9-16-3.9C95.1,363.7,82,380.4,81.8,406.5z"/>
		<path id="XMLID_157_" class="st0" d="M141.1,365.7L141.1,365.7c0,0-0.2,0-0.5,0.2c0,2.2,0,77.7,0,80.6c2.2,0,11.6,0,13.8,0
			c0-2.7,0-31.1,0-31.1h3.4c5.6,0.2,7.5,2.7,9,11.8c1.5,9.2,2.9,16.2,4.1,18.8c0,0,0,0.2,0.2,0.5c1.7,0,11.6,0,14.5,0
			c-0.5-1-0.7-2.2-0.7-2.2c-0.7-1.9-1.7-7.7-2.9-13.8l-1.7-8.4c-1.2-6-3.1-10.4-5.6-13.3l-1-1.2l1.2-1c2.4-1.9,8-7.7,8-18.6
			c0-7.7-1.9-13.8-5.8-17.9c-3.9-4.6-9.7-6.5-18.6-6.5C152,364,145.7,364.5,141.1,365.7z M154.6,398v-17.6l5.1-0.2
			c5.8,0,9,3.4,9,9.7c0,6.3-3.6,10.1-9.7,10.1h-4.6v-1.9h0.2V398z"/>
		<path id="XMLID_154_" class="st0" d="M203.5,364.5c-0.5,2.2-17.4,78.5-18.1,81.8c2.7,0,12.8,0,14.8,0c0.5-2.2,3.9-20.3,3.9-20.3
			h15.7c0,0,3.9,18.3,4.4,20.3c1.9,0,12.3,0,15.2,0c-0.7-3.4-17.9-79.7-18.4-81.8C220.2,364.5,205.7,364.5,203.5,364.5z
			 M210.3,390.5h2.9l0.7,4.6c0-0.2,1.7,7.7,1.7,7.7l1.5,7.2h-10.9l3.1-15C209.6,394.9,210.3,390.5,210.3,390.5z"/>
		<path id="XMLID_151_" class="st0" d="M244.4,365.7c0,0-0.2,0-0.5,0.2c0,2.2,0,78,0,80.6c2.2,0,11.6,0,13.8,0c0-2.7,0-28.5,0-28.5
			l3.9,0.5c8,0,14.5-2.9,18.9-8.4c3.6-4.6,5.6-11.6,5.6-20c0-8-2.4-15.2-6.5-19.6c-3.9-4.3-9.7-6.5-17.7-6.5
			C255.1,364,249,364.5,244.4,365.7z M259.2,401.6l-1.5-0.2v-21l4.6-0.2c6.3,0,9.7,3.9,9.7,10.4c0,7.2-3.9,11.3-10.6,11.3
			L259.2,401.6z"/>
		<path id="XMLID_34_" class="st0" d="M325.7,364.5c0,2.7,0,30.7,0,30.7h-20.1c0,0,0-27.8,0-30.7c-2.2,0-11.9,0-14,0
			c0,2.9,0,79.2,0,81.8c2.2,0,11.9,0,14,0c0-2.7,0-33.1,0-33.1h20.1c0,0,0,30.2,0,33.1c2.2,0,11.9,0,14,0c0-2.9,0-79.2,0-81.8
			C339,364.5,328.1,364.5,325.7,364.5z"/>
		<path id="XMLID_33_" class="st0" d="M348.2,364.5c0,2.9,0,79.2,0,81.8c2.2,0,11.6,0,14,0c0-2.9,0-79.2,0-81.8
			C361.5,364.5,350.6,364.5,348.2,364.5z"/>
		<path id="XMLID_32_" class="st0" d="M368,406.5c0,25.3,11.6,41.3,30.5,41.3c6.5,0,12.1-1.7,14.8-3.4c0,0,0.2-0.2,0.7-0.5
			c-0.2-1.4-1.7-13.3-2.2-16.7c-0.2,0-0.5,0.2-0.5,0.2c-2.7,1.4-7,2.7-10.9,2.7c-11.1,0-17.7-9.2-17.7-24.4
			c0-15.7,6.5-24.9,17.7-24.9c4.8,0,8.7,1.7,10.9,2.9l0.2,0.2c0.7-3.1,2.9-15,3.1-16.4c-0.2-0.2-0.7-0.5-0.7-0.5
			c-2.2-1.7-7.3-3.6-14-3.6C380.9,363.3,368,380.6,368,406.5z"/>
		<path id="XMLID_31_" class="st0" d="M417.9,388.4c0,11.3,5.3,19.6,16.2,24.9c7.5,3.6,9,6.3,9,9.7c0,4.6-3.1,7.2-8.5,7.2
			c-5.6,0-10.9-2.4-14.3-4.8c0,0-0.2-0.2-0.5-0.2c-0.7,3.6-2.9,15.7-3.1,17.1c0.2,0.2,0.7,0.5,0.7,0.5c3.1,2.4,9.7,5.1,16.2,5.1
			c17.4,0,23.5-14,23.5-25.8s-4.6-19.6-15.2-25.1c-7.5-4.1-10.2-6-10.2-9.9c0-3.1,2.4-6.3,7.7-6.3c5.6,0,9.9,2.4,11.9,3.6l0.2,0.2
			c0.7-3.4,3.1-15.2,3.4-16.7c-0.2-0.2-0.7-0.5-0.7-0.5c-4.1-2.7-9-4.1-14.5-4.1C427.1,363.3,417.9,373.6,417.9,388.4z"/>
	</g>
	<g>
		<g>
			<path d="M-151.9,463.6h6.8c1.8,0,3.3,0.2,4.5,0.6c1.3,0.4,2.4,1.1,3.4,2.1c2.7,2.6,4,6.5,4,11.8c0,1.7-0.1,3.3-0.4,4.8
				c-0.3,1.4-0.7,2.7-1.2,3.9c-0.6,1.2-1.3,2.2-2.2,3.1c-0.7,0.7-1.4,1.3-2.3,1.7c-0.8,0.4-1.7,0.7-2.6,0.9c-0.9,0.2-2,0.3-3.2,0.3
				h-6.8c-0.9,0-1.7-0.2-2.1-0.5s-0.8-0.8-0.9-1.4s-0.2-1.4-0.2-2.3v-21.4c0-1.3,0.3-2.2,0.8-2.8
				C-153.8,463.9-153,463.6-151.9,463.6z M-149.9,468.3v19.8h3.9c0.9,0,1.5,0,2-0.1s1-0.2,1.5-0.4c0.5-0.2,1-0.5,1.4-0.9
				c1.7-1.7,2.6-4.5,2.6-8.6c0-2.9-0.4-5-1.1-6.5c-0.8-1.4-1.7-2.3-2.8-2.7c-1.1-0.4-2.5-0.6-4.1-0.6L-149.9,468.3L-149.9,468.3z"/>
			<path d="M-111.8,468.2h-11.7v7.2h10.8c0.8,0,1.4,0.2,1.8,0.6s0.6,0.9,0.6,1.6s-0.2,1.2-0.6,1.6s-1,0.6-1.8,0.6h-10.8v8.3h12.1
				c0.8,0,1.4,0.2,1.8,0.6s0.6,1,0.6,1.7s-0.2,1.2-0.6,1.7s-1,0.6-1.8,0.6h-14.1c-1.1,0-1.9-0.3-2.4-0.9s-0.7-1.5-0.7-2.8v-21.8
				c0-0.8,0.1-1.5,0.3-2.1c0.2-0.5,0.6-0.9,1-1.2c0.5-0.2,1.1-0.4,1.8-0.4h13.7c0.8,0,1.4,0.2,1.8,0.6s0.6,1,0.6,1.6
				c0,0.7-0.2,1.2-0.6,1.7S-110.9,468.2-111.8,468.2z"/>
			<path d="M-85.2,484c0,1.8-0.4,3.3-1.2,4.7s-2,2.5-3.5,3.3s-3.4,1.2-5.5,1.2c-2.5,0-4.6-0.5-6.3-1.6c-1.2-0.8-2.1-1.8-2.8-3.1
				c-0.7-1.3-1.1-2.6-1.1-3.8c0-0.7,0.2-1.3,0.7-1.8s1-0.8,1.7-0.8c0.5,0,1,0.2,1.4,0.6s0.7,1,1,1.8c0.3,0.9,0.7,1.7,1.1,2.3
				c0.4,0.6,0.9,1.1,1.6,1.5s1.6,0.6,2.7,0.6c1.5,0,2.8-0.4,3.8-1.2c1-0.8,1.4-1.8,1.4-3c0-1-0.3-1.8-0.8-2.4s-1.2-1.1-2-1.4
				s-1.9-0.7-3.3-1c-1.8-0.5-3.4-1.1-4.6-1.7c-1.2-0.7-2.2-1.5-3-2.7c-0.7-1.1-1.1-2.5-1.1-4.2c0-1.6,0.4-3,1.2-4.3
				c0.8-1.2,1.9-2.2,3.3-2.9s3.2-1,5.1-1c1.6,0,2.9,0.2,4.1,0.7c1.1,0.4,2.1,1,2.9,1.8s1.3,1.5,1.7,2.3s0.5,1.6,0.5,2.4
				c0,0.7-0.2,1.3-0.7,1.9c-0.4,0.6-1,0.8-1.6,0.8s-1-0.2-1.4-0.5c-0.3-0.3-0.6-0.9-1-1.7c-0.5-1.1-1-2-1.7-2.6s-1.7-0.9-3.2-0.9
				c-1.3,0-2.4,0.3-3.2,1c-0.8,0.7-1.2,1.5-1.2,2.4c0,0.6,0.1,1.1,0.4,1.5s0.7,0.8,1.2,1.1c0.5,0.3,1,0.5,1.5,0.7s1.3,0.4,2.5,0.8
				c1.4,0.4,2.8,0.8,3.9,1.3c1.2,0.5,2.2,1,3,1.7s1.5,1.5,1.9,2.5C-85.5,481.3-85.2,482.5-85.2,484z"/>
			<path d="M-80.6,489.6v-22.9c0-1.2,0.2-2.1,0.7-2.7s1.1-0.9,1.9-0.9s1.4,0.3,1.9,0.9s0.7,1.5,0.7,2.7v22.9c0,1.2-0.2,2.1-0.7,2.7
				s-1.1,0.9-1.9,0.9c-0.7,0-1.4-0.3-1.8-0.9S-80.6,490.8-80.6,489.6z"/>
			<path d="M-46.2,480.9v5.6c0,0.7-0.1,1.3-0.2,1.8c-0.1,0.4-0.4,0.8-0.7,1.2s-0.8,0.7-1.3,1c-1.6,1-3,1.6-4.5,2.1
				c-1.4,0.4-3,0.7-4.7,0.7c-2,0-3.8-0.3-5.4-1s-3-1.7-4.1-3s-2-2.9-2.6-4.8s-0.9-4-0.9-6.3s0.3-4.3,0.9-6.2
				c0.6-1.9,1.5-3.5,2.6-4.8c1.2-1.3,2.6-2.3,4.2-3c1.7-0.7,3.5-1,5.6-1c1.7,0,3.3,0.3,4.6,0.8c1.3,0.5,2.4,1.2,3.2,2
				s1.5,1.6,1.9,2.5s0.6,1.7,0.6,2.4c0,0.7-0.2,1.4-0.7,1.9s-1.1,0.8-1.7,0.8c-0.4,0-0.7-0.1-1.1-0.3c-0.3-0.2-0.6-0.5-0.9-0.8
				c-0.6-1.1-1.2-2-1.6-2.6s-1-1.1-1.8-1.5s-1.7-0.6-2.9-0.6c-1.2,0-2.3,0.2-3.2,0.7c-0.9,0.5-1.8,1.2-2.4,2c-0.7,0.9-1.2,2-1.5,3.3
				c-0.4,1.3-0.5,2.7-0.5,4.3c0,3.4,0.7,6,2.1,7.9c1.4,1.8,3.3,2.8,5.8,2.8c1.2,0,2.3-0.2,3.4-0.5s2.1-0.9,3.2-1.5v-4.7h-4
				c-1,0-1.7-0.2-2.2-0.5s-0.7-0.9-0.7-1.7c0-0.6,0.2-1.2,0.6-1.6s1-0.6,1.7-0.6h5.9c0.7,0,1.3,0.1,1.8,0.2s0.9,0.5,1.2,1
				C-46.3,479.1-46.2,479.9-46.2,480.9z"/>
			<path d="M-34.4,466.6l10,17.2v-17.3c0-1.1,0.2-2,0.6-2.5c0.4-0.6,1-0.8,1.7-0.8s1.3,0.3,1.8,0.8s0.6,1.4,0.6,2.5v22.9
				c0,2.6-0.9,3.8-2.8,3.8c-0.5,0-0.9-0.1-1.3-0.2c-0.4-0.2-0.7-0.4-1.1-0.7s-0.6-0.7-0.9-1.2c-0.3-0.4-0.6-0.9-0.8-1.4l-9.8-17
				v17.1c0,1.1-0.2,2-0.7,2.5s-1,0.9-1.8,0.9c-0.7,0-1.3-0.3-1.8-0.9c-0.4-0.6-0.7-1.4-0.7-2.5v-22.5c0-1,0.1-1.7,0.3-2.2
				c0.2-0.6,0.6-1.1,1.1-1.5s1.1-0.6,1.7-0.6c0.5,0,0.9,0.1,1.2,0.3c0.3,0.2,0.6,0.4,0.9,0.7c0.3,0.3,0.5,0.7,0.8,1.1
				C-35,465.7-34.7,466.1-34.4,466.6z"/>
		</g>
		<g>
			<path d="M24.9,481.4h-4.8v8.2c0,1.2-0.2,2.1-0.7,2.7s-1.1,0.9-1.9,0.9s-1.4-0.3-1.9-0.9s-0.7-1.5-0.7-2.7v-22.4
				c0-1.3,0.3-2.2,0.8-2.8c0.5-0.6,1.4-0.8,2.5-0.8h6.7c2,0,3.5,0.2,4.6,0.5s2,0.9,2.7,1.6s1.3,1.7,1.7,2.8s0.6,2.4,0.6,3.8
				c0,3-0.8,5.2-2.4,6.7C30.5,480.6,28.1,481.4,24.9,481.4z M23.6,468h-3.5v8.9h3.5c1.2,0,2.3-0.1,3.1-0.4c0.8-0.3,1.5-0.8,1.9-1.4
				c0.4-0.7,0.6-1.5,0.6-2.6c0-1.3-0.3-2.3-1-3.1C27.5,468.5,25.9,468,23.6,468z"/>
			<path d="M45.8,480.3H44v9.4c0,1.2-0.2,2.1-0.7,2.7s-1.1,0.9-1.9,0.9s-1.5-0.3-1.9-0.9c-0.5-0.6-0.7-1.5-0.7-2.7v-22.5
				c0-1.3,0.3-2.2,0.8-2.8c0.5-0.6,1.3-0.9,2.4-0.9h8.5c1.2,0,2.2,0.1,3,0.2s1.6,0.3,2.2,0.7c0.8,0.4,1.5,0.9,2.1,1.6
				s1.1,1.5,1.4,2.5c0.3,0.9,0.5,2,0.5,3c0,2.2-0.5,3.9-1.6,5.2c-1.1,1.3-2.7,2.2-4.9,2.8c0.9,0.6,1.8,1.4,2.6,2.5
				c0.8,1.1,1.6,2.2,2.3,3.5c0.7,1.2,1.2,2.3,1.5,3.3c0.4,1,0.6,1.7,0.6,2c0,0.4-0.1,0.8-0.3,1.1c-0.2,0.4-0.5,0.7-0.9,0.9
				c-0.4,0.2-0.8,0.3-1.3,0.3c-0.6,0-1.1-0.2-1.5-0.5s-0.7-0.7-1-1.2s-0.7-1.2-1.2-2.1l-2.1-3.9c-0.7-1.4-1.4-2.5-2-3.3
				s-1.2-1.3-1.8-1.5C47.5,480.4,46.7,480.3,45.8,480.3z M48.8,468H44v8h4.7c1.2,0,2.3-0.1,3.2-0.4c0.9-0.2,1.5-0.7,2-1.3
				s0.7-1.4,0.7-2.4c0-0.8-0.2-1.5-0.5-2.1c-0.4-0.6-0.9-1.1-1.5-1.4C51.8,468.2,50.6,468,48.8,468z"/>
			<path d="M64.8,489.6v-22.9c0-1.2,0.2-2.1,0.7-2.7s1.1-0.9,1.9-0.9s1.4,0.3,1.9,0.9s0.7,1.5,0.7,2.7v22.9c0,1.2-0.2,2.1-0.7,2.7
				s-1.1,0.9-1.9,0.9c-0.7,0-1.4-0.3-1.8-0.9S64.8,490.8,64.8,489.6z"/>
			<path d="M82.6,466.6l10,17.2v-17.3c0-1.1,0.2-2,0.6-2.5c0.4-0.6,1-0.8,1.7-0.8s1.3,0.3,1.8,0.8s0.6,1.4,0.6,2.5v22.9
				c0,2.6-0.9,3.8-2.8,3.8c-0.5,0-0.9-0.1-1.3-0.2c-0.4-0.2-0.7-0.4-1.1-0.7s-0.6-0.7-0.9-1.2c-0.3-0.4-0.6-0.9-0.8-1.4l-9.8-17
				v17.1c0,1.1-0.2,2-0.7,2.5s-1,0.9-1.8,0.9c-0.7,0-1.3-0.3-1.8-0.9c-0.4-0.6-0.7-1.4-0.7-2.5v-22.5c0-1,0.1-1.7,0.3-2.2
				c0.2-0.6,0.6-1.1,1.1-1.5s1.1-0.6,1.7-0.6c0.5,0,0.9,0.1,1.2,0.3c0.3,0.2,0.6,0.4,0.9,0.7c0.3,0.3,0.5,0.7,0.8,1.1
				C82.1,465.7,82.3,466.1,82.6,466.6z"/>
			<path d="M119.8,468.5h-5.7v21.2c0,1.2-0.2,2.1-0.7,2.7s-1.1,0.9-1.9,0.9c-0.8,0-1.4-0.3-1.9-0.9s-0.7-1.5-0.7-2.7v-21.2h-5.7
				c-0.9,0-1.5-0.2-2-0.7c-0.4-0.4-0.6-1-0.6-1.8s0.2-1.4,0.7-1.8s1.1-0.7,2-0.7h16.5c0.9,0,1.6,0.2,2,0.7s0.7,1,0.7,1.8
				s-0.2,1.3-0.7,1.8S120.6,468.5,119.8,468.5z"/>
			<path d="M125.7,489.6v-22.9c0-1.2,0.2-2.1,0.7-2.7s1.1-0.9,1.9-0.9c0.8,0,1.4,0.3,1.9,0.9s0.7,1.5,0.7,2.7v22.9
				c0,1.2-0.2,2.1-0.7,2.7s-1.1,0.9-1.9,0.9c-0.7,0-1.4-0.3-1.8-0.9S125.7,490.8,125.7,489.6z"/>
			<path d="M143.5,466.6l10,17.2v-17.3c0-1.1,0.2-2,0.6-2.5s1-0.8,1.7-0.8s1.3,0.3,1.8,0.8c0.4,0.6,0.6,1.4,0.6,2.5v22.9
				c0,2.6-0.9,3.8-2.8,3.8c-0.5,0-0.9-0.1-1.3-0.2c-0.4-0.2-0.7-0.4-1.1-0.7s-0.6-0.7-0.9-1.2c-0.3-0.4-0.6-0.9-0.8-1.4l-9.8-17
				v17.1c0,1.1-0.2,2-0.7,2.5s-1,0.9-1.8,0.9c-0.7,0-1.3-0.3-1.8-0.9c-0.4-0.6-0.7-1.4-0.7-2.5v-22.5c0-1,0.1-1.7,0.3-2.2
				c0.2-0.6,0.6-1.1,1.1-1.5s1.1-0.6,1.7-0.6c0.5,0,0.9,0.1,1.2,0.3c0.3,0.2,0.6,0.4,0.9,0.7c0.3,0.3,0.5,0.7,0.8,1.1
				C143,465.7,143.2,466.1,143.5,466.6z"/>
			<path d="M187.4,480.9v5.6c0,0.7-0.1,1.3-0.2,1.8c-0.1,0.4-0.4,0.8-0.7,1.2c-0.3,0.4-0.8,0.7-1.3,1c-1.6,1-3,1.6-4.5,2.1
				s-3,0.7-4.7,0.7c-2,0-3.8-0.3-5.4-1c-1.6-0.7-3-1.7-4.2-3c-1.1-1.3-2-2.9-2.6-4.8s-0.9-4-0.9-6.3s0.3-4.3,0.9-6.2
				c0.6-1.9,1.5-3.5,2.6-4.8c1.2-1.3,2.6-2.3,4.2-3c1.7-0.7,3.5-1,5.6-1c1.7,0,3.3,0.3,4.6,0.8s2.4,1.2,3.2,2s1.5,1.6,1.9,2.5
				s0.6,1.7,0.6,2.4c0,0.7-0.2,1.4-0.7,1.9s-1.1,0.8-1.7,0.8c-0.4,0-0.7-0.1-1.1-0.3c-0.3-0.2-0.6-0.5-0.9-0.8
				c-0.6-1.1-1.2-2-1.6-2.6s-1-1.1-1.8-1.5s-1.7-0.6-2.9-0.6s-2.3,0.2-3.2,0.7s-1.8,1.2-2.4,2s-1.2,2-1.5,3.3s-0.5,2.7-0.5,4.3
				c0,3.4,0.7,6,2.1,7.9c1.4,1.8,3.3,2.8,5.8,2.8c1.2,0,2.3-0.2,3.4-0.5c1.1-0.4,2.1-0.9,3.2-1.5v-4.7h-4c-1,0-1.7-0.2-2.2-0.5
				s-0.7-0.9-0.7-1.7c0-0.6,0.2-1.2,0.6-1.6c0.4-0.4,1-0.6,1.7-0.6h5.9c0.7,0,1.3,0.1,1.8,0.2s0.9,0.5,1.2,1
				C187.3,479.1,187.4,479.9,187.4,480.9z"/>
		</g>
		<g>
			<path d="M243.8,483.5c0,0.9-0.2,1.9-0.6,3c-0.4,1.1-1,2.1-1.9,3.2s-2,1.9-3.3,2.5c-1.3,0.7-2.9,1-4.7,1c-1.4,0-2.6-0.1-3.7-0.4
				s-2.1-0.7-3-1.4s-1.7-1.4-2.5-2.4c-0.7-0.9-1.3-1.9-1.7-3.1c-0.5-1.1-0.8-2.3-1.1-3.6c-0.2-1.3-0.4-2.6-0.4-4.1
				c0-2.3,0.3-4.4,0.9-6.3s1.5-3.4,2.6-4.8c1.1-1.3,2.4-2.3,3.9-3s3.1-1,4.8-1c2.1,0,3.9,0.5,5.6,1.4c1.7,0.9,2.9,2.1,3.7,3.5
				c0.9,1.4,1.3,2.7,1.3,3.9c0,0.7-0.2,1.3-0.6,1.8s-0.9,0.8-1.5,0.8c-0.7,0-1.2-0.2-1.5-0.5c-0.3-0.4-0.7-1-1.1-1.8
				c-0.7-1.4-1.5-2.5-2.4-3.2s-2-1.1-3.4-1.1c-2.1,0-3.8,0.9-5.1,2.8s-1.9,4.5-1.9,7.8c0,2.3,0.3,4.1,0.8,5.7
				c0.6,1.5,1.4,2.6,2.4,3.4c1,0.7,2.2,1.1,3.6,1.1c1.5,0,2.8-0.4,3.8-1.3c1-0.8,1.8-2.1,2.3-3.7c0.2-0.8,0.5-1.4,0.8-1.9
				c0.3-0.5,0.9-0.7,1.6-0.7c0.6,0,1.1,0.2,1.6,0.7C243.6,482.2,243.8,482.8,243.8,483.5z"/>
			<path d="M259.8,463.1c2.7,0,4.9,0.6,6.9,1.8s3.4,3,4.3,5.2c1,2.3,1.5,4.9,1.5,8c0,2.3-0.3,4.3-0.8,6.1c-0.5,1.8-1.3,3.4-2.4,4.8
				c-1.1,1.4-2.4,2.4-4,3.1c-1.6,0.7-3.4,1.1-5.4,1.1s-3.8-0.4-5.4-1.1s-2.9-1.8-4-3.1c-1.1-1.3-1.9-2.9-2.4-4.8s-0.8-3.9-0.8-6.1
				s0.3-4.3,0.8-6.2s1.4-3.5,2.5-4.8c1.1-1.3,2.4-2.3,3.9-3C256.1,463.5,257.8,463.1,259.8,463.1z M267.2,478.1c0-2.1-0.3-4-0.9-5.5
				c-0.6-1.6-1.5-2.7-2.6-3.5c-1.1-0.8-2.4-1.2-3.9-1.2c-1,0-2,0.2-2.9,0.7c-0.9,0.4-1.6,1.1-2.3,1.9s-1.1,1.9-1.5,3.2
				c-0.4,1.3-0.6,2.8-0.6,4.4c0,1.7,0.2,3.2,0.6,4.5s0.9,2.4,1.6,3.3c0.7,0.9,1.4,1.5,2.3,2c0.9,0.4,1.8,0.7,2.9,0.7
				c1.3,0,2.6-0.4,3.7-1.1c1.1-0.8,2-1.9,2.7-3.5C266.9,482.3,267.2,480.4,267.2,478.1z"/>
			<path d="M283.7,466.6l10,17.2v-17.3c0-1.1,0.2-2,0.6-2.5s1-0.8,1.7-0.8s1.3,0.3,1.8,0.8c0.4,0.6,0.6,1.4,0.6,2.5v22.9
				c0,2.6-0.9,3.8-2.8,3.8c-0.5,0-0.9-0.1-1.3-0.2c-0.4-0.2-0.7-0.4-1.1-0.7c-0.3-0.3-0.6-0.7-0.9-1.2c-0.3-0.4-0.6-0.9-0.8-1.4
				l-9.8-17v17.1c0,1.1-0.2,2-0.7,2.5c-0.5,0.6-1,0.9-1.8,0.9c-0.7,0-1.3-0.3-1.8-0.9c-0.4-0.6-0.7-1.4-0.7-2.5v-22.5
				c0-1,0.1-1.7,0.3-2.2c0.2-0.6,0.6-1.1,1.1-1.5s1.1-0.6,1.7-0.6c0.5,0,0.9,0.1,1.2,0.3c0.3,0.2,0.6,0.4,0.9,0.7
				c0.3,0.3,0.5,0.7,0.8,1.1C283.1,465.7,283.4,466.1,283.7,466.6z"/>
			<path d="M323.7,484c0,1.8-0.4,3.3-1.2,4.7s-2,2.5-3.5,3.3s-3.4,1.2-5.5,1.2c-2.5,0-4.6-0.5-6.3-1.6c-1.2-0.8-2.1-1.8-2.8-3.1
				c-0.7-1.3-1.1-2.6-1.1-3.8c0-0.7,0.2-1.3,0.7-1.8c0.4-0.5,1-0.8,1.7-0.8c0.5,0,1,0.2,1.4,0.6s0.7,1,1,1.8
				c0.3,0.9,0.7,1.7,1.1,2.3c0.4,0.6,0.9,1.1,1.6,1.5c0.7,0.4,1.6,0.6,2.7,0.6c1.5,0,2.8-0.4,3.8-1.2c1-0.8,1.4-1.8,1.4-3
				c0-1-0.3-1.8-0.8-2.4s-1.2-1.1-2-1.4c-0.8-0.3-1.9-0.7-3.3-1c-1.8-0.5-3.4-1.1-4.6-1.7c-1.2-0.7-2.2-1.5-3-2.7
				c-0.7-1.1-1.1-2.5-1.1-4.2c0-1.6,0.4-3,1.2-4.3s1.9-2.2,3.3-2.9s3.2-1,5.2-1c1.6,0,2.9,0.2,4.1,0.7c1.1,0.4,2.1,1,2.9,1.8
				s1.3,1.5,1.7,2.3c0.3,0.8,0.5,1.6,0.5,2.4c0,0.7-0.2,1.3-0.7,1.9c-0.4,0.6-1,0.8-1.6,0.8s-1-0.2-1.4-0.5c-0.3-0.3-0.6-0.9-1-1.7
				c-0.5-1.1-1-2-1.7-2.6c-0.7-0.6-1.7-0.9-3.2-0.9c-1.3,0-2.4,0.3-3.2,1s-1.2,1.5-1.2,2.4c0,0.6,0.1,1.1,0.4,1.5
				c0.3,0.4,0.7,0.8,1.2,1.1s1,0.5,1.5,0.7s1.3,0.4,2.5,0.8c1.4,0.4,2.8,0.8,3.9,1.3c1.2,0.5,2.2,1,3,1.7c0.8,0.7,1.5,1.5,1.9,2.5
				C323.4,481.3,323.7,482.5,323.7,484z"/>
			<path d="M328.1,480.7v-14c0-1.2,0.2-2.1,0.7-2.7s1.1-0.9,1.9-0.9c0.8,0,1.4,0.3,1.9,0.9s0.7,1.5,0.7,2.7V481c0,1.6,0.2,3,0.5,4.1
				c0.3,1.1,0.9,1.9,1.7,2.5s2,0.9,3.4,0.9c2,0,3.5-0.6,4.3-1.8c0.8-1.2,1.3-3.1,1.3-5.6v-14.4c0-1.2,0.2-2.1,0.7-2.7
				s1.1-0.9,1.9-0.9c0.8,0,1.4,0.3,1.9,0.9s0.7,1.5,0.7,2.7v14c0,2.3-0.2,4.2-0.6,5.7s-1.1,2.9-2.2,4c-0.9,1-2,1.7-3.3,2.1
				c-1.2,0.5-2.7,0.7-4.3,0.7c-2,0-3.7-0.2-5.1-0.7c-1.4-0.5-2.6-1.2-3.5-2.2c-0.9-1-1.6-2.3-2-3.9
				C328.3,484.8,328.1,482.9,328.1,480.7z"/>
			<path d="M360.4,466.7v21.2H371c0.8,0,1.5,0.2,1.9,0.7c0.5,0.5,0.7,1,0.7,1.7s-0.2,1.3-0.7,1.7c-0.4,0.4-1.1,0.7-1.9,0.7h-12.6
				c-1.1,0-1.9-0.3-2.4-0.9s-0.7-1.5-0.7-2.8v-22.4c0-1.2,0.2-2.1,0.7-2.7s1.1-0.9,1.9-0.9c0.8,0,1.4,0.3,1.9,0.9
				S360.4,465.5,360.4,466.7z"/>
			<path d="M389.2,468.5h-5.7v21.2c0,1.2-0.2,2.1-0.7,2.7s-1.1,0.9-1.9,0.9c-0.8,0-1.4-0.3-1.9-0.9s-0.7-1.5-0.7-2.7v-21.2h-5.7
				c-0.9,0-1.5-0.2-2-0.7s-0.6-1-0.6-1.8s0.2-1.4,0.7-1.8c0.4-0.4,1.1-0.7,2-0.7h16.5c0.9,0,1.6,0.2,2,0.7c0.4,0.5,0.7,1,0.7,1.8
				s-0.2,1.3-0.7,1.8C390.7,468.3,390.1,468.5,389.2,468.5z"/>
			<path d="M395.1,489.6v-22.9c0-1.2,0.2-2.1,0.7-2.7s1.1-0.9,1.9-0.9c0.8,0,1.4,0.3,1.9,0.9s0.7,1.5,0.7,2.7v22.9
				c0,1.2-0.2,2.1-0.7,2.7s-1.1,0.9-1.9,0.9c-0.7,0-1.4-0.3-1.8-0.9C395.4,491.7,395.1,490.8,395.1,489.6z"/>
			<path d="M412.9,466.6l10,17.2v-17.3c0-1.1,0.2-2,0.6-2.5s1-0.8,1.7-0.8c0.7,0,1.3,0.3,1.8,0.8c0.4,0.6,0.6,1.4,0.6,2.5v22.9
				c0,2.6-0.9,3.8-2.8,3.8c-0.5,0-0.9-0.1-1.3-0.2c-0.4-0.2-0.7-0.4-1.1-0.7c-0.3-0.3-0.6-0.7-0.9-1.2c-0.3-0.4-0.6-0.9-0.8-1.4
				l-9.8-17v17.1c0,1.1-0.2,2-0.7,2.5c-0.5,0.6-1,0.9-1.8,0.9c-0.7,0-1.3-0.3-1.8-0.9c-0.4-0.6-0.7-1.4-0.7-2.5v-22.5
				c0-1,0.1-1.7,0.3-2.2c0.2-0.6,0.6-1.1,1.1-1.5s1.1-0.6,1.7-0.6c0.5,0,0.9,0.1,1.2,0.3c0.3,0.2,0.6,0.4,0.9,0.7
				c0.3,0.3,0.5,0.7,0.8,1.1C412.4,465.7,412.6,466.1,412.9,466.6z"/>
			<path d="M456.8,480.9v5.6c0,0.7-0.1,1.3-0.2,1.8c-0.1,0.4-0.4,0.8-0.7,1.2c-0.3,0.4-0.8,0.7-1.3,1c-1.6,1-3,1.6-4.5,2.1
				s-3,0.7-4.7,0.7c-2,0-3.8-0.3-5.4-1c-1.6-0.7-3-1.7-4.2-3c-1.1-1.3-2-2.9-2.6-4.8s-0.9-4-0.9-6.3s0.3-4.3,0.9-6.2
				c0.6-1.9,1.5-3.5,2.6-4.8c1.2-1.3,2.6-2.3,4.2-3c1.7-0.7,3.5-1,5.6-1c1.7,0,3.3,0.3,4.6,0.8s2.4,1.2,3.2,2
				c0.8,0.8,1.5,1.6,1.9,2.5c0.4,0.9,0.6,1.7,0.6,2.4c0,0.7-0.2,1.4-0.7,1.9s-1.1,0.8-1.7,0.8c-0.4,0-0.7-0.1-1.1-0.3
				c-0.3-0.2-0.6-0.5-0.9-0.8c-0.6-1.1-1.2-2-1.6-2.6c-0.4-0.6-1-1.1-1.8-1.5s-1.7-0.6-2.9-0.6s-2.3,0.2-3.2,0.7s-1.8,1.2-2.4,2
				s-1.2,2-1.5,3.3c-0.4,1.3-0.5,2.7-0.5,4.3c0,3.4,0.7,6,2.1,7.9c1.4,1.8,3.3,2.8,5.8,2.8c1.2,0,2.3-0.2,3.4-0.5
				c1.1-0.4,2.1-0.9,3.2-1.5v-4.7h-4c-1,0-1.7-0.2-2.2-0.5s-0.7-0.9-0.7-1.7c0-0.6,0.2-1.2,0.6-1.6s1-0.6,1.7-0.6h5.9
				c0.7,0,1.3,0.1,1.8,0.2s0.9,0.5,1.2,1C456.7,479.1,456.8,479.9,456.8,480.9z"/>
		</g>
		<g id="XMLID_88_">
			<path id="XMLID_89_" class="st6" d="M2.5,483.1h-2.7l-3.9-6.8l-1.9,6.8h-2.7l2.9-9.9h2.7l3.9,6.5l1.9-6.5h2.7L2.5,483.1z"/>
		</g>
		<g id="XMLID_4_">
			<path id="XMLID_86_" class="st6" d="M209.9,483.1h-2.7l-3.9-6.8l-1.9,6.8h-2.7l2.9-9.9h2.7l3.9,6.5l1.9-6.5h2.7L209.9,483.1z"/>
		</g>
	</g>
</g>
<rect x="-164" y="60.3" class="st7" width="630.1" height="439.3"/>
</svg>
