<?xml version="1.0" encoding="utf-8"?>
<!-- Generator: Adobe Illustrator 19.0.0, SVG Export Plug-In . SVG Version: 6.00 Build 0)  -->
<svg version="1.1" id="Layer_1" xmlns="http://www.w3.org/2000/svg" xmlns:xlink="http://www.w3.org/1999/xlink" x="0px" y="0px"
	 viewBox="-514 -41.2 630.1 599.8" style="enable-background:new -514 -41.2 630.1 599.8;" xml:space="preserve">
<style type="text/css">
	.st0{fill:#F50000;}
	.st1{fill:#0505D6;}
	.st2{fill:#FFFFFF;}
	.st3{fill:#F94710;}
	.st4{fill:#4D4D4D;}
	.st5{stroke:#000000;stroke-width:0.5;stroke-linecap:round;stroke-linejoin:round;stroke-miterlimit:10;}
	.st6{fill:#333333;}
	.st7{fill:none;}
</style>
<g id="XMLID_171_">
	<g id="XMLID_206_">
		<path id="XMLID_80_" class="st0" d="M-151.3,62.6c47.1,29,50.1,56.1,50.3,57.2l1.1,10.5c-1.5-2.4-3-4.3-4.5-6.2
			c-3.2-4.1-6.5-7.7-10.3-9.7c-8.2-4.3-17.4-0.6-30.8,10.3c-2.2,1.7-3.4,3-4.1,3.7l-0.4,0.6c-5.8,9.7-9.9,19.8-13.6,29
			c-1.9,4.5-3.7,9-5.4,13.1s-3.7,7.7-6,11.2c-8.2,12.7-20.4,20.2-49,14.6c-29-5.8-75.7-34.8-74-77.2c0.9-21.5,7.3-37.6,17.6-49.3
			c-5.4,11-10.8,27.3-11.6,49.5c-1.5,37.6,41.1,65.6,69.3,71c27.5,5.4,39.4,0.6,47.5-21.9c8.2-23,19.4-41.5,20.6-43.9
			c0.6-0.6,2.4-2.6,5.4-4.9c11-9,21.5-14.8,30.8-13.6l6.9,0.9l-4.1-5.6c-10.1-14.4-26.5-26.5-38.7-34
			c-21.9-13.6-42.8-19.8-58.9-22.6C-191.8,45.2-169.8,51-151.3,62.6L-151.3,62.6z"/>
		<path id="XMLID_79_" class="st0" d="M-144,119c0,0-1.5-2.2-4.5-5.6c-22.6-24.9-67.1-50.5-98.7-59.1c0,0,56.1,8.2,105.8,61.3
			L-144,119L-144,119z"/>
	</g>
	<g id="XMLID_184_">
		<g id="XMLID_197_">
			<path id="XMLID_78_" class="st1" d="M-194.3,106c0.9-2.2-2.2-3.4-3.4-3.9c-1.1-0.4-3.9-1.1-4.5-0.6c-0.6,0.4,1.3,3,3.4,4.3
				C-194.6,107.8-194.3,106-194.3,106L-194.3,106z"/>
			<path id="XMLID_77_" class="st1" d="M-225.3,111.6c0.4-0.9,0.6-2.2,0.6-2.6c-0.2-0.2-0.6-0.6-2.2,0.6c-0.6,0.6-2.6,2.8-2.8,3.2
				c-0.4,0.6-0.6,1.7,0.6,1.7C-227.3,114.4-225.7,112.5-225.3,111.6L-225.3,111.6z"/>
			<path id="XMLID_76_" class="st1" d="M-215.4,78.1c-0.6,0.2-0.9,0.9-0.9,1.5c0,0.6,0.6,4.1,1.1,4.3s2.2-3.4,2.4-4.1
				c0.2-0.6,0.2-1.3-0.2-1.7C-213.3,77.7-213.7,77.4-215.4,78.1L-215.4,78.1z"/>
			<path id="XMLID_75_" class="st1" d="M-205.7,87.5c0-0.4,0-2.2-0.6-2.6c-0.4-0.4-0.9-0.9-1.7-0.6c-0.9,0.2-0.9,0.9-0.9,1.3
				c0.2,0.6,0.4,2.2,1.1,2.6C-206,88.6-205.7,87.5-205.7,87.5L-205.7,87.5z"/>
			<path id="XMLID_74_" class="st1" d="M-203.6,82.6c0-0.4-0.9-0.6-1.1-0.9c-0.2,0-1.1-0.2-1.5,0c-0.6,0.2-0.6,0.6-0.4,1.3
				c0.2,0.9,0.2,1.3,1.1,1.9c0.9,0.6,1.3,0.6,1.7,0.2C-203.4,84.8-203.4,83.2-203.6,82.6L-203.6,82.6z"/>
			<path id="XMLID_73_" class="st1" d="M-201.4,80.7c0-0.4,0-0.6-0.6-0.9c-0.4-0.2-2.2-0.2-1.9,0.4c0,0.6,0,1.1,0.6,1.3
				c0.6,0.4,1.1,0.2,1.5,0C-201.4,81.5-201.4,80.7-201.4,80.7L-201.4,80.7z"/>
			<path id="XMLID_72_" class="st1" d="M-229.6,92.7c-0.6,0.2-1.3,0.4-1.7-0.2c-0.4-0.6-0.6-1.5-0.6-2.4c0.2-0.9,0.6-1.3,1.3-1.3
				c0.9,0,1.3,0.6,1.5,1.1c0.4,0.6,0.6,1.5,0.2,1.9C-229,92.5-229.6,92.7-229.6,92.7L-229.6,92.7z"/>
			<path id="XMLID_71_" class="st1" d="M-232.2,89.5c0-0.6-0.4-1.7-1.1-1.9s-1.5-0.2-1.9,0.2c-0.2,0.2-0.4,0.9-0.2,1.5
				c0.2,0.6,0.2,0.9,0.9,1.3c0.6,0.4,0.9,0.4,1.3,0.2C-232.2,89.9-232.2,89.5-232.2,89.5L-232.2,89.5z"/>
		</g>
		<path id="XMLID_70_" class="st1" d="M-205.3,106c0-0.9-0.6-2.8-2.4-3.7c-1.1-0.6-3-3-3.2-3.7c0-0.9,0.6-1.3,1.5-1.1
			c0.9,0.2,3.4,1.7,3.9,1.7c0.6-0.2,0.6-0.6,0.4-0.9c-0.2-0.2-2.2-0.9-2.4-1.1c0-0.4-0.2-1.7,1.5-2.2c1.9-0.4,4.3,0.2,5.4,0.6
			c1.5,0.4,3.2,0.9,4.5,0.4c0.9-0.2,0.6-2.6,0-3.2c-1.5-1.5-3.4-0.6-4.7-0.4c-1.3,0.2-4.7,1.5-6.2,1.5c-1.3,0-2.6-0.2-3-1.5
			c-0.2-1.1-0.4-1.5,1.1-2.6c0.6-0.6,0.4-2.4,0-2.8c-0.6-0.6-2.2,0.9-2.6,1.7c-0.2,0.4-0.9,0.9-1.7,0.6c-0.6,0-0.9-0.6-1.3-1.7
			c-0.4-1.1-0.9-1.1-1.3-0.6c-0.2,0.4-0.6,1.9-0.9,2.4c-0.2,0.4-1.1,0.6-1.7,0c-0.6-0.6-1.1-1.7-1.3-3c-0.2-1.3-0.2-4.5-0.9-5.8
			c-0.6-1.3-2.2-3-3-3.2c-0.4-0.2-1.7-0.4-3,1.1c-0.6,0.9-0.6,2.6,0,3.9c0.6,1.1,1.9,2.8,2.8,3.4c0.6,0.9,1.9,2.4,2.2,3.2
			c0.6,2.4-0.2,3-2.6,2.4c-0.9-0.2-2.8-1.5-3.4-1.7c-0.9-0.2-1.5,0.4-1.1,1.3c0.4,1.3,1.3,2.8,1.9,3.2c1.1,1.1,2.4,0.9,2.6,1.5
			c0.2,0.9,0.2,1.5-0.6,2.4c-0.9,0.6-2.8,1.9-3.9,2.6c-1.1,0.6-1.9,1.1-1.5,1.5c0.2,0.4,0.6,0.4,1.3,0.2c0.9-0.2,3.4-2.2,4.5-2.4
			c0.6-0.2,1.9-0.9,2.8-0.2c0.9,0.6,0.2,1.7,0,2.4c-0.4,0.6-1.3,2.2-1.7,3c-0.4,0.4-0.4,1.1,0.2,0.9c0.9-0.4,2.4-2.6,2.8-3
			c0.6-0.6,1.7-1.3,2.4-0.4c0.9,1.3,0.6,2.6,0.4,3.9c-0.2,1.5-1.1,4.9-1.1,6c0,0.9,0,2.6,0.9,2.6c1.9,0.2,2.2-0.2,2.6-1.1
			c0.6-1.5,0.6-4.1,0.2-5.6c-0.4-1.5-0.9-4.1-0.6-4.9c0.2-0.9,1.1-2.6,2.4-2.8c1.5-0.2,1.9,1.5,2.4,2.4c0.4,1.1,1.3,6.5,3.9,6
			C-205.3,108.4-205.3,106-205.3,106L-205.3,106z"/>
		<path id="XMLID_69_" class="st2" d="M-207.3,108.4c0,0-0.9-0.2-1.7-1.5c-0.6-1.1-1.3-4.1-1.1-4.3c0.4-0.2,0.9,2.2,1.3,3
			C-207.9,107.3-207.3,108.4-207.3,108.4L-207.3,108.4z"/>
		<path id="XMLID_68_" class="st2" d="M-216.3,114.4c-0.6,0-1.7,0.2-1.9-1.1c-0.2-0.9,0.2-2.2,0.6-3.4c0.4-1.3,0.4-1.9,0.4-1.9
			s0.2,0.9,0.2,2.8s0,3.2,0.4,3.4C-215.6,114.4-216.3,114.4-216.3,114.4L-216.3,114.4z"/>
		<path id="XMLID_67_" class="st2" d="M-226.2,94c-0.4,0-0.9-0.2-1.7-1.9c-0.4-0.6-0.4-1.9,0.4-1.7c0.6,0.2,1.9,0.9,2.2,1.1
			c0.2,0.2-1.1-0.4-1.5,0C-227.5,91.6-226.2,94-226.2,94L-226.2,94z"/>
		<path id="XMLID_66_" class="st2" d="M-221.9,86.5c0,0-3-3.4-3.7-4.3c-0.4-0.6-0.9-1.7-0.6-2.6c0.2-1.1,2.2-2.2,2.4-1.9
			c0.2,0.2-1.1,0.9-0.9,2.6C-224,83.9-221.9,86.5-221.9,86.5L-221.9,86.5z"/>
		<path id="XMLID_65_" class="st2" d="M-228.3,114c0,0-1.3,0.4-1.3,0c0-0.4,0.2-1.3,0.9-1.9c0.4-0.4,0.6-1.1,1.1-1.3
			c0.4-0.2-0.9,1.9-1.1,2.8C-228.5,114-228.3,114-228.3,114L-228.3,114z"/>
		<path id="XMLID_64_" class="st2" d="M-215,83.2c-0.4,0-0.9-1.9-0.9-2.8c0-0.9,0-1.5,0.6-1.9c0.9-0.4,0.9-0.4,1.1-0.4
			s-0.6,1.7-0.9,2.8C-215.2,81.7-215,83.2-215,83.2L-215,83.2z"/>
		<path id="XMLID_63_" class="st2" d="M-207.7,87.8c0,0-0.6-0.4-0.6-1.7c0-0.6-0.2-1.1,0.2-1.3c0.4-0.2,1.1-0.2,1.3,0.2
			c0.2,0.4-0.6,0.2-0.9,0.6c-0.4,0.6-0.2,1.3,0,1.5C-207.3,87.8-207.7,87.8-207.7,87.8L-207.7,87.8z"/>
		<path id="XMLID_62_" class="st2" d="M-205.5,84.3c-0.2,0.2-1.3-1.5-1.1-1.9c0.2-0.4,0.6-0.4,1.1-0.4c0.4,0,0.6,0.2,0.9,0.2
			c0.2,0.2-0.9,0-1.1,0.4c-0.2,0.2-0.2,0.9,0,1.1C-205.7,83.9-205.5,84.3-205.5,84.3L-205.5,84.3z"/>
		<path id="XMLID_61_" class="st2" d="M-230.5,92.5c0,0.2-0.6-0.4-0.9-1.3c-0.2-1.1-0.2-1.5,0.4-1.7c0.6-0.2,0.9-0.2,0.9-0.2
			s-0.4,0.4-0.4,1.1c0,0.6-0.2,0.9,0,1.3C-230.7,91.9-230.5,92.5-230.5,92.5L-230.5,92.5z"/>
		<path id="XMLID_60_" class="st2" d="M-234.4,89.7c-0.2-0.4-0.9-0.6-0.6-1.3c0-0.4,0.2-0.6,0.6-0.6c0.4,0,0.6,0.2,0.6,0.2
			s-0.6,0.2-0.6,0.4c0,0.6,0.2,0.9,0.2,1.3L-234.4,89.7L-234.4,89.7z"/>
		<path id="XMLID_59_" class="st2" d="M-198.9,105c0,0-1.1-0.6-1.9-1.7c-0.2-0.2-1.5-1.5-1.1-1.7c0.2-0.2,3,0.4,3.2,0.6
			c0.2,0.2-0.4,0-0.6,0.2c-0.2,0.2-0.6,0.2-0.6,0.4c0,0.2,0,0.9,0.4,1.3C-199.3,104.5-198.9,105-198.9,105L-198.9,105z"/>
	</g>
	<path id="XMLID_58_" class="st3" d="M-262.3,67.5c-2.6-1.5,0.2,10.5-2.2,9.9c-4.7-1.3-12.7-8.6-12.9-5.6c-0.2,1.5,8.8,7.7,7.7,10.3
		c-1.5,2.6-4.9,4.5-4.3,8c0.6,1.5,4.7-4.5,7.1-1.9c0.6,1.5-0.2,5.8,1.5,8.4c2.2,1.9,3.2-3.4,8-6.9c0.9-0.6,2.8-0.9,8.4,3
		c1.9-1.1-1.9-3.4-1.7-5.4c2.2-2.4,7.3,0.9,7.1-1.1c-2.4-2.4-5.8-2.6-7.7-3.4c-1.7-0.9,1.1-4.5-0.4-5.2c-1.1-0.2-2.8,0.6-3.9,0.6
		s-1.9-0.2-2.8-1.7C-259.3,75.7-258,72.7-262.3,67.5L-262.3,67.5z"/>
	<path id="XMLID_57_" class="st4" d="M-239.7,118.3c-0.9,1.5-3.9,1.1-5.6,1.1c-0.2,1.3,1.1,1.5,1.5,3c1.1,2.4-7.5,9.2-4.7,16.3
		c1.9,3.9,2.6,6.5,0.4,9.9c0,1.3-0.6,2.2-0.4,3.7c-5.8,11.2-31.6,4.1-21.3-16.6l3.9-2.4c0-2.4,0-2.2,1.7-2.4c0.9,0.2,2.6,1.1,3,2.2
		c5.2,4.3,12.5-6,12.7-11.2c-0.2-1.9,0.6-1.9,1.7-2.4c0.4,0.2,0.9-0.4,1.5-1.1c-1.9-3.9,0.2-6.7,2.4-6.2
		C-239.5,112.1-238.4,116.8-239.7,118.3L-239.7,118.3z"/>
	<g id="XMLID_177_">
		<polygon id="XMLID_56_" class="st5" points="-216.1,144.3 -216.1,159.4 -217.6,159.4 -217.6,144.3 		"/>
		<polygon id="XMLID_55_" class="st5" points="-235.4,162 -220.4,162 -220.4,163.5 -235.4,163.5 		"/>
		<polygon id="XMLID_54_" class="st5" points="-216.1,166.3 -216.1,181.1 -217.6,181.1 -217.6,166.3 		"/>
		<polygon id="XMLID_53_" class="st5" points="-213.5,162 -198.4,162 -198.4,163.5 -213.5,163.5 		"/>
	</g>
	<g id="XMLID_172_">
		<path id="XMLID_174_" class="st2" d="M-187.3,143v2.4h-8v-29h8v2.6h2.4v1.9h2.4v2.4h2.4v2.2h2.4v1.9h2.4v2.2h2.6v2.2h2.2v7.1h-5.4
			h-1.7v1.9c-0.9-0.9-1.9-1.5-2.8-2.4h2.8h2.4v4.1h2.2v4.5h2.6v9.2h-5.8h-4.3v-4.5h-2.4v-4.3h-2.6v-4.1h-2.4v-4.7l1.5,1.3l1.7-1.3
			v4.5H-187.3L-187.3,143z M-191.3,141.7l-1.3,1.1v-4.7h2.4v-2.2h7.5v2.4h2.4v4.1h2.6v4.3h2.4v7.1c-0.9-0.9-1.5-1.3-2.2-1.9h-1.1
			v-4.5h-2.2v-4.1h-2.4v-9.5h4.9h2.2h2.6l-1.5,1.3l1.5,1.3h-4.9v-2.2h-2.4v-2.2h-2.4v-1.7h-2.4v-2.2h-2.4v-2.4h-2.4v-1.9h-2.4V119
			l2.6,2.4h-2.6l2.8-2.4V143L-191.3,141.7L-191.3,141.7z"/>
		<polygon id="XMLID_50_" points="-192.6,119 -190,119 -190,121.3 -187.7,121.3 -187.7,123.3 -185.1,123.3 -185.1,125.6 
			-182.9,125.6 -182.9,127.8 -180.6,127.8 -180.6,129.9 -178.2,129.9 -178.2,132.1 -175.6,132.1 -175.6,134.2 -173.5,134.2 
			-173.5,136.4 -176.1,136.4 -178.2,136.4 -180.6,136.4 -180.6,140.7 -178.2,140.7 -178.2,145 -175.9,145 -175.9,149.3 
			-173.5,149.3 -173.5,153.8 -176.5,153.8 -178.2,153.8 -178.2,149.3 -180.6,149.3 -180.6,145 -183.2,145 -183.2,140.9 
			-185.5,140.9 -185.5,138.5 -187.7,138.5 -187.7,140.7 -190,140.7 -190,142.8 -192.6,142.8 		"/>
	</g>
</g>
<g>
	<g id="XMLID_146_">
		<path id="XMLID_49_" class="st0" d="M-469.8,343.3c0,2.7,0,24.4,0,24.4l0.2,18.1l-2.9,0.5l-4.8-13.5c0,0-11.4-27.8-12.1-29.4
			c-1.7,0-13.6,0-15.7,0c0,2.9,0,79.2,0,81.8c2.2,0,10.6,0,13.1,0c0-2.7,0-25.1,0-25.1l-0.2-21.7l2.9-0.5l6,16.2
			c0,0,11.6,29.2,12.3,31.1c1.7,0,12.1,0,14.3,0c0-2.9,0-79.2,0-81.8C-457.7,343.3-467.6,343.3-469.8,343.3z"/>
		<path id="XMLID_167_" class="st0" d="M-434.9,343.3c-0.5,2.2-17.4,78.5-18.1,81.8c2.7,0,12.8,0,14.8,0c0.5-2.2,3.9-20.3,3.9-20.3
			h15.7c0,0,3.9,18.3,4.4,20.3c1.9,0,12.3,0,15.2,0c-0.7-3.4-17.9-79.7-18.4-81.8C-418.2,343.3-433,343.3-434.9,343.3z
			 M-428.1,369.3h2.9l0.7,4.6l1.2,6l1.9,8.9h-10.9l3.1-15C-428.9,373.7-428.1,369.3-428.1,369.3z"/>
		<path id="XMLID_163_" class="st0" d="M-394,344.5c0,0-0.2,0-0.5,0.2c0,2.2,0,77.7,0,80.1c0.2,0,0.5,0,0.5,0
			c2.2,0.5,6.8,1.2,14,1.2c10.9,0,18.1-2.4,22.7-7.2c4.1-4.6,6.3-10.9,6.3-18.1c0-8-3.1-15-8.7-18.6l-1.7-1.2l1.5-1.2
			c4.4-3.9,6.8-9.2,6.8-15.4c0-7.5-2.7-13.5-7.3-16.9c-4.1-3.4-8.7-4.6-16.9-4.6C-383.4,342.8-390.1,343.5-394,344.5z M-380.7,373.2
			V359l4.8-0.5c5.6,0,8.7,2.7,8.7,7.7c0,5.3-3.6,8.4-9.9,8.4h-3.6V373.2z M-379.3,409.9h-1.5v-19.6h3.9c7,0,11.1,3.6,11.1,9.9
			c0,6.5-3.9,10.1-10.4,10.1C-376.4,410.1-379.3,409.9-379.3,409.9z"/>
		<path id="XMLID_43_" class="st0" d="M-344.9,343.3c0,2.9,0,79.2,0,81.8c2.2,0,11.9,0,14,0c0-2.9,0-79.2,0-81.8
			C-331.8,343.3-342.5,343.3-344.9,343.3z"/>
		<path id="XMLID_42_" class="st0" d="M-322.4,343.3c0,2.9,0,79.2,0,81.8c2.7,0,34.1,0,36.8,0c0-2.4,0-15.4,0-17.9
			c-2.7,0-22.7,0-22.7,0s0-61.3,0-64.2C-309.3,343.3-320,343.3-322.4,343.3z"/>
		<path id="XMLID_41_" class="st0" d="M-268.2,385.3c0,12.1,2.9,22.9,8.5,30.2c5.6,7.2,13.1,10.9,23.5,10.9c7,0,14.5-2.4,19.1-4.6
			c0,0,0.2-0.2,0.5-0.2c0-1.7,0-41.5,0-44.2c-2.4,0-19.8,0-22.5,0c0,2.4,0,14.2,0,16.7c2.2,0,8.7,0,8.7,0v14.2h-1.2l-4.6,0.5
			c-10.9,0-17.4-9.4-17.4-24.6c0-15.2,6.8-24.4,18.4-24.4c7,0,10.6,1.9,13.1,3.4l0.2,0.2c0.7-3.4,2.9-15.2,3.1-16.9
			c-0.2-0.2-0.7-0.5-0.7-0.5c-2.9-1.9-8.7-3.9-16-3.9C-254.9,342.5-268,359.2-268.2,385.3z"/>
		<path id="XMLID_157_" class="st0" d="M-208.9,344.5L-208.9,344.5c0,0-0.2,0-0.5,0.2c0,2.2,0,77.7,0,80.6c2.2,0,11.6,0,13.8,0
			c0-2.7,0-31.1,0-31.1h3.4c5.6,0.2,7.5,2.7,9,11.8c1.5,9.2,2.9,16.2,4.1,18.8c0,0,0,0.2,0.2,0.5c1.7,0,11.6,0,14.5,0
			c-0.5-1-0.7-2.2-0.7-2.2c-0.7-1.9-1.7-7.7-2.9-13.8l-1.7-8.4c-1.2-6-3.1-10.4-5.6-13.3l-1-1.2l1.2-1c2.4-1.9,8-7.7,8-18.6
			c0-7.7-1.9-13.8-5.8-17.9c-3.9-4.6-9.7-6.5-18.6-6.5C-198,342.8-204.3,343.3-208.9,344.5z M-195.4,376.8v-17.6l5.1-0.2
			c5.8,0,9,3.4,9,9.7c0,6.3-3.6,10.1-9.7,10.1h-4.6v-1.9H-195.4z"/>
		<path id="XMLID_154_" class="st0" d="M-146.5,343.3c-0.5,2.2-17.4,78.5-18.1,81.8c2.7,0,12.8,0,14.8,0c0.5-2.2,3.9-20.3,3.9-20.3
			h15.7c0,0,3.9,18.3,4.4,20.3c1.9,0,12.3,0,15.2,0c-0.7-3.4-17.9-79.7-18.4-81.8C-129.8,343.3-144.3,343.3-146.5,343.3z
			 M-139.7,369.3h2.9l0.7,4.6c0-0.2,1.7,7.7,1.7,7.7l1.5,7.2h-10.9l3.1-15C-140.4,373.7-139.7,369.3-139.7,369.3z"/>
		<path id="XMLID_151_" class="st0" d="M-105.6,344.5c0,0-0.2,0-0.5,0.2c0,2.2,0,78,0,80.6c2.2,0,11.6,0,13.8,0c0-2.7,0-28.5,0-28.5
			l3.9,0.5c8,0,14.5-2.9,18.9-8.4c3.6-4.6,5.6-11.6,5.6-20c0-8-2.4-15.2-6.5-19.6c-3.9-4.3-9.7-6.5-17.7-6.5
			C-94.9,342.8-101,343.3-105.6,344.5z M-90.8,380.4l-1.5-0.2v-21l4.6-0.2c6.3,0,9.7,3.9,9.7,10.4c0,7.2-3.9,11.3-10.6,11.3
			L-90.8,380.4z"/>
		<path id="XMLID_34_" class="st0" d="M-24.3,343.3c0,2.7,0,30.7,0,30.7h-20.1c0,0,0-27.8,0-30.7c-2.2,0-11.9,0-14,0
			c0,2.9,0,79.2,0,81.8c2.2,0,11.9,0,14,0c0-2.7,0-33.1,0-33.1h20.1c0,0,0,30.2,0,33.1c2.2,0,11.9,0,14,0c0-2.9,0-79.2,0-81.8
			C-11,343.3-21.9,343.3-24.3,343.3z"/>
		<path id="XMLID_33_" class="st0" d="M-1.8,343.3c0,2.9,0,79.2,0,81.8c2.2,0,11.6,0,14,0c0-2.9,0-79.2,0-81.8
			C11.5,343.3,0.6,343.3-1.8,343.3z"/>
		<path id="XMLID_32_" class="st0" d="M18,385.3c0,25.3,11.6,41.3,30.5,41.3c6.5,0,12.1-1.7,14.8-3.4c0,0,0.2-0.2,0.7-0.5
			c-0.2-1.4-1.7-13.3-2.2-16.7c-0.2,0-0.5,0.2-0.5,0.2c-2.7,1.4-7,2.7-10.9,2.7c-11.1,0-17.7-9.2-17.7-24.4
			c0-15.7,6.5-24.9,17.7-24.9c4.8,0,8.7,1.7,10.9,2.9l0.2,0.2c0.7-3.1,2.9-15,3.1-16.4c-0.2-0.2-0.7-0.5-0.7-0.5
			c-2.2-1.7-7.3-3.6-14-3.6C30.9,342.1,18,359.4,18,385.3z"/>
		<path id="XMLID_31_" class="st0" d="M67.9,367.2c0,11.3,5.3,19.6,16.2,24.9c7.5,3.6,9,6.3,9,9.7c0,4.6-3.1,7.2-8.5,7.2
			c-5.6,0-10.9-2.4-14.3-4.8c0,0-0.2-0.2-0.5-0.2c-0.7,3.6-2.9,15.7-3.1,17.1c0.2,0.2,0.7,0.5,0.7,0.5c3.1,2.4,9.7,5.1,16.2,5.1
			c17.4,0,23.5-14,23.5-25.8c0-11.8-4.6-19.6-15.2-25.1c-7.5-4.1-10.2-6-10.2-9.9c0-3.1,2.4-6.3,7.7-6.3c5.6,0,9.9,2.4,11.9,3.6
			l0.2,0.2c0.7-3.4,3.1-15.2,3.4-16.7c-0.2-0.2-0.7-0.5-0.7-0.5c-4.1-2.7-9-4.1-14.5-4.1C77.1,342.1,67.9,352.4,67.9,367.2z"/>
	</g>
	<g>
		<g>
			<path d="M-501.9,442.4h6.8c1.8,0,3.3,0.2,4.5,0.6c1.3,0.4,2.4,1.1,3.4,2.1c2.7,2.6,4,6.5,4,11.8c0,1.7-0.1,3.3-0.4,4.8
				c-0.3,1.4-0.7,2.7-1.2,3.9c-0.6,1.2-1.3,2.2-2.2,3.1c-0.7,0.7-1.4,1.3-2.3,1.7c-0.8,0.4-1.7,0.7-2.6,0.9c-0.9,0.2-2,0.3-3.2,0.3
				h-6.8c-0.9,0-1.7-0.2-2.1-0.5s-0.8-0.8-0.9-1.4c-0.1-0.6-0.2-1.4-0.2-2.3V446c0-1.3,0.3-2.2,0.8-2.8
				C-503.8,442.7-503,442.4-501.9,442.4z M-499.9,447.1v19.8h3.9c0.9,0,1.5,0,2-0.1c0.5-0.1,1-0.2,1.5-0.4c0.5-0.2,1-0.5,1.4-0.9
				c1.7-1.7,2.6-4.5,2.6-8.6c0-2.9-0.4-5-1.1-6.5c-0.8-1.4-1.7-2.3-2.8-2.7c-1.1-0.4-2.5-0.6-4.1-0.6H-499.9z"/>
			<path d="M-461.8,447h-11.7v7.2h10.8c0.8,0,1.4,0.2,1.8,0.6c0.4,0.4,0.6,0.9,0.6,1.6s-0.2,1.2-0.6,1.6c-0.4,0.4-1,0.6-1.8,0.6
				h-10.8v8.3h12.1c0.8,0,1.4,0.2,1.8,0.6s0.6,1,0.6,1.7c0,0.7-0.2,1.2-0.6,1.7s-1,0.6-1.8,0.6h-14.1c-1.1,0-1.9-0.3-2.4-0.9
				c-0.5-0.6-0.7-1.5-0.7-2.8V446c0-0.8,0.1-1.5,0.3-2.1c0.2-0.5,0.6-0.9,1-1.2c0.5-0.2,1.1-0.4,1.8-0.4h13.7c0.8,0,1.4,0.2,1.8,0.6
				c0.4,0.4,0.6,1,0.6,1.6c0,0.7-0.2,1.2-0.6,1.7S-460.9,447-461.8,447z"/>
			<path d="M-435.2,462.8c0,1.8-0.4,3.3-1.2,4.7s-2,2.5-3.5,3.3c-1.5,0.8-3.4,1.2-5.5,1.2c-2.5,0-4.6-0.5-6.3-1.6
				c-1.2-0.8-2.1-1.8-2.8-3.1c-0.7-1.3-1.1-2.6-1.1-3.8c0-0.7,0.2-1.3,0.7-1.8s1-0.8,1.7-0.8c0.5,0,1,0.2,1.4,0.6
				c0.4,0.4,0.7,1,1,1.8c0.3,0.9,0.7,1.7,1.1,2.3c0.4,0.6,0.9,1.1,1.6,1.5s1.6,0.6,2.7,0.6c1.5,0,2.8-0.4,3.8-1.2
				c1-0.8,1.4-1.8,1.4-3c0-1-0.3-1.8-0.8-2.4c-0.5-0.6-1.2-1.1-2-1.4c-0.8-0.3-1.9-0.7-3.3-1c-1.8-0.5-3.4-1.1-4.6-1.7
				c-1.2-0.7-2.2-1.5-3-2.7c-0.7-1.1-1.1-2.5-1.1-4.2c0-1.6,0.4-3,1.2-4.3c0.8-1.2,1.9-2.2,3.3-2.9s3.2-1,5.1-1
				c1.6,0,2.9,0.2,4.1,0.7c1.1,0.4,2.1,1,2.9,1.8s1.3,1.5,1.7,2.3s0.5,1.6,0.5,2.4c0,0.7-0.2,1.3-0.7,1.9c-0.4,0.6-1,0.8-1.6,0.8
				c-0.6,0-1-0.2-1.4-0.5c-0.3-0.3-0.6-0.9-1-1.7c-0.5-1.1-1-2-1.7-2.6c-0.7-0.6-1.7-0.9-3.2-0.9c-1.3,0-2.4,0.3-3.2,1
				c-0.8,0.7-1.2,1.5-1.2,2.4c0,0.6,0.1,1.1,0.4,1.5c0.3,0.4,0.7,0.8,1.2,1.1c0.5,0.3,1,0.5,1.5,0.7c0.5,0.2,1.3,0.4,2.5,0.8
				c1.4,0.4,2.8,0.8,3.9,1.3c1.2,0.5,2.2,1,3,1.7s1.5,1.5,1.9,2.5C-435.5,460.1-435.2,461.3-435.2,462.8z"/>
			<path d="M-430.6,468.4v-22.9c0-1.2,0.2-2.1,0.7-2.7c0.5-0.6,1.1-0.9,1.9-0.9c0.8,0,1.4,0.3,1.9,0.9c0.5,0.6,0.7,1.5,0.7,2.7v22.9
				c0,1.2-0.2,2.1-0.7,2.7c-0.5,0.6-1.1,0.9-1.9,0.9c-0.7,0-1.4-0.3-1.8-0.9S-430.6,469.6-430.6,468.4z"/>
			<path d="M-396.2,459.7v5.6c0,0.7-0.1,1.3-0.2,1.8c-0.1,0.4-0.4,0.8-0.7,1.2s-0.8,0.7-1.3,1c-1.6,1-3,1.6-4.5,2.1
				c-1.4,0.4-3,0.7-4.7,0.7c-2,0-3.8-0.3-5.4-1c-1.6-0.7-3-1.7-4.1-3c-1.1-1.3-2-2.9-2.6-4.8c-0.6-1.9-0.9-4-0.9-6.3
				c0-2.3,0.3-4.3,0.9-6.2c0.6-1.9,1.5-3.5,2.6-4.8c1.2-1.3,2.6-2.3,4.2-3c1.7-0.7,3.5-1,5.6-1c1.7,0,3.3,0.3,4.6,0.8
				c1.3,0.5,2.4,1.2,3.2,2s1.5,1.6,1.9,2.5s0.6,1.7,0.6,2.4c0,0.7-0.2,1.4-0.7,1.9c-0.5,0.5-1.1,0.8-1.7,0.8c-0.4,0-0.7-0.1-1.1-0.3
				c-0.3-0.2-0.6-0.5-0.9-0.8c-0.6-1.1-1.2-2-1.6-2.6c-0.4-0.6-1-1.1-1.8-1.5c-0.8-0.4-1.7-0.6-2.9-0.6c-1.2,0-2.3,0.2-3.2,0.7
				c-0.9,0.5-1.8,1.2-2.4,2c-0.7,0.9-1.2,2-1.5,3.3c-0.4,1.3-0.5,2.7-0.5,4.3c0,3.4,0.7,6,2.1,7.9c1.4,1.8,3.3,2.8,5.8,2.8
				c1.2,0,2.3-0.2,3.4-0.5s2.1-0.9,3.2-1.5v-4.7h-4c-1,0-1.7-0.2-2.2-0.5s-0.7-0.9-0.7-1.7c0-0.6,0.2-1.2,0.6-1.6s1-0.6,1.7-0.6h5.9
				c0.7,0,1.3,0.1,1.8,0.2c0.5,0.1,0.9,0.5,1.2,1C-396.3,457.9-396.2,458.7-396.2,459.7z"/>
			<path d="M-384.4,445.4l10,17.2v-17.3c0-1.1,0.2-2,0.6-2.5c0.4-0.6,1-0.8,1.7-0.8c0.7,0,1.3,0.3,1.8,0.8s0.6,1.4,0.6,2.5v22.9
				c0,2.6-0.9,3.8-2.8,3.8c-0.5,0-0.9-0.1-1.3-0.2c-0.4-0.2-0.7-0.4-1.1-0.7s-0.6-0.7-0.9-1.2c-0.3-0.4-0.6-0.9-0.8-1.4l-9.8-17
				v17.1c0,1.1-0.2,2-0.7,2.5s-1,0.9-1.8,0.9c-0.7,0-1.3-0.3-1.8-0.9c-0.4-0.6-0.7-1.4-0.7-2.5v-22.5c0-1,0.1-1.7,0.3-2.2
				c0.2-0.6,0.6-1.1,1.1-1.5c0.5-0.4,1.1-0.6,1.7-0.6c0.5,0,0.9,0.1,1.2,0.3c0.3,0.2,0.6,0.4,0.9,0.7c0.3,0.3,0.5,0.7,0.8,1.1
				C-385,444.5-384.7,444.9-384.4,445.4z"/>
		</g>
		<g>
			<path d="M-325.1,460.2h-4.8v8.2c0,1.2-0.2,2.1-0.7,2.7c-0.5,0.6-1.1,0.9-1.9,0.9c-0.8,0-1.4-0.3-1.9-0.9
				c-0.5-0.6-0.7-1.5-0.7-2.7V446c0-1.3,0.3-2.2,0.8-2.8c0.5-0.6,1.4-0.8,2.5-0.8h6.7c2,0,3.5,0.2,4.6,0.5c1.1,0.3,2,0.9,2.7,1.6
				s1.3,1.7,1.7,2.8s0.6,2.4,0.6,3.8c0,3-0.8,5.2-2.4,6.7C-319.5,459.4-321.9,460.2-325.1,460.2z M-326.4,446.8h-3.5v8.9h3.5
				c1.2,0,2.3-0.1,3.1-0.4c0.8-0.3,1.5-0.8,1.9-1.4c0.4-0.7,0.6-1.5,0.6-2.6c0-1.3-0.3-2.3-1-3.1
				C-322.5,447.3-324.1,446.8-326.4,446.8z"/>
			<path d="M-304.2,459.1h-1.8v9.4c0,1.2-0.2,2.1-0.7,2.7c-0.5,0.6-1.1,0.9-1.9,0.9c-0.8,0-1.5-0.3-1.9-0.9
				c-0.5-0.6-0.7-1.5-0.7-2.7V446c0-1.3,0.3-2.2,0.8-2.8c0.5-0.6,1.3-0.9,2.4-0.9h8.5c1.2,0,2.2,0.1,3,0.2c0.8,0.1,1.6,0.3,2.2,0.7
				c0.8,0.4,1.5,0.9,2.1,1.6c0.6,0.7,1.1,1.5,1.4,2.5c0.3,0.9,0.5,2,0.5,3c0,2.2-0.5,3.9-1.6,5.2c-1.1,1.3-2.7,2.2-4.9,2.8
				c0.9,0.6,1.8,1.4,2.6,2.5c0.8,1.1,1.6,2.2,2.3,3.5c0.7,1.2,1.2,2.3,1.5,3.3c0.4,1,0.6,1.7,0.6,2c0,0.4-0.1,0.8-0.3,1.1
				c-0.2,0.4-0.5,0.7-0.9,0.9c-0.4,0.2-0.8,0.3-1.3,0.3c-0.6,0-1.1-0.2-1.5-0.5s-0.7-0.7-1-1.2c-0.3-0.5-0.7-1.2-1.2-2.1l-2.1-3.9
				c-0.7-1.4-1.4-2.5-2-3.3c-0.6-0.8-1.2-1.3-1.8-1.5C-302.5,459.2-303.3,459.1-304.2,459.1z M-301.2,446.8h-4.8v8h4.7
				c1.2,0,2.3-0.1,3.2-0.4c0.9-0.2,1.5-0.7,2-1.3s0.7-1.4,0.7-2.4c0-0.8-0.2-1.5-0.5-2.1c-0.4-0.6-0.9-1.1-1.5-1.4
				C-298.2,447-299.4,446.8-301.2,446.8z"/>
			<path d="M-285.2,468.4v-22.9c0-1.2,0.2-2.1,0.7-2.7c0.5-0.6,1.1-0.9,1.9-0.9c0.8,0,1.4,0.3,1.9,0.9c0.5,0.6,0.7,1.5,0.7,2.7v22.9
				c0,1.2-0.2,2.1-0.7,2.7c-0.5,0.6-1.1,0.9-1.9,0.9c-0.7,0-1.4-0.3-1.8-0.9S-285.2,469.6-285.2,468.4z"/>
			<path d="M-267.4,445.4l10,17.2v-17.3c0-1.1,0.2-2,0.6-2.5c0.4-0.6,1-0.8,1.7-0.8c0.7,0,1.3,0.3,1.8,0.8s0.6,1.4,0.6,2.5v22.9
				c0,2.6-0.9,3.8-2.8,3.8c-0.5,0-0.9-0.1-1.3-0.2c-0.4-0.2-0.7-0.4-1.1-0.7s-0.6-0.7-0.9-1.2c-0.3-0.4-0.6-0.9-0.8-1.4l-9.8-17
				v17.1c0,1.1-0.2,2-0.7,2.5s-1,0.9-1.8,0.9c-0.7,0-1.3-0.3-1.8-0.9c-0.4-0.6-0.7-1.4-0.7-2.5v-22.5c0-1,0.1-1.7,0.3-2.2
				c0.2-0.6,0.6-1.1,1.1-1.5c0.5-0.4,1.1-0.6,1.7-0.6c0.5,0,0.9,0.1,1.2,0.3c0.3,0.2,0.6,0.4,0.9,0.7c0.3,0.3,0.5,0.7,0.8,1.1
				C-267.9,444.5-267.7,444.9-267.4,445.4z"/>
			<path d="M-230.2,447.3h-5.7v21.2c0,1.2-0.2,2.1-0.7,2.7c-0.5,0.6-1.1,0.9-1.9,0.9c-0.8,0-1.4-0.3-1.9-0.9
				c-0.5-0.6-0.7-1.5-0.7-2.7v-21.2h-5.7c-0.9,0-1.5-0.2-2-0.7c-0.4-0.4-0.6-1-0.6-1.8c0-0.8,0.2-1.4,0.7-1.8s1.1-0.7,2-0.7h16.5
				c0.9,0,1.6,0.2,2,0.7c0.4,0.5,0.7,1,0.7,1.8s-0.2,1.3-0.7,1.8S-229.4,447.3-230.2,447.3z"/>
			<path d="M-224.3,468.4v-22.9c0-1.2,0.2-2.1,0.7-2.7c0.5-0.6,1.1-0.9,1.9-0.9c0.8,0,1.4,0.3,1.9,0.9c0.5,0.6,0.7,1.5,0.7,2.7v22.9
				c0,1.2-0.2,2.1-0.7,2.7c-0.5,0.6-1.1,0.9-1.9,0.9c-0.7,0-1.4-0.3-1.8-0.9S-224.3,469.6-224.3,468.4z"/>
			<path d="M-206.5,445.4l10,17.2v-17.3c0-1.1,0.2-2,0.6-2.5s1-0.8,1.7-0.8c0.7,0,1.3,0.3,1.8,0.8c0.4,0.6,0.6,1.4,0.6,2.5v22.9
				c0,2.6-0.9,3.8-2.8,3.8c-0.5,0-0.9-0.1-1.3-0.2c-0.4-0.2-0.7-0.4-1.1-0.7s-0.6-0.7-0.9-1.2c-0.3-0.4-0.6-0.9-0.8-1.4l-9.8-17
				v17.1c0,1.1-0.2,2-0.7,2.5s-1,0.9-1.8,0.9c-0.7,0-1.3-0.3-1.8-0.9c-0.4-0.6-0.7-1.4-0.7-2.5v-22.5c0-1,0.1-1.7,0.3-2.2
				c0.2-0.6,0.6-1.1,1.1-1.5c0.5-0.4,1.1-0.6,1.7-0.6c0.5,0,0.9,0.1,1.2,0.3c0.3,0.2,0.6,0.4,0.9,0.7c0.3,0.3,0.5,0.7,0.8,1.1
				C-207,444.5-206.8,444.9-206.5,445.4z"/>
			<path d="M-162.6,459.7v5.6c0,0.7-0.1,1.3-0.2,1.8c-0.1,0.4-0.4,0.8-0.7,1.2c-0.3,0.4-0.8,0.7-1.3,1c-1.6,1-3,1.6-4.5,2.1
				s-3,0.7-4.7,0.7c-2,0-3.8-0.3-5.4-1c-1.6-0.7-3-1.7-4.2-3c-1.1-1.3-2-2.9-2.6-4.8c-0.6-1.9-0.9-4-0.9-6.3c0-2.3,0.3-4.3,0.9-6.2
				c0.6-1.9,1.5-3.5,2.6-4.8c1.2-1.3,2.6-2.3,4.2-3c1.7-0.7,3.5-1,5.6-1c1.7,0,3.3,0.3,4.6,0.8c1.3,0.5,2.4,1.2,3.2,2
				s1.5,1.6,1.9,2.5c0.4,0.9,0.6,1.7,0.6,2.4c0,0.7-0.2,1.4-0.7,1.9c-0.5,0.5-1.1,0.8-1.7,0.8c-0.4,0-0.7-0.1-1.1-0.3
				c-0.3-0.2-0.6-0.5-0.9-0.8c-0.6-1.1-1.2-2-1.6-2.6s-1-1.1-1.8-1.5c-0.8-0.4-1.7-0.6-2.9-0.6c-1.2,0-2.3,0.2-3.2,0.7
				c-0.9,0.5-1.8,1.2-2.4,2s-1.2,2-1.5,3.3s-0.5,2.7-0.5,4.3c0,3.4,0.7,6,2.1,7.9c1.4,1.8,3.3,2.8,5.8,2.8c1.2,0,2.3-0.2,3.4-0.5
				c1.1-0.4,2.1-0.9,3.2-1.5v-4.7h-4c-1,0-1.7-0.2-2.2-0.5c-0.5-0.3-0.7-0.9-0.7-1.7c0-0.6,0.2-1.2,0.6-1.6c0.4-0.4,1-0.6,1.7-0.6
				h5.9c0.7,0,1.3,0.1,1.8,0.2c0.5,0.1,0.9,0.5,1.2,1C-162.7,457.9-162.6,458.7-162.6,459.7z"/>
		</g>
		<g>
			<path d="M-106.2,462.3c0,0.9-0.2,1.9-0.6,3c-0.4,1.1-1,2.1-1.9,3.2s-2,1.9-3.3,2.5c-1.3,0.7-2.9,1-4.7,1c-1.4,0-2.6-0.1-3.7-0.4
				c-1.1-0.3-2.1-0.7-3-1.4s-1.7-1.4-2.5-2.4c-0.7-0.9-1.3-1.9-1.7-3.1c-0.5-1.1-0.8-2.3-1.1-3.6c-0.2-1.3-0.4-2.6-0.4-4.1
				c0-2.3,0.3-4.4,0.9-6.3c0.6-1.9,1.5-3.4,2.6-4.8c1.1-1.3,2.4-2.3,3.9-3s3.1-1,4.8-1c2.1,0,3.9,0.5,5.6,1.4s2.9,2.1,3.7,3.5
				c0.9,1.4,1.3,2.7,1.3,3.9c0,0.7-0.2,1.3-0.6,1.8s-0.9,0.8-1.5,0.8c-0.7,0-1.2-0.2-1.5-0.5c-0.3-0.4-0.7-1-1.1-1.8
				c-0.7-1.4-1.5-2.5-2.4-3.2c-0.9-0.7-2-1.1-3.4-1.1c-2.1,0-3.8,0.9-5.1,2.8s-1.9,4.5-1.9,7.8c0,2.3,0.3,4.1,0.8,5.7
				c0.6,1.5,1.4,2.6,2.4,3.4c1,0.7,2.2,1.1,3.6,1.1c1.5,0,2.8-0.4,3.8-1.3c1-0.8,1.8-2.1,2.3-3.7c0.2-0.8,0.5-1.4,0.8-1.9
				c0.3-0.5,0.9-0.7,1.6-0.7c0.6,0,1.1,0.2,1.6,0.7C-106.4,461-106.2,461.6-106.2,462.3z"/>
			<path d="M-90.2,441.9c2.7,0,4.9,0.6,6.9,1.8s3.4,3,4.3,5.2c1,2.3,1.5,4.9,1.5,8c0,2.3-0.3,4.3-0.8,6.1c-0.5,1.8-1.3,3.4-2.4,4.8
				c-1.1,1.4-2.4,2.4-4,3.1s-3.4,1.1-5.4,1.1c-2,0-3.8-0.4-5.4-1.1s-2.9-1.8-4-3.1c-1.1-1.3-1.9-2.9-2.4-4.8
				c-0.5-1.9-0.8-3.9-0.8-6.1c0-2.2,0.3-4.3,0.8-6.2s1.4-3.5,2.5-4.8c1.1-1.3,2.4-2.3,3.9-3C-93.9,442.3-92.2,441.9-90.2,441.9z
				 M-82.8,456.9c0-2.1-0.3-4-0.9-5.5c-0.6-1.6-1.5-2.7-2.6-3.5c-1.1-0.8-2.4-1.2-3.9-1.2c-1,0-2,0.2-2.9,0.7
				c-0.9,0.4-1.6,1.1-2.3,1.9s-1.1,1.9-1.5,3.2c-0.4,1.3-0.6,2.8-0.6,4.4c0,1.7,0.2,3.2,0.6,4.5c0.4,1.3,0.9,2.4,1.6,3.3
				s1.4,1.5,2.3,2c0.9,0.4,1.8,0.7,2.9,0.7c1.3,0,2.6-0.4,3.7-1.1c1.1-0.8,2-1.9,2.7-3.5C-83.1,461.1-82.8,459.2-82.8,456.9z"/>
			<path d="M-66.3,445.4l10,17.2v-17.3c0-1.1,0.2-2,0.6-2.5s1-0.8,1.7-0.8c0.7,0,1.3,0.3,1.8,0.8c0.4,0.6,0.6,1.4,0.6,2.5v22.9
				c0,2.6-0.9,3.8-2.8,3.8c-0.5,0-0.9-0.1-1.3-0.2c-0.4-0.2-0.7-0.4-1.1-0.7c-0.3-0.3-0.6-0.7-0.9-1.2c-0.3-0.4-0.6-0.9-0.8-1.4
				l-9.8-17v17.1c0,1.1-0.2,2-0.7,2.5c-0.5,0.6-1,0.9-1.8,0.9c-0.7,0-1.3-0.3-1.8-0.9c-0.4-0.6-0.7-1.4-0.7-2.5v-22.5
				c0-1,0.1-1.7,0.3-2.2c0.2-0.6,0.6-1.1,1.1-1.5c0.5-0.4,1.1-0.6,1.7-0.6c0.5,0,0.9,0.1,1.2,0.3c0.3,0.2,0.6,0.4,0.9,0.7
				c0.3,0.3,0.5,0.7,0.8,1.1C-66.9,444.5-66.6,444.9-66.3,445.4z"/>
			<path d="M-26.3,462.8c0,1.8-0.4,3.3-1.2,4.7s-2,2.5-3.5,3.3c-1.5,0.8-3.4,1.2-5.5,1.2c-2.5,0-4.6-0.5-6.3-1.6
				c-1.2-0.8-2.1-1.8-2.8-3.1c-0.7-1.3-1.1-2.6-1.1-3.8c0-0.7,0.2-1.3,0.7-1.8c0.4-0.5,1-0.8,1.7-0.8c0.5,0,1,0.2,1.4,0.6
				c0.4,0.4,0.7,1,1,1.8c0.3,0.9,0.7,1.7,1.1,2.3c0.4,0.6,0.9,1.1,1.6,1.5s1.6,0.6,2.7,0.6c1.5,0,2.8-0.4,3.8-1.2
				c1-0.8,1.4-1.8,1.4-3c0-1-0.3-1.8-0.8-2.4c-0.5-0.6-1.2-1.1-2-1.4c-0.8-0.3-1.9-0.7-3.3-1c-1.8-0.5-3.4-1.1-4.6-1.7
				c-1.2-0.7-2.2-1.5-3-2.7c-0.7-1.1-1.1-2.5-1.1-4.2c0-1.6,0.4-3,1.2-4.3s1.9-2.2,3.3-2.9s3.2-1,5.2-1c1.6,0,2.9,0.2,4.1,0.7
				c1.1,0.4,2.1,1,2.9,1.8s1.3,1.5,1.7,2.3c0.3,0.8,0.5,1.6,0.5,2.4c0,0.7-0.2,1.3-0.7,1.9c-0.4,0.6-1,0.8-1.6,0.8
				c-0.6,0-1-0.2-1.4-0.5c-0.3-0.3-0.6-0.9-1-1.7c-0.5-1.1-1-2-1.7-2.6c-0.7-0.6-1.7-0.9-3.2-0.9c-1.3,0-2.4,0.3-3.2,1
				c-0.8,0.7-1.2,1.5-1.2,2.4c0,0.6,0.1,1.1,0.4,1.5c0.3,0.4,0.7,0.8,1.2,1.1s1,0.5,1.5,0.7c0.5,0.2,1.3,0.4,2.5,0.8
				c1.4,0.4,2.8,0.8,3.9,1.3c1.2,0.5,2.2,1,3,1.7s1.5,1.5,1.9,2.5C-26.6,460.1-26.3,461.3-26.3,462.8z"/>
			<path d="M-21.9,459.5v-14c0-1.2,0.2-2.1,0.7-2.7c0.5-0.6,1.1-0.9,1.9-0.9c0.8,0,1.4,0.3,1.9,0.9c0.5,0.6,0.7,1.5,0.7,2.7v14.3
				c0,1.6,0.2,3,0.5,4.1c0.3,1.1,0.9,1.9,1.7,2.5c0.8,0.6,2,0.9,3.4,0.9c2,0,3.5-0.6,4.3-1.8s1.3-3.1,1.3-5.6v-14.4
				c0-1.2,0.2-2.1,0.7-2.7c0.5-0.6,1.1-0.9,1.9-0.9s1.4,0.3,1.9,0.9c0.5,0.6,0.7,1.5,0.7,2.7v14c0,2.3-0.2,4.2-0.6,5.7
				c-0.4,1.5-1.1,2.9-2.2,4c-0.9,1-2,1.7-3.3,2.1c-1.2,0.5-2.7,0.7-4.3,0.7c-2,0-3.7-0.2-5.1-0.7s-2.6-1.2-3.5-2.2s-1.6-2.3-2-3.9
				C-21.7,463.6-21.9,461.7-21.9,459.5z"/>
			<path d="M10.4,445.5v21.2H21c0.8,0,1.5,0.2,1.9,0.7c0.5,0.5,0.7,1,0.7,1.7c0,0.7-0.2,1.3-0.7,1.7c-0.4,0.4-1.1,0.7-1.9,0.7H8.4
				c-1.1,0-1.9-0.3-2.4-0.9c-0.5-0.6-0.7-1.5-0.7-2.8v-22.4c0-1.2,0.2-2.1,0.7-2.7c0.5-0.6,1.1-0.9,1.9-0.9c0.8,0,1.4,0.3,1.9,0.9
				S10.4,444.3,10.4,445.5z"/>
			<path d="M39.2,447.3h-5.7v21.2c0,1.2-0.2,2.1-0.7,2.7c-0.5,0.6-1.1,0.9-1.9,0.9c-0.8,0-1.4-0.3-1.9-0.9c-0.5-0.6-0.7-1.5-0.7-2.7
				v-21.2h-5.7c-0.9,0-1.5-0.2-2-0.7s-0.6-1-0.6-1.8c0-0.8,0.2-1.4,0.7-1.8c0.4-0.4,1.1-0.7,2-0.7h16.5c0.9,0,1.6,0.2,2,0.7
				c0.4,0.5,0.7,1,0.7,1.8s-0.2,1.3-0.7,1.8C40.7,447.1,40.1,447.3,39.2,447.3z"/>
			<path d="M45.1,468.4v-22.9c0-1.2,0.2-2.1,0.7-2.7c0.5-0.6,1.1-0.9,1.9-0.9c0.8,0,1.4,0.3,1.9,0.9s0.7,1.5,0.7,2.7v22.9
				c0,1.2-0.2,2.1-0.7,2.7c-0.5,0.6-1.1,0.9-1.9,0.9c-0.7,0-1.4-0.3-1.8-0.9C45.4,470.5,45.1,469.6,45.1,468.4z"/>
			<path d="M62.9,445.4l10,17.2v-17.3c0-1.1,0.2-2,0.6-2.5s1-0.8,1.7-0.8c0.7,0,1.3,0.3,1.8,0.8c0.4,0.6,0.6,1.4,0.6,2.5v22.9
				c0,2.6-0.9,3.8-2.8,3.8c-0.5,0-0.9-0.1-1.3-0.2c-0.4-0.2-0.7-0.4-1.1-0.7c-0.3-0.3-0.6-0.7-0.9-1.2c-0.3-0.4-0.6-0.9-0.8-1.4
				l-9.8-17v17.1c0,1.1-0.2,2-0.7,2.5c-0.5,0.6-1,0.9-1.8,0.9c-0.7,0-1.3-0.3-1.8-0.9c-0.4-0.6-0.7-1.4-0.7-2.5v-22.5
				c0-1,0.1-1.7,0.3-2.2c0.2-0.6,0.6-1.1,1.1-1.5c0.5-0.4,1.1-0.6,1.7-0.6c0.5,0,0.9,0.1,1.2,0.3c0.3,0.2,0.6,0.4,0.9,0.7
				c0.3,0.3,0.5,0.7,0.8,1.1C62.4,444.5,62.6,444.9,62.9,445.4z"/>
			<path d="M106.8,459.7v5.6c0,0.7-0.1,1.3-0.2,1.8c-0.1,0.4-0.4,0.8-0.7,1.2c-0.3,0.4-0.8,0.7-1.3,1c-1.6,1-3,1.6-4.5,2.1
				s-3,0.7-4.7,0.7c-2,0-3.8-0.3-5.4-1c-1.6-0.7-3-1.7-4.2-3c-1.1-1.3-2-2.9-2.6-4.8c-0.6-1.9-0.9-4-0.9-6.3c0-2.3,0.3-4.3,0.9-6.2
				c0.6-1.9,1.5-3.5,2.6-4.8c1.2-1.3,2.6-2.3,4.2-3c1.7-0.7,3.5-1,5.6-1c1.7,0,3.3,0.3,4.6,0.8c1.3,0.5,2.4,1.2,3.2,2
				s1.5,1.6,1.9,2.5c0.4,0.9,0.6,1.7,0.6,2.4c0,0.7-0.2,1.4-0.7,1.9c-0.5,0.5-1.1,0.8-1.7,0.8c-0.4,0-0.7-0.1-1.1-0.3
				c-0.3-0.2-0.6-0.5-0.9-0.8c-0.6-1.1-1.2-2-1.6-2.6s-1-1.1-1.8-1.5c-0.8-0.4-1.7-0.6-2.9-0.6c-1.2,0-2.3,0.2-3.2,0.7
				c-0.9,0.5-1.8,1.2-2.4,2s-1.2,2-1.5,3.3c-0.4,1.3-0.5,2.7-0.5,4.3c0,3.4,0.7,6,2.1,7.9c1.4,1.8,3.3,2.8,5.8,2.8
				c1.2,0,2.3-0.2,3.4-0.5c1.1-0.4,2.1-0.9,3.2-1.5v-4.7h-4c-1,0-1.7-0.2-2.2-0.5c-0.5-0.3-0.7-0.9-0.7-1.7c0-0.6,0.2-1.2,0.6-1.6
				c0.4-0.4,1-0.6,1.7-0.6h5.9c0.7,0,1.3,0.1,1.8,0.2c0.5,0.1,0.9,0.5,1.2,1C106.7,457.9,106.8,458.7,106.8,459.7z"/>
		</g>
		<g id="XMLID_88_">
			<path id="XMLID_89_" class="st6" d="M-347.5,461.9h-2.7l-3.9-6.8l-1.9,6.8h-2.7l2.9-9.9h2.7l3.9,6.5l1.9-6.5h2.7L-347.5,461.9z"
				/>
		</g>
		<g id="XMLID_4_">
			<path id="XMLID_86_" class="st6" d="M-140.1,461.9h-2.7l-3.9-6.8l-1.9,6.8h-2.7l2.9-9.9h2.7l3.9,6.5l1.9-6.5h2.7L-140.1,461.9z"
				/>
		</g>
	</g>
</g>
<rect x="-514" y="-41.2" class="st7" width="630.1" height="599.8"/>
</svg>
