<?xml version="1.0" encoding="utf-8"?>
<!-- Generator: Adobe Illustrator 19.0.0, SVG Export Plug-In . SVG Version: 6.00 Build 0)  -->
<svg version="1.1" id="Layer_1" xmlns="http://www.w3.org/2000/svg" xmlns:xlink="http://www.w3.org/1999/xlink" x="0px" y="0px"
	 viewBox="-184 215 589.1 131" style="enable-background:new -184 215 589.1 131;" xml:space="preserve">
<style type="text/css">
	.st0{fill:#FFFFFF;}
	.st1{fill:#F50000;}
	.st2{fill:#0505D6;}
	.st3{fill:#F94710;}
	.st4{fill:#4D4D4D;}
	.st5{stroke:#000000;stroke-width:0.5;stroke-linecap:round;stroke-linejoin:round;stroke-miterlimit:10;}
</style>
<g id="XMLID_1_">
	<g id="XMLID_4_">
		<circle id="XMLID_156_" cx="-106.6" cy="281.3" r="61.5"/>
		<circle id="XMLID_39_" class="st0" cx="-108.2" cy="279.7" r="61.5"/>
	</g>
	<g id="XMLID_171_">
		<g id="XMLID_206_">
			<path id="XMLID_155_" class="st1" d="M-93.3,262.5c13.9,8.5,14.8,16.6,14.8,16.9l0.3,3.1c-0.5-0.7-0.9-1.3-1.3-1.8
				c-0.9-1.2-1.9-2.3-3-2.9c-2.4-1.3-5.1-0.2-9.1,3.1c-0.6,0.5-1,0.9-1.2,1.1l-0.2,0.1c-1.7,2.9-2.9,5.8-4,8.5
				c-0.5,1.3-1.1,2.6-1.6,3.9c-0.5,1.2-1.1,2.3-1.7,3.3c-2.4,3.8-6,6-14.4,4.3c-8.6-1.7-22.4-10.3-21.9-22.8
				c0.2-6.3,2.1-11.1,5.2-14.5c-1.6,3.2-3.2,8.1-3.5,14.6c-0.4,11.1,12.2,19.3,20.4,21c8.1,1.6,11.6,0.2,14-6.5
				c2.4-6.8,5.7-12.3,6.1-12.9c0.2-0.2,0.7-0.7,1.6-1.5c3.3-2.7,6.3-4.4,9.1-4l2,0.3l-1.2-1.7c-3-4.2-7.8-7.8-11.4-10
				c-6.4-4-12.6-5.8-17.4-6.7C-105.3,257.4-98.8,259.2-93.3,262.5L-93.3,262.5z"/>
			<path id="XMLID_153_" class="st1" d="M-91.2,279.2c0,0-0.4-0.6-1.3-1.6c-6.7-7.5-19.9-15-29.2-17.6c0,0,16.6,2.4,31.2,18.1
				L-91.2,279.2L-91.2,279.2z"/>
		</g>
		<g id="XMLID_184_">
			<g id="XMLID_197_">
				<path id="XMLID_152_" class="st2" d="M-106,275.4c0.3-0.6-0.7-1-1-1.2c-0.3-0.1-1.1-0.3-1.3-0.2c-0.2,0.1,0.4,0.9,1,1.2
					C-106.1,275.9-106,275.4-106,275.4L-106,275.4z"/>
				<path id="XMLID_150_" class="st2" d="M-115.2,277c0.1-0.3,0.2-0.7,0.2-0.7c-0.1-0.1-0.2-0.2-0.6,0.2c-0.2,0.2-0.7,0.8-0.8,1
					c-0.1,0.2-0.2,0.5,0.2,0.5C-115.8,277.9-115.3,277.3-115.2,277L-115.2,277z"/>
				<path id="XMLID_149_" class="st2" d="M-112.3,267.1c-0.2,0.1-0.3,0.3-0.3,0.5c0,0.2,0.2,1.2,0.3,1.2c0.1,0,0.7-1,0.7-1.2
					c0-0.2,0.1-0.4,0-0.5C-111.7,267-111.8,266.9-112.3,267.1L-112.3,267.1z"/>
				<path id="XMLID_148_" class="st2" d="M-109.4,269.9c0-0.1,0-0.6-0.2-0.8c-0.1-0.1-0.3-0.2-0.5-0.2s-0.3,0.3-0.2,0.4
					c0,0.2,0.1,0.7,0.3,0.7C-109.5,270.3-109.4,269.9-109.4,269.9L-109.4,269.9z"/>
				<path id="XMLID_147_" class="st2" d="M-108.8,268.5c0-0.1-0.3-0.2-0.3-0.3c-0.1,0-0.3-0.1-0.5,0c-0.2,0-0.2,0.2-0.1,0.4
					c0,0.2,0.1,0.4,0.3,0.6c0.3,0.2,0.4,0.2,0.5,0.1C-108.8,269.1-108.7,268.6-108.8,268.5L-108.8,268.5z"/>
				<path id="XMLID_145_" class="st2" d="M-108.1,267.9c0-0.1,0-0.2-0.2-0.2c-0.1,0-0.6-0.1-0.6,0.1c0,0.2,0,0.3,0.2,0.4
					c0.2,0.1,0.3,0.1,0.4,0C-108.2,268.1-108.1,267.9-108.1,267.9L-108.1,267.9z"/>
				<path id="XMLID_144_" class="st2" d="M-116.4,271.4c-0.2,0.1-0.4,0.1-0.5-0.1c-0.1-0.2-0.2-0.4-0.2-0.7c0-0.3,0.2-0.4,0.4-0.4
					c0.3,0,0.4,0.2,0.4,0.3c0.1,0.2,0.2,0.4,0.1,0.6C-116.3,271.4-116.4,271.4-116.4,271.4L-116.4,271.4z"/>
				<path id="XMLID_142_" class="st2" d="M-117.3,270.5c0-0.2-0.1-0.5-0.3-0.6c-0.2-0.1-0.5,0-0.5,0c-0.1,0.1-0.1,0.3-0.1,0.4
					c0.1,0.2,0.1,0.2,0.3,0.4c0.2,0.2,0.3,0.1,0.4,0C-117.2,270.6-117.3,270.5-117.3,270.5L-117.3,270.5z"/>
			</g>
			<path id="XMLID_140_" class="st2" d="M-109.3,275.4c0-0.2-0.2-0.8-0.7-1.1c-0.3-0.2-0.9-0.9-0.9-1.1c0-0.3,0.2-0.4,0.4-0.3
				c0.3,0,1,0.5,1.2,0.5s0.2-0.2,0.1-0.2c-0.1-0.1-0.7-0.3-0.7-0.3c0-0.1,0-0.5,0.5-0.6c0.6-0.1,1.3,0.1,1.6,0.2
				c0.4,0.1,0.9,0.3,1.3,0.1c0.3-0.1,0.2-0.7,0-0.9c-0.4-0.4-1-0.2-1.4-0.1s-1.4,0.4-1.8,0.5c-0.4,0-0.8-0.1-0.9-0.5
				c-0.1-0.3-0.1-0.4,0.3-0.8c0.2-0.2,0.1-0.7,0-0.8c-0.2-0.2-0.6,0.2-0.8,0.5c-0.1,0.1-0.2,0.3-0.5,0.2c-0.2,0-0.2-0.2-0.4-0.5
				c-0.1-0.3-0.3-0.3-0.4-0.2c-0.1,0.1-0.2,0.5-0.3,0.7c-0.1,0.1-0.3,0.2-0.5,0s-0.3-0.5-0.4-0.9c0-0.4-0.1-1.3-0.3-1.7
				c-0.2-0.4-0.6-0.9-0.9-1c-0.2-0.1-0.5-0.1-0.9,0.3c-0.2,0.3-0.2,0.8,0,1.1s0.6,0.8,0.8,1c0.2,0.2,0.6,0.7,0.7,1
				c0.2,0.7-0.1,0.9-0.8,0.7c-0.3-0.1-0.9-0.5-1-0.5c-0.2-0.1-0.4,0.1-0.3,0.4c0.1,0.4,0.4,0.8,0.6,1c0.3,0.3,0.7,0.3,0.8,0.4
				c0.1,0.2,0,0.5-0.2,0.7s-0.9,0.6-1.2,0.7c-0.3,0.2-0.5,0.3-0.5,0.4c0.1,0.1,0.2,0.1,0.4,0.1c0.2-0.1,1-0.6,1.3-0.7
				c0.2-0.1,0.6-0.2,0.8-0.1c0.2,0.2,0.1,0.5,0,0.7c-0.1,0.2-0.4,0.7-0.5,0.9s-0.1,0.3,0,0.2c0.2-0.1,0.7-0.8,0.8-0.9
				c0.2-0.2,0.5-0.4,0.7-0.1c0.3,0.4,0.2,0.8,0.2,1.1c-0.1,0.4-0.3,1.5-0.3,1.8c0,0.2,0,0.8,0.3,0.8c0.6,0,0.7-0.1,0.8-0.3
				c0.2-0.4,0.2-1.2,0.1-1.6s-0.2-1.2-0.2-1.5c0.1-0.2,0.3-0.8,0.7-0.8c0.4-0.1,0.6,0.4,0.7,0.7c0.1,0.3,0.4,1.9,1.2,1.8
				C-109.3,276.1-109.3,275.4-109.3,275.4L-109.3,275.4z"/>
			<path id="XMLID_138_" class="st0" d="M-109.9,276.1c0,0-0.3,0-0.5-0.5c-0.2-0.3-0.4-1.2-0.3-1.3c0.1,0,0.3,0.7,0.4,0.9
				C-110.1,275.8-109.9,276.1-109.9,276.1L-109.9,276.1z"/>
			<path id="XMLID_136_" class="st0" d="M-112.5,277.9c-0.2,0-0.5,0.1-0.6-0.3c0-0.2,0.1-0.6,0.2-1s0.1-0.6,0.1-0.6s0.1,0.2,0.1,0.8
				c0,0.6,0,1,0.1,1C-112.4,277.9-112.5,277.9-112.5,277.9L-112.5,277.9z"/>
			<path id="XMLID_134_" class="st0" d="M-115.4,271.8c-0.1,0-0.2-0.1-0.5-0.6c-0.1-0.2-0.1-0.6,0.1-0.5c0.2,0,0.6,0.2,0.6,0.3
				c0.1,0.1-0.3-0.1-0.5,0C-115.8,271.1-115.4,271.8-115.4,271.8L-115.4,271.8z"/>
			<path id="XMLID_131_" class="st0" d="M-114.2,269.6c0,0-0.9-1-1.1-1.3c-0.1-0.2-0.2-0.5-0.2-0.7c0.1-0.3,0.6-0.6,0.7-0.6
				c0.1,0.1-0.3,0.3-0.2,0.7C-114.8,268.8-114.2,269.6-114.2,269.6L-114.2,269.6z"/>
			<path id="XMLID_130_" class="st0" d="M-116.1,277.7c0,0-0.4,0.1-0.4,0c0-0.1,0.1-0.4,0.3-0.6c0.1-0.1,0.2-0.3,0.3-0.4
				C-115.7,276.7-116.1,277.4-116.1,277.7C-116.2,277.7-116.1,277.7-116.1,277.7L-116.1,277.7z"/>
			<path id="XMLID_128_" class="st0" d="M-112.1,268.7c-0.1,0-0.3-0.6-0.3-0.9c0-0.2,0-0.5,0.2-0.6c0.3-0.1,0.3-0.1,0.3-0.1
				c0.1,0-0.2,0.5-0.2,0.8C-112.2,268.2-112.1,268.7-112.1,268.7L-112.1,268.7z"/>
			<path id="XMLID_127_" class="st0" d="M-110,270c0,0-0.2-0.2-0.2-0.5c0-0.2,0-0.3,0.1-0.4c0.1,0,0.3-0.1,0.4,0s-0.2,0-0.3,0.2
				c-0.1,0.2-0.1,0.4,0,0.5C-109.9,270-110,270-110,270L-110,270z"/>
			<path id="XMLID_125_" class="st0" d="M-109.4,268.9c-0.1,0-0.4-0.5-0.3-0.6c0-0.1,0.2-0.1,0.3-0.1c0.1,0,0.2,0,0.2,0.1
				c0.1,0.1-0.2,0-0.3,0.1c-0.1,0.1,0,0.2,0,0.3C-109.4,268.9-109.4,268.9-109.4,268.9L-109.4,268.9z"/>
			<path id="XMLID_123_" class="st0" d="M-116.7,271.4c0,0.1-0.2-0.1-0.3-0.4c-0.1-0.3,0-0.4,0.1-0.5c0.2-0.1,0.2,0,0.2,0
				s-0.2,0.1-0.1,0.3c0,0.2,0,0.3,0,0.4L-116.7,271.4L-116.7,271.4z"/>
			<path id="XMLID_121_" class="st0" d="M-117.8,270.6c-0.1-0.1-0.2-0.2-0.2-0.4c0-0.1,0.1-0.2,0.2-0.2s0.2,0,0.2,0s-0.2,0-0.2,0.1
				C-117.8,270.3-117.8,270.4-117.8,270.6L-117.8,270.6L-117.8,270.6z"/>
			<path id="XMLID_119_" class="st0" d="M-107.4,275.1c0,0-0.3-0.2-0.6-0.5c0-0.1-0.4-0.4-0.3-0.5s0.9,0.1,1,0.2
				c0.1,0-0.1,0-0.2,0.1c-0.1,0-0.2,0.1-0.2,0.2s0,0.2,0.1,0.4C-107.5,274.9-107.4,275.1-107.4,275.1L-107.4,275.1z"/>
		</g>
		<path id="XMLID_117_" class="st3" d="M-126.1,264c-0.7-0.5,0.1,3.1-0.6,2.9c-1.4-0.4-3.8-2.5-3.8-1.6c-0.1,0.4,2.6,2.3,2.3,3
			c-0.4,0.7-1.4,1.4-1.3,2.3c0.2,0.4,1.4-1.3,2.1-0.6c0.2,0.4-0.1,1.7,0.5,2.5c0.6,0.6,0.9-1,2.3-2c0.3-0.2,0.8-0.3,2.5,0.9
			c0.6-0.3-0.6-1-0.5-1.6c0.6-0.7,2.2,0.3,2.1-0.3c-0.7-0.7-1.7-0.7-2.3-1c-0.5-0.2,0.3-1.4-0.1-1.5c-0.3,0-0.8,0.2-1.1,0.2
			c-0.3,0-0.6-0.1-0.8-0.5C-125.2,266.4-124.8,265.6-126.1,264L-126.1,264z"/>
		<path id="XMLID_115_" class="st4" d="M-119.4,279c-0.3,0.5-1.1,0.3-1.7,0.3c-0.1,0.4,0.3,0.5,0.4,0.9c0.3,0.7-2.2,2.8-1.4,4.9
			c0.5,1.1,0.8,1.9,0.1,2.9c0,0.4-0.2,0.7-0.1,1.1c-1.7,3.3-9.3,1.2-6.3-4.9l1.2-0.7c0-0.7,0-0.7,0.5-0.7c0.3,0.1,0.7,0.3,0.9,0.6
			c1.5,1.3,3.7-1.8,3.7-3.3c-0.1-0.5,0.2-0.6,0.5-0.7c0.1,0.1,0.3-0.1,0.4-0.3c-0.5-1.1,0.1-2,0.7-1.8
			C-119.4,277.1-119.1,278.6-119.4,279L-119.4,279z"/>
		<g id="XMLID_177_">
			<polygon id="XMLID_112_" class="st5" points="-112.5,286.7 -112.5,291.1 -112.9,291.1 -112.9,286.7 			"/>
			<polygon id="XMLID_110_" class="st5" points="-118.2,291.9 -113.8,291.9 -113.8,292.3 -118.2,292.3 			"/>
			<polygon id="XMLID_109_" class="st5" points="-112.5,293.2 -112.5,297.6 -112.9,297.6 -112.9,293.2 			"/>
			<polygon id="XMLID_107_" class="st5" points="-111.7,291.9 -107.3,291.9 -107.3,292.3 -111.7,292.3 			"/>
		</g>
		<g id="XMLID_172_">
			<path id="XMLID_174_" class="st0" d="M-104,286.3v0.7h-2.4v-8.6h2.4v0.8h0.7v0.6h0.7v0.7h0.7v0.6h0.7v0.6h0.7v0.6h0.8v0.6h0.6
				v2.1h-1.6h-0.5v0.6c-0.3-0.2-0.6-0.5-0.8-0.7h0.8h0.7v1.2h0.6v1.3h0.8v2.7h-1.7h-1.3v-1.3h-0.7v-1.3h-0.8v-1.2h-0.7V285l0.4,0.4
				l0.5-0.4v1.3H-104L-104,286.3z M-105.2,285.9l-0.4,0.3v-1.4h0.7v-0.6h2.2v0.7h0.7v1.2h0.8v1.3h0.7v2.1c-0.3-0.2-0.4-0.4-0.6-0.6
				h-0.3v-1.3h-0.6v-1.2h-0.7v-2.8h1.5h0.6h0.8l-0.6,0.4l0.4,0.4h-1.5v-0.6h-0.7v-0.6h-0.7v-0.6h-0.7V282h-0.7v-0.7h-0.7v-0.6h-0.7
				v-1.5l0.8,0.7h-0.8l0.8-0.7v7.1L-105.2,285.9L-105.2,285.9z"/>
			<polygon id="XMLID_101_" points="-105.6,279.2 -104.8,279.2 -104.8,279.9 -104.1,279.9 -104.1,280.4 -103.4,280.4 -103.4,281.1 
				-102.7,281.1 -102.7,281.8 -102,281.8 -102,282.4 -101.3,282.4 -101.3,283.1 -100.6,283.1 -100.6,283.7 -99.9,283.7 -99.9,284.3 
				-100.7,284.3 -101.3,284.3 -102,284.3 -102,285.6 -101.3,285.6 -101.3,286.9 -100.6,286.9 -100.6,288.2 -99.9,288.2 -99.9,289.5 
				-100.8,289.5 -101.3,289.5 -101.3,288.2 -102,288.2 -102,286.9 -102.8,286.9 -102.8,285.7 -103.5,285.7 -103.5,285 -104.1,285 
				-104.1,285.6 -104.8,285.6 -104.8,286.2 -105.6,286.2 			"/>
		</g>
	</g>
</g>
<g id="XMLID_2_">
	<g id="XMLID_146_">
		<path id="XMLID_99_" class="st1" d="M2.2,250.3c0,1.7,0,15.6,0,15.6l0.2,11.6l-2,0.3l-3.3-8.6c0,0-7.6-17.8-8.1-18.9
			c-1.1,0-9,0-10.6,0c0,1.8,0,50.6,0,52.5c1.5,0,7.2,0,8.7,0c0-1.7,0-16.1,0-16.1l-0.2-13.9l2-0.3l4.1,10.4c0,0,7.9,18.8,8.4,19.9
			c1.1,0,8.1,0,9.6,0c0-1.8,0-50.6,0-52.5C10.4,250.3,3.8,250.3,2.2,250.3z"/>
		<path id="XMLID_167_" class="st1" d="M25.7,250.3c-0.3,1.4-11.6,50.3-12.2,52.5c1.9,0,8.6,0,9.9,0c0.3-1.4,2.7-13,2.7-13h10.6
			c0,0,2.7,11.7,3,13c1.3,0,8.3,0,10.2,0c-0.5-2.2-12-51-12.4-52.5C36.9,250.3,27.1,250.3,25.7,250.3z M30.3,266.9h2l0.6,2.9
			c0-0.1,0.9,3.8,0.9,3.8l1.3,5.7h-7.3c0,0,2.1-9.5,2.1-9.6C29.8,269.8,30.3,266.9,30.3,266.9z"/>
		<path id="XMLID_163_" class="st1" d="M53.2,251c0,0-0.2,0.1-0.4,0.1c0,1.4,0,49.8,0,51.3c0.2,0,0.4,0.1,0.4,0.1
			c1.5,0.3,4.6,0.8,9.4,0.8c7.3,0,12.2-1.5,15.2-4.7c2.8-2.9,4.2-6.9,4.2-11.5c0-5.2-2.1-9.5-5.8-11.9l-1.1-0.7l1-0.8
			c2.9-2.5,4.5-5.9,4.5-10c0-4.7-1.8-8.7-4.9-10.9c-2.7-2.1-5.8-2.9-11.4-2.9C60.4,249.9,55.8,250.4,53.2,251z M62.2,269.4v-9.1
			l3.2-0.3c3.8,0,5.9,1.8,5.9,5c0,3.4-2.5,5.4-6.6,5.4h-2.5L62.2,269.4L62.2,269.4z M63.2,293l-0.9-0.1v-12.6h2.6
			c4.7,0,7.4,2.3,7.4,6.3c0,4.1-2.6,6.5-7,6.5C65.1,293.1,63.2,293,63.2,293z"/>
		<path id="XMLID_80_" class="st1" d="M86.2,250.3c0,1.8,0,50.6,0,52.5c1.5,0,7.9,0,9.4,0c0-1.8,0-50.6,0-52.5
			C95.1,250.3,87.8,250.3,86.2,250.3z"/>
		<path id="XMLID_79_" class="st1" d="M101.3,250.3c0,1.8,0,50.6,0,52.5c1.8,0,22.9,0,24.7,0c0-1.5,0-9.8,0-11.4
			c-1.8,0-15.3,0-15.3,0s0-39.3,0-41.1C110.2,250.3,102.9,250.3,101.3,250.3z"/>
		<path id="XMLID_78_" class="st1" d="M137.9,277.1c0,7.8,2,14.6,5.6,19.3c3.7,4.6,8.9,6.9,15.8,6.9c4.8,0,9.8-1.5,12.8-2.9
			c0,0,0.2-0.1,0.4-0.2c0-1.1,0-26.5,0-28.3c-1.7,0-13.4,0-15.1,0c0,1.5,0,9.2,0,10.7c1.4,0,5.9,0,5.9,0v9.2l-0.7,0.1l-3.1,0.4
			c-7.3,0-11.8-6-11.8-15.8c0-9.7,4.6-15.5,12.4-15.5c4.7,0,7.2,1.2,8.9,2.2l0.2,0.1c0.4-2.1,1.9-9.8,2.1-10.8
			c-0.2-0.1-0.5-0.3-0.5-0.3c-2-1.2-5.8-2.4-10.7-2.4C146.7,249.8,137.9,260.5,137.9,277.1z"/>
		<path id="XMLID_157_" class="st1" d="M177.8,251L177.8,251c0,0-0.2,0.1-0.4,0.1c0,1.4,0,49.8,0,51.6c1.5,0,7.8,0,9.4,0
			c0-1.7,0-19.9,0-19.9h2.2c3.7,0.1,5,1.8,6,7.5c1,5.9,2,10.4,2.7,12.1c0,0,0.1,0.2,0.1,0.4c1.1,0,7.8,0,9.8,0
			c-0.3-0.7-0.5-1.4-0.5-1.4c-0.5-1.3-1.2-4.9-2-8.8l-1.1-5.4c-0.8-3.9-2-6.7-3.8-8.5l-0.7-0.7l0.8-0.6c1.6-1.3,5.3-5,5.3-11.9
			c0-4.9-1.3-8.8-3.9-11.4c-2.7-2.9-6.5-4.1-12.5-4.1C185,249.9,180.8,250.3,177.8,251z M186.8,271.8v-11.3l3.5-0.2
			c3.9,0,6.1,2.2,6.1,6.1c0,4-2.4,6.4-6.5,6.4h-3v-1H186.8z"/>
		<path id="XMLID_154_" class="st1" d="M219.7,250.3c-0.3,1.4-11.6,50.3-12.2,52.5c1.9,0,8.6,0,9.9,0c0.3-1.4,2.7-13,2.7-13h10.6
			c0,0,2.7,11.7,3,13c1.3,0,8.3,0,10.2,0c-0.5-2.2-12.1-51-12.4-52.5C230.9,250.3,221.1,250.3,219.7,250.3z M224.3,266.9h2l0.6,2.9
			c0-0.1,1.1,5,1.1,5l1,4.6h-7.3c0,0,2.1-9.5,2.1-9.6C223.8,269.8,224.3,266.9,224.3,266.9z"/>
		<path id="XMLID_151_" class="st1" d="M247.2,251c0,0-0.2,0-0.4,0.1c0,1.5,0,49.9,0,51.7c1.5,0,7.8,0,9.4,0c0-1.7,0-18.2,0-18.2
			l2.6,0.3c5.3,0,9.7-1.9,12.6-5.5c2.4-3,3.7-7.4,3.7-12.8c0-5.1-1.6-9.7-4.3-12.5c-2.6-2.8-6.5-4.2-11.9-4.2
			C254.3,249.9,250.4,250.3,247.2,251z M257.1,274.1l-0.9-0.1v-13.4l3.1-0.2c4.2,0,6.5,2.4,6.5,6.6c0,4.6-2.7,7.3-7.1,7.3
			C258.6,274.3,257.1,274.1,257.1,274.1z"/>
		<path id="XMLID_71_" class="st1" d="M301.9,250.3c0,1.7,0,19.6,0,19.6h-13.6c0,0,0-17.8,0-19.6c-1.5,0-7.9,0-9.4,0
			c0,1.8,0,50.6,0,52.5c1.5,0,7.9,0,9.4,0c0-1.8,0-21.1,0-21.1h13.6c0,0,0,19.4,0,21.1c1.5,0,7.9,0,9.4,0c0-1.8,0-50.6,0-52.5
			C310.8,250.3,303.5,250.3,301.9,250.3z"/>
		<path id="XMLID_70_" class="st1" d="M317.1,250.3c0,1.8,0,50.6,0,52.5c1.5,0,7.9,0,9.4,0c0-1.8,0-50.6,0-52.5
			C325.9,250.3,318.7,250.3,317.1,250.3z"/>
		<path id="XMLID_69_" class="st1" d="M330.4,277.2c0,16.3,7.9,26.4,20.5,26.4c4.4,0,8.2-1.1,9.8-2.2c0,0,0.2-0.1,0.4-0.3
			c-0.1-0.9-1.2-8.5-1.5-10.6c-0.1,0-0.3,0.2-0.3,0.2c-1.8,1-4.7,1.6-7.3,1.6c-7.4,0-11.9-5.9-11.9-15.7c0-10,4.4-16,11.8-16
			c3.3,0,5.8,1,7.3,1.9l0.2,0.1c0.4-2,1.9-9.6,2.1-10.5c-0.2-0.2-0.5-0.3-0.5-0.3c-1.5-1.1-4.9-2.3-9.5-2.3
			C338.9,249.5,330.4,260.6,330.4,277.2z"/>
		<path id="XMLID_68_" class="st1" d="M363.9,265.5c0,7.3,3.6,12.5,11,16c5.1,2.3,6.1,4.1,6.1,6.2c0,2.9-2.1,4.7-5.7,4.7
			c-3.7,0-7.4-1.6-9.6-3.1c0,0-0.2-0.1-0.3-0.2c-0.4,2.3-1.9,10-2.1,10.9c0.2,0.2,0.4,0.3,0.4,0.3c2.1,1.5,6.4,3.2,10.9,3.2
			c11.7,0,15.8-8.9,15.8-16.6c0-7.6-3.2-12.6-10.3-16.1c-5-2.6-6.8-3.9-6.8-6.4c0-1.9,1.6-4,5.2-4c3.8,0,6.6,1.5,7.9,2.4
			c0,0,0.2,0.1,0.2,0.2c0.5-2.1,2.1-9.7,2.3-10.7c-0.2-0.2-0.5-0.3-0.5-0.3c-2.7-1.7-6-2.6-9.8-2.6
			C370,249.5,363.9,256.1,363.9,265.5z"/>
	</g>
</g>
<g>
	<path d="M-20.7,329.7c0.6,0.3,1.4,0.6,2.2,0.6c1.3,0,2-0.6,2-1.6c0-0.9-0.5-1.3-1.8-1.8c-1.6-0.5-2.5-1.3-2.5-2.6
		c0-1.4,1.2-2.5,3.1-2.5c1,0,1.7,0.2,2.1,0.4l-0.3,1c-0.3-0.2-1-0.4-1.8-0.4c-1.3,0-1.8,0.7-1.8,1.4c0,0.9,0.6,1.3,1.9,1.8
		c1.6,0.6,2.4,1.3,2.4,2.7c0,1.4-1.1,2.6-3.3,2.6c-0.9,0-1.9-0.3-2.4-0.6L-20.7,329.7z"/>
	<path d="M-3.2,329.3c0,0.7,0,1.3,0.1,1.8h-1.1l-0.1-1.1h0c-0.3,0.5-1,1.2-2.3,1.2c-1.1,0-2.4-0.6-2.4-2.9v-3.8h1.2v3.6
		c0,1.2,0.4,2.1,1.5,2.1c0.8,0,1.4-0.6,1.6-1.1c0.1-0.2,0.1-0.4,0.1-0.6v-4h1.2V329.3z"/>
	<path d="M3.5,326.7c0-0.8,0-1.5-0.1-2.1h1.1l0.1,1.1h0c0.5-0.8,1.3-1.3,2.4-1.3c1.7,0,2.9,1.3,2.9,3.3c0,2.4-1.5,3.5-3.1,3.5
		c-0.9,0-1.7-0.4-2.1-1h0v3.6H3.5V326.7z M4.7,328.4c0,0.2,0,0.3,0.1,0.5c0.2,0.8,1,1.4,1.9,1.4c1.3,0,2.1-1,2.1-2.5
		c0-1.3-0.7-2.4-2-2.4c-0.9,0-1.6,0.6-1.9,1.5c0,0.1-0.1,0.3-0.1,0.5V328.4z"/>
	<path d="M16.8,328c0,1.6,1.1,2.3,2.4,2.3c0.9,0,1.4-0.1,1.9-0.3l0.2,0.9c-0.4,0.2-1.2,0.4-2.3,0.4c-2.1,0-3.4-1.3-3.4-3.3
		s1.2-3.5,3.2-3.5c2.2,0,2.8,1.9,2.8,3.1c0,0.2,0,0.4,0,0.6H16.8z M20.5,327.2c0-0.8-0.3-1.9-1.7-1.9c-1.3,0-1.8,1.1-1.9,1.9H20.5z"
		/>
	<path d="M27.9,326.6c0-0.8,0-1.4-0.1-2h1.1l0,1.3H29c0.3-0.9,1.1-1.4,1.9-1.4c0.1,0,0.2,0,0.4,0v1.1c-0.1,0-0.3,0-0.4,0
		c-0.9,0-1.5,0.6-1.7,1.5c0,0.2-0.1,0.4-0.1,0.6v3.5h-1.2V326.6z"/>
	<path d="M38.6,322.7c0,0.4-0.3,0.7-0.8,0.7c-0.4,0-0.8-0.3-0.8-0.7c0-0.4,0.3-0.7,0.8-0.7C38.3,321.9,38.6,322.3,38.6,322.7z
		 M37.2,331.1v-6.6h1.2v6.6H37.2z"/>
	<path d="M51.3,327.8c0,2.4-1.8,3.5-3.4,3.5c-1.9,0-3.3-1.3-3.3-3.4c0-2.2,1.5-3.5,3.4-3.5C50,324.4,51.3,325.8,51.3,327.8z
		 M45.9,327.8c0,1.4,0.9,2.5,2.1,2.5c1.2,0,2.1-1.1,2.1-2.6c0-1.1-0.6-2.5-2.1-2.5C46.5,325.3,45.9,326.6,45.9,327.8z"/>
	<path d="M57.5,326.6c0-0.8,0-1.4-0.1-2h1.1l0,1.3h0.1c0.3-0.9,1.1-1.4,1.9-1.4c0.1,0,0.2,0,0.4,0v1.1c-0.1,0-0.3,0-0.4,0
		c-0.9,0-1.5,0.6-1.7,1.5c0,0.2-0.1,0.4-0.1,0.6v3.5h-1.2V326.6z"/>
	<path d="M74.4,326.7c0-0.8,0-1.5-0.1-2.1h1.1l0.1,1.1h0c0.5-0.8,1.3-1.3,2.4-1.3c1.7,0,2.9,1.3,2.9,3.3c0,2.4-1.5,3.5-3.1,3.5
		c-0.9,0-1.7-0.4-2.1-1h0v3.6h-1.2V326.7z M75.6,328.4c0,0.2,0,0.3,0.1,0.5c0.2,0.8,1,1.4,1.9,1.4c1.3,0,2.1-1,2.1-2.5
		c0-1.3-0.7-2.4-2-2.4c-0.9,0-1.6,0.6-1.9,1.5c0,0.1-0.1,0.3-0.1,0.5V328.4z"/>
	<path d="M87,326.6c0-0.8,0-1.4-0.1-2h1.1l0,1.3h0.1c0.3-0.9,1.1-1.4,1.9-1.4c0.1,0,0.2,0,0.4,0v1.1c-0.1,0-0.3,0-0.4,0
		c-0.9,0-1.5,0.6-1.7,1.5c0,0.2-0.1,0.4-0.1,0.6v3.5H87V326.6z"/>
	<path d="M97.7,322.7c0,0.4-0.3,0.7-0.8,0.7c-0.4,0-0.8-0.3-0.8-0.7c0-0.4,0.3-0.7,0.8-0.7C97.4,321.9,97.7,322.3,97.7,322.7z
		 M96.3,331.1v-6.6h1.2v6.6H96.3z"/>
	<path d="M104.3,326.3c0-0.7,0-1.2-0.1-1.8h1.1l0.1,1.1h0c0.3-0.6,1.1-1.2,2.3-1.2c1,0,2.4,0.5,2.4,2.8v3.9h-1.2v-3.8
		c0-1.1-0.4-1.9-1.6-1.9c-0.8,0-1.5,0.6-1.7,1.2c-0.1,0.1-0.1,0.4-0.1,0.6v3.9h-1.2V326.3z"/>
	<path d="M118.2,323v1.6h1.8v0.9h-1.8v3.5c0,0.8,0.2,1.3,0.9,1.3c0.3,0,0.5,0,0.7-0.1l0.1,0.9c-0.2,0.1-0.6,0.2-1.1,0.2
		c-0.6,0-1-0.2-1.3-0.5c-0.4-0.4-0.5-0.9-0.5-1.7v-3.6h-1.1v-0.9h1.1v-1.2L118.2,323z"/>
	<path d="M138.3,330.1L138.3,330.1c-0.4,0.7-1.2,1.2-2.3,1.2c-1.6,0-2.9-1.3-2.9-3.3c0-2.5,1.7-3.5,3.1-3.5c1.1,0,1.8,0.5,2.1,1.1h0
		l0-1h1.2c0,0.6,0,1.1,0,1.8v7.4h-1.2V330.1z M138.3,327.2c0-0.2,0-0.4-0.1-0.5c-0.2-0.7-0.9-1.4-1.8-1.4c-1.3,0-2.1,1-2.1,2.5
		c0,1.3,0.7,2.4,2,2.4c0.8,0,1.5-0.5,1.8-1.3c0.1-0.2,0.1-0.4,0.1-0.6V327.2z"/>
	<path d="M152,329.3c0,0.7,0,1.3,0.1,1.8h-1.1l-0.1-1.1h0c-0.3,0.5-1,1.2-2.3,1.2c-1.1,0-2.4-0.6-2.4-2.9v-3.8h1.2v3.6
		c0,1.2,0.4,2.1,1.5,2.1c0.8,0,1.4-0.6,1.6-1.1c0.1-0.2,0.1-0.4,0.1-0.6v-4h1.2V329.3z"/>
	<path d="M163.5,329.5c0,0.6,0,1.1,0.1,1.6h-1.1l-0.1-0.8h0c-0.4,0.5-1.1,1-2.1,1c-1.4,0-2.1-0.9-2.1-1.9c0-1.6,1.5-2.5,4.1-2.4
		v-0.1c0-0.5-0.2-1.5-1.6-1.5c-0.6,0-1.3,0.2-1.8,0.5l-0.3-0.8c0.6-0.4,1.4-0.6,2.3-0.6c2.1,0,2.6,1.4,2.6,2.7V329.5z M162.3,327.8
		c-1.4,0-2.9,0.2-2.9,1.5c0,0.8,0.5,1.1,1.2,1.1c0.9,0,1.5-0.5,1.7-1.1c0-0.1,0.1-0.3,0.1-0.4V327.8z"/>
	<path d="M170.1,321.5h1.2v9.6h-1.2V321.5z"/>
	<path d="M179.4,322.7c0,0.4-0.3,0.7-0.8,0.7c-0.4,0-0.8-0.3-0.8-0.7c0-0.4,0.3-0.7,0.8-0.7C179.1,321.9,179.4,322.3,179.4,322.7z
		 M178.1,331.1v-6.6h1.2v6.6H178.1z"/>
	<path d="M187.5,323v1.6h1.8v0.9h-1.8v3.5c0,0.8,0.2,1.3,0.9,1.3c0.3,0,0.5,0,0.7-0.1l0.1,0.9c-0.2,0.1-0.6,0.2-1.1,0.2
		c-0.6,0-1-0.2-1.3-0.5c-0.4-0.4-0.5-0.9-0.5-1.7v-3.6h-1.1v-0.9h1.1v-1.2L187.5,323z"/>
	<path d="M195.9,324.5l1.5,3.9c0.2,0.4,0.3,1,0.4,1.3h0c0.1-0.4,0.3-0.9,0.4-1.4l1.4-3.9h1.3l-1.9,4.7c-0.9,2.3-1.5,3.4-2.4,4.1
		c-0.6,0.5-1.2,0.7-1.5,0.8l-0.3-1c0.3-0.1,0.7-0.3,1.1-0.6c0.3-0.3,0.8-0.7,1-1.3c0.1-0.1,0.1-0.2,0.1-0.3c0-0.1,0-0.2-0.1-0.3
		l-2.5-6H195.9z"/>
	<path d="M219.2,329.5c0,0.6,0,1.1,0.1,1.6h-1.1l-0.1-0.8h0c-0.4,0.5-1.1,1-2.1,1c-1.4,0-2.1-0.9-2.1-1.9c0-1.6,1.5-2.5,4.1-2.4
		v-0.1c0-0.5-0.2-1.5-1.6-1.5c-0.6,0-1.3,0.2-1.8,0.5l-0.3-0.8c0.6-0.4,1.4-0.6,2.3-0.6c2.1,0,2.6,1.4,2.6,2.7V329.5z M217.9,327.8
		c-1.4,0-2.9,0.2-2.9,1.5c0,0.8,0.5,1.1,1.2,1.1c0.9,0,1.5-0.5,1.7-1.1c0-0.1,0.1-0.3,0.1-0.4V327.8z"/>
	<path d="M227.2,323v1.6h1.8v0.9h-1.8v3.5c0,0.8,0.2,1.3,0.9,1.3c0.3,0,0.5,0,0.7-0.1l0.1,0.9c-0.2,0.1-0.6,0.2-1.1,0.2
		c-0.6,0-1-0.2-1.3-0.5c-0.4-0.4-0.5-0.9-0.5-1.7v-3.6h-1.1v-0.9h1.1v-1.2L227.2,323z"/>
	<path d="M244.1,323v1.6h1.8v0.9h-1.8v3.5c0,0.8,0.2,1.3,0.9,1.3c0.3,0,0.5,0,0.7-0.1l0.1,0.9c-0.2,0.1-0.6,0.2-1.1,0.2
		c-0.6,0-1.1-0.2-1.3-0.5c-0.4-0.4-0.5-0.9-0.5-1.7v-3.6h-1.1v-0.9h1.1v-1.2L244.1,323z"/>
	<path d="M251.9,321.5h1.2v4.1h0c0.2-0.3,0.5-0.6,0.9-0.8c0.4-0.2,0.8-0.3,1.3-0.3c0.9,0,2.4,0.5,2.4,2.8v3.9h-1.2v-3.8
		c0-1.1-0.4-2-1.6-2c-0.8,0-1.4,0.5-1.7,1.2c-0.1,0.2-0.1,0.3-0.1,0.6v4h-1.2V321.5z"/>
	<path d="M265.1,328c0,1.6,1.1,2.3,2.4,2.3c0.9,0,1.4-0.1,1.9-0.3l0.2,0.9c-0.4,0.2-1.2,0.4-2.3,0.4c-2.1,0-3.4-1.3-3.4-3.3
		s1.2-3.5,3.2-3.5c2.2,0,2.8,1.9,2.8,3.1c0,0.2,0,0.4,0,0.6H265.1z M268.8,327.2c0-0.8-0.3-1.9-1.7-1.9c-1.3,0-1.8,1.1-1.9,1.9
		H268.8z"/>
	<path d="M283.8,321.5h1.2v4.1h0c0.4-0.7,1.2-1.2,2.3-1.2c1.7,0,2.9,1.4,2.9,3.4c0,2.3-1.5,3.5-3.1,3.5c-1,0-1.8-0.4-2.3-1.2h0
		l-0.1,1.1h-1.1c0-0.4,0.1-1.1,0.1-1.7V321.5z M285,328.5c0,0.1,0,0.3,0.1,0.4c0.2,0.8,1,1.4,1.9,1.4c1.3,0,2.1-1,2.1-2.5
		c0-1.3-0.7-2.4-2-2.4c-0.9,0-1.6,0.6-1.9,1.5c0,0.1-0.1,0.3-0.1,0.5V328.5z"/>
	<path d="M297.1,328c0,1.6,1.1,2.3,2.4,2.3c0.9,0,1.4-0.1,1.9-0.3l0.2,0.9c-0.4,0.2-1.2,0.4-2.3,0.4c-2.1,0-3.4-1.3-3.4-3.3
		s1.2-3.5,3.2-3.5c2.2,0,2.8,1.9,2.8,3.1c0,0.2,0,0.4,0,0.6H297.1z M300.8,327.2c0-0.8-0.3-1.9-1.7-1.9c-1.3,0-1.8,1.1-1.9,1.9
		H300.8z"/>
	<path d="M308,329.9c0.4,0.2,1,0.5,1.6,0.5c0.9,0,1.3-0.4,1.3-1c0-0.6-0.4-0.9-1.3-1.2c-1.2-0.4-1.8-1.1-1.8-1.9
		c0-1.1,0.9-1.9,2.4-1.9c0.7,0,1.3,0.2,1.7,0.4l-0.3,0.9c-0.3-0.2-0.8-0.4-1.4-0.4c-0.7,0-1.1,0.4-1.1,0.9c0,0.5,0.4,0.8,1.3,1.1
		c1.2,0.4,1.8,1,1.8,2c0,1.2-0.9,2-2.6,2c-0.8,0-1.4-0.2-1.9-0.5L308,329.9z"/>
	<path d="M319.9,323v1.6h1.8v0.9h-1.8v3.5c0,0.8,0.2,1.3,0.9,1.3c0.3,0,0.5,0,0.7-0.1l0.1,0.9c-0.2,0.1-0.6,0.2-1.1,0.2
		c-0.6,0-1.1-0.2-1.3-0.5c-0.4-0.4-0.5-0.9-0.5-1.7v-3.6h-1.1v-0.9h1.1v-1.2L319.9,323z"/>
	<path d="M335.3,326.7c0-0.8,0-1.5-0.1-2.1h1.1l0.1,1.1h0c0.5-0.8,1.3-1.3,2.4-1.3c1.7,0,2.9,1.3,2.9,3.3c0,2.4-1.5,3.5-3.1,3.5
		c-0.9,0-1.7-0.4-2.1-1h0v3.6h-1.2V326.7z M336.5,328.4c0,0.2,0,0.3,0.1,0.5c0.2,0.8,1,1.4,1.9,1.4c1.3,0,2.1-1,2.1-2.5
		c0-1.3-0.7-2.4-2-2.4c-0.9,0-1.6,0.6-1.9,1.5c0,0.1-0.1,0.3-0.1,0.5V328.4z"/>
	<path d="M348,326.6c0-0.8,0-1.4-0.1-2h1.1l0,1.3h0.1c0.3-0.9,1.1-1.4,1.9-1.4c0.1,0,0.2,0,0.4,0v1.1c-0.1,0-0.3,0-0.4,0
		c-0.9,0-1.5,0.6-1.7,1.5c0,0.2-0.1,0.4-0.1,0.6v3.5H348V326.6z"/>
	<path d="M358.7,322.7c0,0.4-0.3,0.7-0.8,0.7c-0.4,0-0.8-0.3-0.8-0.7c0-0.4,0.3-0.7,0.8-0.7C358.4,321.9,358.7,322.3,358.7,322.7z
		 M357.3,331.1v-6.6h1.2v6.6H357.3z"/>
	<path d="M370.1,330.9c-0.3,0.2-1,0.4-2,0.4c-2.1,0-3.4-1.4-3.4-3.4c0-2,1.4-3.5,3.7-3.5c0.7,0,1.4,0.2,1.7,0.3l-0.3,0.9
		c-0.3-0.2-0.8-0.3-1.4-0.3c-1.6,0-2.4,1.1-2.4,2.5c0,1.5,1,2.5,2.4,2.5c0.7,0,1.2-0.2,1.5-0.3L370.1,330.9z"/>
	<path d="M376.8,328c0,1.6,1.1,2.3,2.4,2.3c0.9,0,1.4-0.1,1.9-0.3l0.2,0.9c-0.4,0.2-1.2,0.4-2.3,0.4c-2.1,0-3.4-1.3-3.4-3.3
		s1.2-3.5,3.2-3.5c2.2,0,2.8,1.9,2.8,3.1c0,0.2,0,0.4,0,0.6H376.8z M380.5,327.2c0-0.8-0.3-1.9-1.7-1.9c-1.3,0-1.8,1.1-1.9,1.9
		H380.5z"/>
	<path d="M388.2,331.3c-0.5,0-0.8-0.4-0.8-0.9c0-0.5,0.4-0.9,0.9-0.9c0.5,0,0.8,0.4,0.8,0.9C389,330.9,388.7,331.3,388.2,331.3
		L388.2,331.3z"/>
</g>
</svg>
