<?xml version="1.0" encoding="utf-8"?>
<!-- Generator: Adobe Illustrator 19.0.0, SVG Export Plug-In . SVG Version: 6.00 Build 0)  -->
<svg version="1.1" id="Layer_1" xmlns="http://www.w3.org/2000/svg" xmlns:xlink="http://www.w3.org/1999/xlink" x="0px" y="0px"
	 viewBox="0 0 18.7 18.7" style="enable-background:new 0 0 18.7 18.7;" xml:space="preserve">
<style type="text/css">
	.st0{fill:#9AC21F;}
	.st1{opacity:0.15;}
	.st2{fill:#FFFFFF;}
</style>
<g id="XMLID_74_">
	<circle id="XMLID_80_" class="st0" cx="9.3" cy="9.3" r="9.1"/>
	<path id="XMLID_78_" class="st1" d="M11.1,18.3c4.2-0.8,7.4-4.5,7.4-9c0-0.5,0-1-0.1-1.5l-3.5-3.5c-3.4,2.7-5.7,6.4-7.5,10.3
		L11.1,18.3z"/>
	<path id="XMLID_76_" class="st2" d="M3.7,10.3c0.1,0.2,0.7,0.8,1.4,1.7c0.9,1.1,1.9,2.3,2,2.4c0.2,0.3,0.4,0.1,0.7-0.6
		c0.5-0.9,1.4-2.9,2.7-4.7s3.3-3.8,3.8-4.2c0.5-0.4,0.7-0.6,0.4-0.8c-0.3-0.1-2.8,1.6-4.2,3.1C9,9,7.3,11.7,6.9,11.8
		c-0.3,0.1-1.9-1.1-2.4-1.4C4,10,3.4,9.9,3.7,10.3z"/>
</g>
</svg>
